STARTFONT 2.1
COMMENT
COMMENT Converted from OpenType font "IBMPlexSansCondensed-Bold.ttf" by "otf2bdf 3.0".
COMMENT
FONT -FreeType-IBM Plex Sans Cond-Bold-R-Normal--26-260-72-72-P-125-ISO10646-1
SIZE 26 72 72
FONTBOUNDINGBOX 37 39 -6 -8
STARTPROPERTIES 19
FOUNDRY "FreeType"
FAMILY_NAME "IBM Plex Sans Cond"
WEIGHT_NAME "Bold"
SLANT "R"
SETWIDTH_NAME "Normal"
ADD_STYLE_NAME ""
PIXEL_SIZE 26
POINT_SIZE 260
RESOLUTION_X 72
RESOLUTION_Y 72
SPACING "P"
AVERAGE_WIDTH 125
CHARSET_REGISTRY "ISO10646"
CHARSET_ENCODING "1"
FONT_ASCENT 26
FONT_DESCENT 7
COPYRIGHT "Copyright 2019 IBM Corp. All rights reserved."
_OTF_FONTFILE "IBMPlexSansCondensed-Bold.ttf"
_OTF_PSNAME "IBMPlexSansCond-Bold"
ENDPROPERTIES
CHARS 604
STARTCHAR 0000
ENCODING 0
SWIDTH 0 0
DWIDTH 0 0
BBX 0 0 0 0
BITMAP
ENDCHAR
STARTCHAR 000D
ENCODING 13
SWIDTH 230 0
DWIDTH 6 0
BBX 0 0 0 0
BITMAP
ENDCHAR
STARTCHAR 0020
ENCODING 32
SWIDTH 230 0
DWIDTH 6 0
BBX 0 0 0 0
BITMAP
ENDCHAR
STARTCHAR 0021
ENCODING 33
SWIDTH 307 0
DWIDTH 8 0
BBX 4 18 2 0
BITMAP
F0
F0
F0
F0
F0
F0
F0
E0
E0
E0
60
60
60
00
E0
F0
F0
F0
ENDCHAR
STARTCHAR 0022
ENCODING 34
SWIDTH 461 0
DWIDTH 12 0
BBX 8 8 2 11
BITMAP
E7
E7
E7
E7
E7
E7
E7
E7
ENDCHAR
STARTCHAR 0023
ENCODING 35
SWIDTH 576 0
DWIDTH 15 0
BBX 14 18 0 0
BITMAP
0618
0E38
0C38
0C30
0C30
7FFC
7FFC
1C30
1870
1860
1860
FFF8
FFF8
38E0
30E0
30C0
30C0
30C0
ENDCHAR
STARTCHAR 0024
ENCODING 36
SWIDTH 538 0
DWIDTH 14 0
BBX 12 22 1 -2
BITMAP
0700
0700
0700
1FC0
7FE0
7FF0
F660
F600
F600
7F00
7FC0
1FF0
07F0
0670
4670
E6F0
FFF0
7FE0
1F80
0700
0700
0700
ENDCHAR
STARTCHAR 0025
ENCODING 37
SWIDTH 884 0
DWIDTH 23 0
BBX 21 18 1 0
BITMAP
3E03C0
7F0380
770700
E38F00
E38E00
E39C00
E3BC00
673800
7F73E0
3E77F0
00E770
01CE38
01CE38
038E38
078E38
070770
0E07F0
1E03E0
ENDCHAR
STARTCHAR 0026
ENCODING 38
SWIDTH 653 0
DWIDTH 17 0
BBX 16 18 1 0
BITMAP
0F80
3FE0
3FE0
38E0
38E0
38E0
3DE0
1FC0
1F1E
3F9E
7FDE
F3DC
F1F8
F0F8
F0F8
7FBC
7FBE
3E1F
ENDCHAR
STARTCHAR 0027
ENCODING 39
SWIDTH 230 0
DWIDTH 6 0
BBX 3 8 2 11
BITMAP
E0
E0
E0
E0
E0
E0
E0
E0
ENDCHAR
STARTCHAR 0028
ENCODING 40
SWIDTH 307 0
DWIDTH 8 0
BBX 7 24 1 -4
BITMAP
1E
1C
38
78
70
70
F0
E0
E0
E0
E0
E0
E0
E0
E0
E0
E0
F0
70
70
78
38
1C
1E
ENDCHAR
STARTCHAR 0029
ENCODING 41
SWIDTH 307 0
DWIDTH 8 0
BBX 7 24 0 -4
BITMAP
F0
70
38
38
1C
1C
1E
1E
0E
0E
0E
0E
0E
0E
0E
0E
1E
1E
1C
1C
38
38
70
F0
ENDCHAR
STARTCHAR 002A
ENCODING 42
SWIDTH 538 0
DWIDTH 14 0
BBX 13 13 1 6
BITMAP
0700
0700
0700
C630
F670
FFF8
1FC0
0F00
1D80
39C0
78E0
30C0
1080
ENDCHAR
STARTCHAR 002B
ENCODING 43
SWIDTH 538 0
DWIDTH 14 0
BBX 12 11 1 2
BITMAP
0F00
0F00
0F00
0F00
FFF0
FFF0
FFF0
0F00
0F00
0F00
0F00
ENDCHAR
STARTCHAR 002C
ENCODING 44
SWIDTH 269 0
DWIDTH 7 0
BBX 5 8 1 -4
BITMAP
70
78
78
78
38
30
70
E0
ENDCHAR
STARTCHAR 002D
ENCODING 45
SWIDTH 346 0
DWIDTH 9 0
BBX 7 4 1 6
BITMAP
FE
FE
FE
FE
ENDCHAR
STARTCHAR 002E
ENCODING 46
SWIDTH 269 0
DWIDTH 7 0
BBX 4 4 2 0
BITMAP
E0
F0
F0
E0
ENDCHAR
STARTCHAR 002F
ENCODING 47
SWIDTH 423 0
DWIDTH 11 0
BBX 10 23 0 -4
BITMAP
01C0
01C0
0380
0380
0380
0700
0700
0700
0700
0E00
0E00
0E00
1C00
1C00
1C00
3800
3800
3800
7000
7000
7000
7000
E000
ENDCHAR
STARTCHAR 0030
ENCODING 48
SWIDTH 538 0
DWIDTH 14 0
BBX 12 18 1 0
BITMAP
1F80
3FC0
7FE0
70E0
F0F0
F0F0
F0F0
F0F0
F0F0
F0F0
F0F0
F0F0
F0F0
F0F0
70E0
7FE0
3FC0
1F80
ENDCHAR
STARTCHAR 0031
ENCODING 49
SWIDTH 538 0
DWIDTH 14 0
BBX 12 18 1 0
BITMAP
1F80
3F80
7F80
7780
F780
E780
2780
0780
0780
0780
0780
0780
0780
0780
0780
7FF0
7FF0
7FF0
ENDCHAR
STARTCHAR 0032
ENCODING 50
SWIDTH 538 0
DWIDTH 14 0
BBX 12 18 1 0
BITMAP
1F80
3FC0
7FE0
F1E0
E0F0
20F0
00F0
01E0
01E0
03C0
0780
0F00
1E00
3C00
7800
FFF0
FFF0
FFF0
ENDCHAR
STARTCHAR 0033
ENCODING 51
SWIDTH 538 0
DWIDTH 14 0
BBX 13 18 0 0
BITMAP
0FC0
3FE0
7FF0
78F0
3070
00F0
00F0
07E0
0780
07E0
00F0
0078
2078
3078
F8F0
7FF0
3FE0
0F80
ENDCHAR
STARTCHAR 0034
ENCODING 52
SWIDTH 538 0
DWIDTH 14 0
BBX 12 18 1 0
BITMAP
07C0
07C0
0FC0
0DC0
1DC0
19C0
39C0
31C0
71C0
E1C0
E1C0
FFF0
FFF0
FFF0
01C0
01C0
01C0
01C0
ENDCHAR
STARTCHAR 0035
ENCODING 53
SWIDTH 538 0
DWIDTH 14 0
BBX 12 18 1 0
BITMAP
7FE0
7FE0
7FE0
7000
7000
7000
77C0
7FE0
7FF0
F0F0
00F0
00F0
00F0
60F0
F0F0
7FE0
7FE0
1F80
ENDCHAR
STARTCHAR 0036
ENCODING 54
SWIDTH 538 0
DWIDTH 14 0
BBX 12 18 1 0
BITMAP
07E0
0F80
1F00
3E00
3C00
7800
73C0
F7E0
FFF0
F8F0
F0F0
F0F0
F0F0
F0F0
F8F0
7FE0
3FE0
1F80
ENDCHAR
STARTCHAR 0037
ENCODING 55
SWIDTH 538 0
DWIDTH 14 0
BBX 12 18 1 0
BITMAP
FFF0
FFF0
FFF0
E0F0
E0E0
E1E0
E1E0
01C0
03C0
03C0
0380
0780
0780
0F00
0F00
0F00
1E00
1E00
ENDCHAR
STARTCHAR 0038
ENCODING 56
SWIDTH 538 0
DWIDTH 14 0
BBX 12 18 1 0
BITMAP
1F80
7FE0
7FE0
F0F0
F0F0
F0F0
70E0
3FC0
1F80
7FE0
F0F0
F0F0
F0F0
F0F0
F0F0
7FE0
7FE0
1F80
ENDCHAR
STARTCHAR 0039
ENCODING 57
SWIDTH 538 0
DWIDTH 14 0
BBX 12 18 1 0
BITMAP
1F80
7FC0
7FE0
F1F0
F0F0
F0F0
F0F0
F0F0
F1F0
FFF0
7EF0
3CE0
01E0
03C0
07C0
0F80
1F00
7E00
ENDCHAR
STARTCHAR 003A
ENCODING 58
SWIDTH 307 0
DWIDTH 8 0
BBX 4 14 2 0
BITMAP
F0
F0
F0
F0
00
00
00
00
00
00
F0
F0
F0
F0
ENDCHAR
STARTCHAR 003B
ENCODING 59
SWIDTH 307 0
DWIDTH 8 0
BBX 5 18 1 -4
BITMAP
78
78
78
78
00
00
00
00
00
00
78
78
78
78
38
30
70
E0
ENDCHAR
STARTCHAR 003C
ENCODING 60
SWIDTH 538 0
DWIDTH 14 0
BBX 10 16 2 0
BITMAP
0040
00C0
03C0
07C0
1F80
3E00
7C00
F800
F800
7C00
3E00
1F80
07C0
03C0
00C0
0040
ENDCHAR
STARTCHAR 003D
ENCODING 61
SWIDTH 538 0
DWIDTH 14 0
BBX 12 8 1 4
BITMAP
FFF0
FFF0
FFF0
0000
0000
FFF0
FFF0
FFF0
ENDCHAR
STARTCHAR 003E
ENCODING 62
SWIDTH 538 0
DWIDTH 14 0
BBX 10 16 2 0
BITMAP
8000
C000
F000
F800
7E00
1F00
0F80
03C0
03C0
0F80
1F00
7E00
F800
F000
C000
8000
ENDCHAR
STARTCHAR 003F
ENCODING 63
SWIDTH 461 0
DWIDTH 12 0
BBX 11 18 0 0
BITMAP
1F80
3FC0
7FE0
F1E0
31E0
01E0
01E0
03E0
0FC0
0F80
0E00
0E00
0000
0000
0E00
1F00
1F00
0E00
ENDCHAR
STARTCHAR 0040
ENCODING 64
SWIDTH 807 0
DWIDTH 21 0
BBX 19 21 1 -3
BITMAP
03F800
0FFE00
1E0780
380380
7001C0
71DCC0
63FCE0
E71C60
E71C60
E71C60
E71C60
E71C60
E71CE0
E71CC0
63EFC0
71CF80
700000
380000
1E0000
0FFE00
03FE00
ENDCHAR
STARTCHAR 0041
ENCODING 65
SWIDTH 615 0
DWIDTH 16 0
BBX 15 18 1 0
BITMAP
07C0
0FC0
0FC0
0FC0
1FE0
1CE0
1CE0
1CF0
3CF0
38F0
3870
7FF8
7FF8
7FF8
703C
F03C
F03C
E01E
ENDCHAR
STARTCHAR 0042
ENCODING 66
SWIDTH 615 0
DWIDTH 16 0
BBX 13 18 2 0
BITMAP
FFC0
FFE0
FFF0
E0F0
E0F0
E0F0
E0F0
FFE0
FF80
FFF0
E070
E078
E078
E078
E078
FFF0
FFF0
FFC0
ENDCHAR
STARTCHAR 0043
ENCODING 67
SWIDTH 576 0
DWIDTH 15 0
BBX 14 18 1 0
BITMAP
0FC0
1FF0
3FF8
7C78
783C
F020
F000
F000
F000
F000
F000
F000
F020
7838
787C
3FF8
1FF0
0FC0
ENDCHAR
STARTCHAR 0044
ENCODING 68
SWIDTH 615 0
DWIDTH 16 0
BBX 13 18 2 0
BITMAP
FF80
FFE0
FFF0
E0F0
E078
E078
E078
E078
E078
E078
E078
E078
E078
E078
E0F0
FFF0
FFE0
FF80
ENDCHAR
STARTCHAR 0045
ENCODING 69
SWIDTH 538 0
DWIDTH 14 0
BBX 11 18 2 0
BITMAP
FFE0
FFE0
FFE0
E000
E000
E000
E000
FFC0
FFC0
FFC0
E000
E000
E000
E000
E000
FFE0
FFE0
FFE0
ENDCHAR
STARTCHAR 0046
ENCODING 70
SWIDTH 538 0
DWIDTH 14 0
BBX 11 18 2 0
BITMAP
FFE0
FFE0
FFE0
E000
E000
E000
E000
FFC0
FFC0
FFC0
E000
E000
E000
E000
E000
E000
E000
E000
ENDCHAR
STARTCHAR 0047
ENCODING 71
SWIDTH 653 0
DWIDTH 17 0
BBX 14 18 1 0
BITMAP
0FC0
1FF0
3FF8
7C7C
7838
F020
F000
F000
F0FC
F0FC
F0FC
F01C
F01C
783C
787C
3FFC
1FDC
0F9C
ENDCHAR
STARTCHAR 0048
ENCODING 72
SWIDTH 653 0
DWIDTH 17 0
BBX 13 18 2 0
BITMAP
E038
E038
E038
E038
E038
E038
E038
FFF8
FFF8
FFF8
E038
E038
E038
E038
E038
E038
E038
E038
ENDCHAR
STARTCHAR 0049
ENCODING 73
SWIDTH 384 0
DWIDTH 10 0
BBX 8 18 1 0
BITMAP
FF
FF
FF
3C
3C
3C
3C
3C
3C
3C
3C
3C
3C
3C
3C
FF
FF
FF
ENDCHAR
STARTCHAR 004A
ENCODING 74
SWIDTH 500 0
DWIDTH 13 0
BBX 10 18 1 0
BITMAP
3FC0
3FC0
3FC0
01C0
01C0
01C0
01C0
01C0
01C0
01C0
01C0
01C0
01C0
E1C0
F3C0
FFC0
7F80
3F00
ENDCHAR
STARTCHAR 004B
ENCODING 75
SWIDTH 615 0
DWIDTH 16 0
BBX 14 18 2 0
BITMAP
E07C
E0F8
E0F0
E1E0
E3C0
E3C0
E780
EF00
EF80
FF80
FBC0
FBC0
F1E0
E1F0
E0F0
E0F8
E078
E03C
ENDCHAR
STARTCHAR 004C
ENCODING 76
SWIDTH 461 0
DWIDTH 12 0
BBX 10 18 2 0
BITMAP
E000
E000
E000
E000
E000
E000
E000
E000
E000
E000
E000
E000
E000
E000
E000
FFC0
FFC0
FFC0
ENDCHAR
STARTCHAR 004D
ENCODING 77
SWIDTH 730 0
DWIDTH 19 0
BBX 15 18 2 0
BITMAP
F01E
F01E
F83E
F83E
FC7E
FC7E
EE6E
EEEE
E6EE
E7CE
E7CE
E38E
E38E
E10E
E10E
E00E
E00E
E00E
ENDCHAR
STARTCHAR 004E
ENCODING 78
SWIDTH 653 0
DWIDTH 17 0
BBX 13 18 2 0
BITMAP
F038
F838
F838
FC38
FC38
FC38
EE38
EE38
E738
E738
E3B8
E3B8
E1F8
E1F8
E0F8
E0F8
E0F8
E078
ENDCHAR
STARTCHAR 004F
ENCODING 79
SWIDTH 653 0
DWIDTH 17 0
BBX 15 18 1 0
BITMAP
0FC0
1FF0
3FF8
7878
783C
F03C
F01C
F01C
F01E
F01E
F01C
F01C
F03C
783C
787C
3FF8
1FF0
0FC0
ENDCHAR
STARTCHAR 0050
ENCODING 80
SWIDTH 576 0
DWIDTH 15 0
BBX 13 18 2 0
BITMAP
FFC0
FFE0
FFF0
E0F0
E078
E078
E078
E0F0
FFF0
FFE0
FFC0
E000
E000
E000
E000
E000
E000
E000
ENDCHAR
STARTCHAR 0051
ENCODING 81
SWIDTH 653 0
DWIDTH 17 0
BBX 15 23 1 -5
BITMAP
0FC0
1FF0
3FF8
7878
783C
F03C
F01C
F01C
F01E
F01E
F01E
F01C
F03C
783C
787C
3FF8
1FF0
0FE0
0380
0380
03F0
03F0
01F0
ENDCHAR
STARTCHAR 0052
ENCODING 82
SWIDTH 615 0
DWIDTH 16 0
BBX 13 18 2 0
BITMAP
FFC0
FFE0
FFF0
E0F0
E078
E078
E078
E0F0
FFF0
FFE0
FFC0
E3C0
E1C0
E1E0
E1E0
E0F0
E0F0
E078
ENDCHAR
STARTCHAR 0053
ENCODING 83
SWIDTH 538 0
DWIDTH 14 0
BBX 12 18 1 0
BITMAP
1FC0
3FE0
7FF0
F8E0
F040
F000
F800
7F00
7FE0
1FF0
01F0
00F0
0070
6070
70F0
FFF0
7FE0
1F80
ENDCHAR
STARTCHAR 0054
ENCODING 84
SWIDTH 538 0
DWIDTH 14 0
BBX 12 18 1 0
BITMAP
FFF0
FFF0
FFF0
0F00
0F00
0F00
0F00
0F00
0F00
0F00
0F00
0F00
0F00
0F00
0F00
0F00
0F00
0F00
ENDCHAR
STARTCHAR 0055
ENCODING 85
SWIDTH 615 0
DWIDTH 16 0
BBX 13 18 2 0
BITMAP
E078
E078
E078
E078
E078
E078
E078
E078
E078
E078
E078
E078
E078
F078
F0F0
FFF0
7FE0
1FC0
ENDCHAR
STARTCHAR 0056
ENCODING 86
SWIDTH 615 0
DWIDTH 16 0
BBX 15 18 0 0
BITMAP
F01E
781E
781E
781C
383C
3C3C
3C38
1C38
1C78
1E70
1E70
0E70
0EF0
0EE0
07E0
07E0
07C0
07C0
ENDCHAR
STARTCHAR 0057
ENCODING 87
SWIDTH 884 0
DWIDTH 23 0
BBX 21 18 1 0
BITMAP
E0F838
F0F878
F0F878
F0F878
70DC70
71DC70
71DC70
79DCF0
79DCE0
398EE0
3B8EE0
3B8EE0
3B8EE0
3B8EC0
1F07C0
1F07C0
1F07C0
1F07C0
ENDCHAR
STARTCHAR 0058
ENCODING 88
SWIDTH 615 0
DWIDTH 16 0
BBX 16 18 0 0
BITMAP
781E
7C3C
3C3C
1E78
1E78
0F70
0FF0
07E0
07C0
07E0
07E0
0FF0
1EF0
1E78
3C7C
3C3C
783E
F81F
ENDCHAR
STARTCHAR 0059
ENCODING 89
SWIDTH 576 0
DWIDTH 15 0
BBX 15 18 0 0
BITMAP
F01E
783C
783C
3C78
3C78
1E70
1EF0
0FE0
0FE0
07C0
07C0
0380
0380
0380
0380
0380
0380
0380
ENDCHAR
STARTCHAR 005A
ENCODING 90
SWIDTH 538 0
DWIDTH 14 0
BBX 12 18 1 0
BITMAP
FFF0
FFF0
FFF0
01F0
01E0
03C0
07C0
0780
0F00
1F00
1E00
3C00
3C00
7800
F800
FFF0
FFF0
FFF0
ENDCHAR
STARTCHAR 005B
ENCODING 91
SWIDTH 307 0
DWIDTH 8 0
BBX 5 24 2 -4
BITMAP
F8
F8
F8
E0
E0
E0
E0
E0
E0
E0
E0
E0
E0
E0
E0
E0
E0
E0
E0
E0
E0
F8
F8
F8
ENDCHAR
STARTCHAR 005C
ENCODING 92
SWIDTH 423 0
DWIDTH 11 0
BBX 10 23 1 -4
BITMAP
E000
E000
7000
7000
7000
3800
3800
3800
3800
1C00
1C00
1C00
0E00
0E00
0E00
0700
0700
0700
0380
0380
0380
0380
01C0
ENDCHAR
STARTCHAR 005D
ENCODING 93
SWIDTH 307 0
DWIDTH 8 0
BBX 5 24 1 -4
BITMAP
F8
F8
F8
38
38
38
38
38
38
38
38
38
38
38
38
38
38
38
38
38
38
F8
F8
F8
ENDCHAR
STARTCHAR 005E
ENCODING 94
SWIDTH 538 0
DWIDTH 14 0
BBX 12 11 1 7
BITMAP
0F00
0F00
1F80
1F80
3BC0
39C0
71E0
70E0
F0F0
E070
2080
ENDCHAR
STARTCHAR 005F
ENCODING 95
SWIDTH 500 0
DWIDTH 13 0
BBX 11 3 1 -5
BITMAP
FFE0
FFE0
FFE0
ENDCHAR
STARTCHAR 0060
ENCODING 96
SWIDTH 538 0
DWIDTH 14 0
BBX 6 6 3 15
BITMAP
30
F0
78
38
1C
18
ENDCHAR
STARTCHAR 0061
ENCODING 97
SWIDTH 500 0
DWIDTH 13 0
BBX 12 13 1 0
BITMAP
1F00
7FC0
FFC0
21C0
01E0
3FE0
7FE0
F1E0
E1E0
F3E0
FFF0
FFF0
78F0
ENDCHAR
STARTCHAR 0062
ENCODING 98
SWIDTH 538 0
DWIDTH 14 0
BBX 11 19 2 0
BITMAP
E000
E000
E000
E000
E000
E000
E780
EFC0
EFE0
F1E0
E1E0
E0E0
E0E0
E0E0
E1E0
F1E0
EFE0
EFC0
E780
ENDCHAR
STARTCHAR 0063
ENCODING 99
SWIDTH 461 0
DWIDTH 12 0
BBX 11 13 1 0
BITMAP
1F00
7F80
7FC0
F1C0
F1A0
F000
F000
F000
F080
F1E0
7FC0
7F80
1F00
ENDCHAR
STARTCHAR 0064
ENCODING 100
SWIDTH 538 0
DWIDTH 14 0
BBX 12 19 1 0
BITMAP
00F0
00F0
00F0
00F0
00F0
00F0
3CF0
7EF0
7FF0
F0F0
F0F0
F0F0
F0F0
F0F0
F0F0
F0F0
7FF0
7EF0
3CF0
ENDCHAR
STARTCHAR 0065
ENCODING 101
SWIDTH 500 0
DWIDTH 13 0
BBX 11 13 1 0
BITMAP
1F00
7FC0
7FE0
F1E0
F0E0
FFE0
FFE0
F000
F080
F0C0
7FE0
3FC0
1F80
ENDCHAR
STARTCHAR 0066
ENCODING 102
SWIDTH 346 0
DWIDTH 9 0
BBX 7 19 1 0
BITMAP
1E
3E
7E
78
78
78
FE
FE
FE
78
78
78
78
78
78
78
78
78
78
ENDCHAR
STARTCHAR 0067
ENCODING 103
SWIDTH 500 0
DWIDTH 13 0
BBX 13 21 0 -5
BITMAP
0070
0070
00F0
1FC0
3FE0
7FE0
78F0
70F0
78F0
7FE0
3FE0
1F80
7000
7FE0
7FF8
1FF8
6038
E078
7FF8
7FF0
3FE0
ENDCHAR
STARTCHAR 0068
ENCODING 104
SWIDTH 538 0
DWIDTH 14 0
BBX 11 19 2 0
BITMAP
E000
E000
E000
E000
E000
E000
E780
EFC0
EFC0
F3E0
E1E0
E1E0
E1E0
E1E0
E1E0
E1E0
E1E0
E1E0
E1E0
ENDCHAR
STARTCHAR 0069
ENCODING 105
SWIDTH 269 0
DWIDTH 7 0
BBX 5 19 1 0
BITMAP
70
F8
F8
70
00
00
70
70
70
70
70
70
70
70
70
70
70
70
70
ENDCHAR
STARTCHAR 006A
ENCODING 106
SWIDTH 269 0
DWIDTH 7 0
BBX 6 24 0 -5
BITMAP
38
7C
7C
38
00
00
38
38
38
38
38
38
38
38
38
38
38
38
38
38
38
F8
F8
F0
ENDCHAR
STARTCHAR 006B
ENCODING 107
SWIDTH 538 0
DWIDTH 14 0
BBX 12 19 2 0
BITMAP
E000
E000
E000
E000
E000
E000
E1E0
E3C0
E780
E780
EF00
FE00
FF00
FF80
F780
E3C0
E3C0
E1E0
E1F0
ENDCHAR
STARTCHAR 006C
ENCODING 108
SWIDTH 269 0
DWIDTH 7 0
BBX 5 19 2 0
BITMAP
E0
E0
E0
E0
E0
E0
E0
E0
E0
E0
E0
E0
E0
E0
E0
E0
F8
F8
78
ENDCHAR
STARTCHAR 006D
ENCODING 109
SWIDTH 807 0
DWIDTH 21 0
BBX 18 13 2 0
BITMAP
E78F00
EFDF80
EFFF80
F3E7C0
E1C3C0
E1C3C0
E1C3C0
E1C3C0
E1C3C0
E1C3C0
E1C3C0
E1C3C0
E1C3C0
ENDCHAR
STARTCHAR 006E
ENCODING 110
SWIDTH 538 0
DWIDTH 14 0
BBX 11 13 2 0
BITMAP
E780
EFC0
EFC0
F3E0
E1E0
E1E0
E1E0
E1E0
E1E0
E1E0
E1E0
E1E0
E1E0
ENDCHAR
STARTCHAR 006F
ENCODING 111
SWIDTH 500 0
DWIDTH 13 0
BBX 11 13 1 0
BITMAP
1F00
7FC0
7FE0
F1E0
F0E0
F0E0
F0E0
F0E0
F0E0
F1E0
7FE0
7FC0
1F00
ENDCHAR
STARTCHAR 0070
ENCODING 112
SWIDTH 538 0
DWIDTH 14 0
BBX 11 18 2 -5
BITMAP
E780
EFC0
EFE0
F1E0
E1E0
E0E0
E0E0
E0E0
E1E0
F1E0
EFE0
EFC0
E780
E000
E000
E000
E000
E000
ENDCHAR
STARTCHAR 0071
ENCODING 113
SWIDTH 538 0
DWIDTH 14 0
BBX 12 18 1 -5
BITMAP
3CF0
7EF0
7FF0
F0F0
F0F0
F0F0
F0F0
F0F0
F0F0
F0F0
7FF0
7EF0
3CF0
00F0
00F0
00F0
00F0
00F0
ENDCHAR
STARTCHAR 0072
ENCODING 114
SWIDTH 384 0
DWIDTH 10 0
BBX 7 13 2 0
BITMAP
E6
EE
FE
F0
E0
E0
E0
E0
E0
E0
E0
E0
E0
ENDCHAR
STARTCHAR 0073
ENCODING 115
SWIDTH 461 0
DWIDTH 12 0
BBX 10 13 1 0
BITMAP
3F00
7FC0
FF80
F100
F000
FF00
7F80
3FC0
03C0
61C0
FFC0
FF80
3F00
ENDCHAR
STARTCHAR 0074
ENCODING 116
SWIDTH 346 0
DWIDTH 9 0
BBX 7 17 1 0
BITMAP
38
38
38
78
FE
FE
FE
78
78
78
78
78
78
78
7E
3E
3E
ENDCHAR
STARTCHAR 0075
ENCODING 117
SWIDTH 538 0
DWIDTH 14 0
BBX 11 13 1 0
BITMAP
F0E0
F0E0
F0E0
F0E0
F0E0
F0E0
F0E0
F0E0
F0E0
F9E0
7EE0
7EE0
3CE0
ENDCHAR
STARTCHAR 0076
ENCODING 118
SWIDTH 500 0
DWIDTH 13 0
BBX 13 13 0 0
BITMAP
F078
7070
70F0
78F0
78E0
38E0
3DE0
3DC0
1DC0
1DC0
1F80
0F80
0F80
ENDCHAR
STARTCHAR 0077
ENCODING 119
SWIDTH 769 0
DWIDTH 20 0
BBX 19 13 0 0
BITMAP
F0F0E0
70F0E0
71F1E0
79F9C0
79B9C0
39B9C0
3BB9C0
3B9B80
3B9F80
1F1F80
1F1F80
1F0F00
0F0F00
ENDCHAR
STARTCHAR 0078
ENCODING 120
SWIDTH 500 0
DWIDTH 13 0
BBX 13 13 0 0
BITMAP
F878
78F0
3CE0
1DE0
1FC0
0F80
0F80
0F80
1FC0
3DE0
38E0
78F0
F078
ENDCHAR
STARTCHAR 0079
ENCODING 121
SWIDTH 500 0
DWIDTH 13 0
BBX 13 18 0 -5
BITMAP
F078
7070
78F0
78F0
38E0
38E0
3DE0
1DC0
1DC0
1DC0
0F80
0F80
0F80
0700
0F00
7F00
7E00
7C00
ENDCHAR
STARTCHAR 007A
ENCODING 122
SWIDTH 461 0
DWIDTH 12 0
BBX 10 13 1 0
BITMAP
FFC0
FFC0
FFC0
07C0
0780
0F00
1E00
3C00
7800
F000
FFC0
FFC0
FFC0
ENDCHAR
STARTCHAR 007B
ENCODING 123
SWIDTH 346 0
DWIDTH 9 0
BBX 8 24 0 -4
BITMAP
1F
1F
1F
1C
1C
1C
1C
1C
1C
3C
F8
C0
F8
3C
1C
1C
1C
1C
1C
1C
1C
1F
1F
1F
ENDCHAR
STARTCHAR 007C
ENCODING 124
SWIDTH 384 0
DWIDTH 10 0
BBX 3 24 3 -4
BITMAP
E0
E0
E0
E0
E0
E0
E0
E0
E0
E0
E0
E0
E0
E0
E0
E0
E0
E0
E0
E0
E0
E0
E0
E0
ENDCHAR
STARTCHAR 007D
ENCODING 125
SWIDTH 346 0
DWIDTH 9 0
BBX 7 24 1 -4
BITMAP
F0
F8
F8
38
38
38
38
38
38
3C
1E
06
1E
3C
38
38
38
38
38
38
38
F8
F8
F0
ENDCHAR
STARTCHAR 007E
ENCODING 126
SWIDTH 538 0
DWIDTH 14 0
BBX 12 5 1 6
BITMAP
7800
FE20
7FE0
47F0
01E0
ENDCHAR
STARTCHAR 00A0
ENCODING 160
SWIDTH 230 0
DWIDTH 6 0
BBX 0 0 0 0
BITMAP
ENDCHAR
STARTCHAR 00A1
ENCODING 161
SWIDTH 307 0
DWIDTH 8 0
BBX 4 18 2 -5
BITMAP
E0
F0
F0
F0
00
60
60
60
E0
E0
E0
F0
F0
F0
F0
F0
F0
F0
ENDCHAR
STARTCHAR 00A2
ENCODING 162
SWIDTH 500 0
DWIDTH 13 0
BBX 11 19 1 -3
BITMAP
0600
0600
0600
1F80
7FC0
7FE0
F6E0
E680
E600
E600
E600
E6C0
F6E0
7FE0
7FC0
1F80
0600
0600
0600
ENDCHAR
STARTCHAR 00A3
ENCODING 163
SWIDTH 500 0
DWIDTH 13 0
BBX 12 18 1 0
BITMAP
0F80
3FE0
7FF0
78E0
7840
7800
7800
7800
FF80
FF80
FF80
3C00
3C00
3800
7000
7FF0
7FF0
7FF0
ENDCHAR
STARTCHAR 00A4
ENCODING 164
SWIDTH 576 0
DWIDTH 15 0
BBX 13 16 1 1
BITMAP
6030
F078
7FF0
7FF0
7FE0
78F0
F070
F070
F078
F0F0
78F0
7FF0
7FF0
7FF0
F078
6030
ENDCHAR
STARTCHAR 00A5
ENCODING 165
SWIDTH 576 0
DWIDTH 15 0
BBX 15 18 0 0
BITMAP
F81E
783C
3C3C
3C78
1C78
1E70
0EF0
0FE0
3FF8
3FF8
0380
0380
3FF8
3FF8
0380
0380
0380
0380
ENDCHAR
STARTCHAR 00A6
ENCODING 166
SWIDTH 384 0
DWIDTH 10 0
BBX 3 24 3 -4
BITMAP
E0
E0
E0
E0
E0
E0
E0
E0
E0
00
00
00
00
00
00
E0
E0
E0
E0
E0
E0
E0
E0
E0
ENDCHAR
STARTCHAR 00A7
ENCODING 167
SWIDTH 500 0
DWIDTH 13 0
BBX 11 22 1 -4
BITMAP
1F80
3FC0
7FE0
7080
7000
7800
7F00
3FC0
3FE0
61E0
E0E0
E0E0
F8C0
FF80
7F80
1FC0
01C0
01C0
21C0
7FC0
7F80
1F00
ENDCHAR
STARTCHAR 00A8
ENCODING 168
SWIDTH 538 0
DWIDTH 14 0
BBX 8 4 3 16
BITMAP
E7
E7
E7
E7
ENDCHAR
STARTCHAR 00A9
ENCODING 169
SWIDTH 730 0
DWIDTH 19 0
BBX 17 18 1 0
BITMAP
07E000
1FF800
3C1E00
700600
63E300
C7F300
CFF900
CE2180
CE0180
CE0180
CE3180
CFF900
C7F300
63E300
700600
381E00
1FF800
07F000
ENDCHAR
STARTCHAR 00AA
ENCODING 170
SWIDTH 423 0
DWIDTH 11 0
BBX 9 10 1 8
BITMAP
3C00
7E00
C700
4700
0700
7F00
E700
E700
FF80
7380
ENDCHAR
STARTCHAR 00AB
ENCODING 171
SWIDTH 500 0
DWIDTH 13 0
BBX 11 10 1 2
BITMAP
1040
38E0
79E0
F3C0
E380
E380
F380
7BC0
38E0
1840
ENDCHAR
STARTCHAR 00AC
ENCODING 172
SWIDTH 538 0
DWIDTH 14 0
BBX 12 8 1 1
BITMAP
FFF0
FFF0
FFF0
0070
0070
0070
0070
0070
ENDCHAR
STARTCHAR 00AD
ENCODING 173
SWIDTH 346 0
DWIDTH 9 0
BBX 7 4 1 6
BITMAP
FE
FE
FE
FE
ENDCHAR
STARTCHAR 00AE
ENCODING 174
SWIDTH 423 0
DWIDTH 11 0
BBX 9 9 1 9
BITMAP
3E00
4100
BC80
B680
BC80
B480
B680
4100
3E00
ENDCHAR
STARTCHAR 00AF
ENCODING 175
SWIDTH 538 0
DWIDTH 14 0
BBX 8 3 3 16
BITMAP
FF
FF
FF
ENDCHAR
STARTCHAR 00B0
ENCODING 176
SWIDTH 423 0
DWIDTH 11 0
BBX 9 10 1 8
BITMAP
3E00
7F00
FF80
E380
E380
C380
E380
FF80
7F00
3E00
ENDCHAR
STARTCHAR 00B1
ENCODING 177
SWIDTH 538 0
DWIDTH 14 0
BBX 12 16 1 0
BITMAP
0F00
0F00
0F00
0F00
FFF0
FFF0
FFF0
0F00
0F00
0F00
0000
0000
0000
FFF0
FFF0
FFF0
ENDCHAR
STARTCHAR 00B2
ENCODING 178
SWIDTH 307 0
DWIDTH 8 0
BBX 8 9 0 9
BITMAP
3C
7E
E6
06
0E
3C
70
7F
7F
ENDCHAR
STARTCHAR 00B3
ENCODING 179
SWIDTH 307 0
DWIDTH 8 0
BBX 7 9 0 9
BITMAP
3C
7E
E6
1C
1E
06
66
FE
3C
ENDCHAR
STARTCHAR 00B4
ENCODING 180
SWIDTH 538 0
DWIDTH 14 0
BBX 6 6 5 15
BITMAP
30
3C
78
70
F0
60
ENDCHAR
STARTCHAR 00B5
ENCODING 181
SWIDTH 538 0
DWIDTH 14 0
BBX 11 18 1 -5
BITMAP
F0E0
F0E0
F0E0
F0E0
F0E0
F0E0
F0E0
F0E0
F0E0
F9E0
FEE0
FEE0
EEE0
E000
F000
F000
F000
F000
ENDCHAR
STARTCHAR 00B6
ENCODING 182
SWIDTH 615 0
DWIDTH 16 0
BBX 14 22 1 -4
BITMAP
3FFC
7FFC
FFFC
FE70
FE70
FE70
FE70
FE70
FE70
7E70
3E70
0670
0670
0670
0670
0670
0670
0670
0670
0670
0670
0670
ENDCHAR
STARTCHAR 00B7
ENCODING 183
SWIDTH 307 0
DWIDTH 8 0
BBX 4 4 2 6
BITMAP
70
F0
F0
70
ENDCHAR
STARTCHAR 00B8
ENCODING 184
SWIDTH 538 0
DWIDTH 14 0
BBX 7 7 4 -6
BITMAP
30
30
3C
0C
4E
7C
F8
ENDCHAR
STARTCHAR 00B9
ENCODING 185
SWIDTH 307 0
DWIDTH 8 0
BBX 7 9 1 9
BITMAP
78
F8
F8
B8
38
38
38
FE
FE
ENDCHAR
STARTCHAR 00BA
ENCODING 186
SWIDTH 384 0
DWIDTH 10 0
BBX 8 10 1 8
BITMAP
3C
7E
E7
E3
C3
C3
C3
E7
7F
3C
ENDCHAR
STARTCHAR 00BB
ENCODING 187
SWIDTH 500 0
DWIDTH 13 0
BBX 11 10 1 2
BITMAP
4100
6380
F3C0
79E0
3CE0
1CE0
3DE0
79C0
F380
4100
ENDCHAR
STARTCHAR 00BC
ENCODING 188
SWIDTH 730 0
DWIDTH 19 0
BBX 18 18 1 0
BITMAP
780380
F80700
F80E00
B80C00
381C00
383800
383000
FE4000
FE0000
000780
000780
038F80
071B80
0E1B80
0C3FC0
1C3FC0
380380
700380
ENDCHAR
STARTCHAR 00BD
ENCODING 189
SWIDTH 769 0
DWIDTH 20 0
BBX 18 18 1 0
BITMAP
780380
F80700
F80E00
B80C00
381C00
383800
383000
FE4000
FE0000
000F80
001FC0
0399C0
0701C0
0E0380
0C0700
1C0E00
381FC0
701FC0
ENDCHAR
STARTCHAR 00BE
ENCODING 190
SWIDTH 730 0
DWIDTH 19 0
BBX 18 18 0 0
BITMAP
3C0380
7E0300
E60700
1C0E00
1E0C00
061C00
663800
FE0000
3C0000
000380
000780
018780
030D80
071980
061FC0
0C1FC0
1C0180
380180
ENDCHAR
STARTCHAR 00BF
ENCODING 191
SWIDTH 461 0
DWIDTH 12 0
BBX 10 18 1 -5
BITMAP
0E00
1E00
1F00
0E00
0000
0000
0E00
0E00
3E00
7E00
F800
F000
E000
E180
F1C0
FFC0
7F80
3F00
ENDCHAR
STARTCHAR 00C0
ENCODING 192
SWIDTH 615 0
DWIDTH 16 0
BBX 15 25 1 0
BITMAP
0600
1E00
0F00
0700
0380
0300
0000
07C0
0FC0
0FC0
0FC0
1FE0
1CE0
1CE0
1CF0
3CF0
38F0
3870
7FF8
7FF8
7FF8
703C
F03C
F03C
E01E
ENDCHAR
STARTCHAR 00C1
ENCODING 193
SWIDTH 615 0
DWIDTH 16 0
BBX 15 25 1 0
BITMAP
0180
01E0
03C0
0380
0380
0700
0000
07C0
0FC0
0FC0
0FC0
1FE0
1CE0
1CE0
1CF0
3CF0
38F0
3870
7FF8
7FF8
7FF8
703C
F03C
F03C
E01E
ENDCHAR
STARTCHAR 00C2
ENCODING 194
SWIDTH 615 0
DWIDTH 16 0
BBX 15 25 1 0
BITMAP
0780
0FC0
0FC0
1EE0
3C70
1820
0000
07C0
0FC0
0FC0
0FC0
1FE0
1CE0
1CE0
1CF0
3CF0
38F0
3870
7FF8
7FF8
7FF8
703C
F03C
F03C
E01E
ENDCHAR
STARTCHAR 00C3
ENCODING 195
SWIDTH 615 0
DWIDTH 16 0
BBX 15 24 1 0
BITMAP
0E20
1FE0
1FF0
11C0
0000
0000
07C0
0FC0
0FC0
0FC0
1FE0
1CE0
1CE0
1CF0
3CF0
38F0
3870
7FF8
7FF8
7FF8
703C
F03C
F03C
E01E
ENDCHAR
STARTCHAR 00C4
ENCODING 196
SWIDTH 615 0
DWIDTH 16 0
BBX 15 24 1 0
BITMAP
1CE0
1CE0
1CE0
1CE0
0000
0000
07C0
0FC0
0FC0
0FC0
1FE0
1CE0
1CE0
1CF0
3CF0
38F0
3870
7FF8
7FF8
7FF8
703C
F03C
F03C
E01E
ENDCHAR
STARTCHAR 00C5
ENCODING 197
SWIDTH 615 0
DWIDTH 16 0
BBX 15 26 1 0
BITMAP
0780
0FC0
1CE0
1CE0
1CE0
0FC0
0780
0000
07C0
0FC0
0FC0
0FC0
1FE0
1CE0
1CE0
1CF0
3CF0
38F0
3870
7FF8
7FF8
7FF8
703C
F03C
F03C
E01E
ENDCHAR
STARTCHAR 00C6
ENCODING 198
SWIDTH 884 0
DWIDTH 23 0
BBX 21 18 0 0
BITMAP
00FFF8
01FFF8
01FFF8
03FC00
03BC00
07BC00
07BC00
073FF0
0F3FF0
0E3FF0
1E3C00
1FFC00
3FFC00
3FFC00
783C00
783FF8
703FF8
F03FF8
ENDCHAR
STARTCHAR 00C7
ENCODING 199
SWIDTH 576 0
DWIDTH 15 0
BBX 14 24 1 -6
BITMAP
0FC0
1FF0
3FF8
7C78
783C
7020
F000
F000
F000
F000
F000
F000
F020
7838
787C
3FF8
1FF0
0FE0
0200
02C0
01C0
08C0
0FC0
0780
ENDCHAR
STARTCHAR 00C8
ENCODING 200
SWIDTH 538 0
DWIDTH 14 0
BBX 11 25 2 0
BITMAP
0800
3800
3C00
1C00
0E00
0400
0000
FFE0
FFE0
FFE0
E000
E000
E000
E000
FFC0
FFC0
FFC0
E000
E000
E000
E000
E000
FFE0
FFE0
FFE0
ENDCHAR
STARTCHAR 00C9
ENCODING 201
SWIDTH 538 0
DWIDTH 14 0
BBX 11 25 2 0
BITMAP
0200
0780
0700
0F00
0E00
0400
0000
FFE0
FFE0
FFE0
E000
E000
E000
E000
FFC0
FFC0
FFC0
E000
E000
E000
E000
E000
FFE0
FFE0
FFE0
ENDCHAR
STARTCHAR 00CA
ENCODING 202
SWIDTH 538 0
DWIDTH 14 0
BBX 11 25 2 0
BITMAP
0E00
1F00
3F80
7B80
71C0
2080
0000
FFE0
FFE0
FFE0
E000
E000
E000
E000
FFC0
FFC0
FFC0
E000
E000
E000
E000
E000
FFE0
FFE0
FFE0
ENDCHAR
STARTCHAR 00CB
ENCODING 203
SWIDTH 538 0
DWIDTH 14 0
BBX 11 24 2 0
BITMAP
7380
7BC0
7BC0
7380
0000
0000
FFE0
FFE0
FFE0
E000
E000
E000
E000
FFC0
FFC0
FFC0
E000
E000
E000
E000
E000
FFE0
FFE0
FFE0
ENDCHAR
STARTCHAR 00CC
ENCODING 204
SWIDTH 384 0
DWIDTH 10 0
BBX 8 25 1 0
BITMAP
10
F0
78
38
1C
18
00
FF
FF
FF
3C
3C
3C
3C
3C
3C
3C
3C
3C
3C
3C
3C
FF
FF
FF
ENDCHAR
STARTCHAR 00CD
ENCODING 205
SWIDTH 384 0
DWIDTH 10 0
BBX 8 25 1 0
BITMAP
04
0F
0E
1C
1C
38
00
FF
FF
FF
3C
3C
3C
3C
3C
3C
3C
3C
3C
3C
3C
3C
FF
FF
FF
ENDCHAR
STARTCHAR 00CE
ENCODING 206
SWIDTH 384 0
DWIDTH 10 0
BBX 10 25 0 0
BITMAP
1E00
1F00
3F80
7B80
F1C0
2080
0000
7F80
7F80
7F80
1E00
1E00
1E00
1E00
1E00
1E00
1E00
1E00
1E00
1E00
1E00
1E00
7F80
7F80
7F80
ENDCHAR
STARTCHAR 00CF
ENCODING 207
SWIDTH 384 0
DWIDTH 10 0
BBX 9 24 1 0
BITMAP
E700
F780
F780
E700
0000
0000
FF00
FF00
FF00
3C00
3C00
3C00
3C00
3C00
3C00
3C00
3C00
3C00
3C00
3C00
3C00
FF00
FF00
FF00
ENDCHAR
STARTCHAR 00D0
ENCODING 208
SWIDTH 653 0
DWIDTH 17 0
BBX 16 18 0 0
BITMAP
3FE0
3FF8
3FFC
3C3C
3C1E
3C1E
3C0E
FF0E
FF0E
FF0F
3C0E
3C0E
3C1E
3C1E
3C3C
3FFC
3FF8
3FE0
ENDCHAR
STARTCHAR 00D1
ENCODING 209
SWIDTH 653 0
DWIDTH 17 0
BBX 13 24 2 0
BITMAP
1E40
3FE0
3FE0
13C0
0000
0000
F038
F838
F838
FC38
FC38
FC38
EE38
EE38
E738
E738
E3B8
E3B8
E1F8
E1F8
E0F8
E0F8
E0F8
E078
ENDCHAR
STARTCHAR 00D2
ENCODING 210
SWIDTH 653 0
DWIDTH 17 0
BBX 15 25 1 0
BITMAP
0200
0E00
0F00
0700
0380
0100
0000
0FC0
1FF0
3FF8
7878
783C
F03C
F01C
F01C
F01E
F01E
F01C
F01C
F03C
783C
787C
3FF8
1FF0
0FC0
ENDCHAR
STARTCHAR 00D3
ENCODING 211
SWIDTH 653 0
DWIDTH 17 0
BBX 15 25 1 0
BITMAP
0080
01E0
01C0
03C0
0380
0100
0000
0FC0
1FF0
3FF8
7878
783C
F03C
F01C
F01C
F01E
F01E
F01C
F01C
F03C
783C
787C
3FF8
1FF0
0FC0
ENDCHAR
STARTCHAR 00D4
ENCODING 212
SWIDTH 653 0
DWIDTH 17 0
BBX 15 25 1 0
BITMAP
0380
07C0
0FE0
1EE0
1C70
0820
0000
0FC0
1FF0
3FF8
7878
783C
F03C
F01C
F01C
F01E
F01E
F01C
F01C
F03C
783C
787C
3FF8
1FF0
0FC0
ENDCHAR
STARTCHAR 00D5
ENCODING 213
SWIDTH 653 0
DWIDTH 17 0
BBX 15 24 1 0
BITMAP
0E20
1FF0
1FF0
09E0
0000
0000
0FC0
1FF0
3FF8
7878
783C
F03C
F01C
F01C
F01E
F01E
F01C
F01C
F03C
783C
787C
3FF8
1FF0
0FC0
ENDCHAR
STARTCHAR 00D6
ENCODING 214
SWIDTH 653 0
DWIDTH 17 0
BBX 15 24 1 0
BITMAP
1CE0
1EF0
1EF0
1CE0
0000
0000
0FC0
1FF0
3FF8
7878
783C
F03C
F01C
F01C
F01E
F01E
F01C
F01C
F03C
783C
787C
3FF8
1FF0
0FC0
ENDCHAR
STARTCHAR 00D7
ENCODING 215
SWIDTH 538 0
DWIDTH 14 0
BBX 11 11 2 3
BITMAP
4080
E1C0
F3E0
7F80
3F00
1E00
3F00
7F80
F3C0
E1E0
4080
ENDCHAR
STARTCHAR 00D8
ENCODING 216
SWIDTH 653 0
DWIDTH 17 0
BBX 15 20 1 -1
BITMAP
0008
0FDC
1FFC
3FF8
787C
707C
F0FC
F0DC
F19C
F39E
F31E
F71C
F61C
FC1C
7C3C
787C
3FF8
7FF0
7FC0
A000
ENDCHAR
STARTCHAR 00D9
ENCODING 217
SWIDTH 615 0
DWIDTH 16 0
BBX 13 25 2 0
BITMAP
0C00
3C00
1E00
0E00
0700
0600
0000
E078
E078
E078
E078
E078
E078
E078
E078
E078
E078
E078
E078
E078
F078
F0F0
FFF0
7FE0
1FC0
ENDCHAR
STARTCHAR 00DA
ENCODING 218
SWIDTH 615 0
DWIDTH 16 0
BBX 13 25 2 0
BITMAP
0100
03C0
0380
0700
0700
0E00
0000
E078
E078
E078
E078
E078
E078
E078
E078
E078
E078
E078
E078
E078
F078
F0F0
FFF0
7FE0
1FC0
ENDCHAR
STARTCHAR 00DB
ENCODING 219
SWIDTH 615 0
DWIDTH 16 0
BBX 13 25 2 0
BITMAP
0F00
0F80
1FC0
3DC0
78E0
1040
0000
E078
E078
E078
E078
E078
E078
E078
E078
E078
E078
E078
E078
E078
F078
F0F0
FFF0
7FE0
1FC0
ENDCHAR
STARTCHAR 00DC
ENCODING 220
SWIDTH 615 0
DWIDTH 16 0
BBX 13 24 2 0
BITMAP
39C0
3DE0
3DE0
39C0
0000
0000
E078
E078
E078
E078
E078
E078
E078
E078
E078
E078
E078
E078
E078
F078
F0F0
FFF0
7FE0
1FC0
ENDCHAR
STARTCHAR 00DD
ENCODING 221
SWIDTH 576 0
DWIDTH 15 0
BBX 15 25 0 0
BITMAP
0080
01E0
01E0
01C0
0380
0100
0000
F01E
783C
783C
3C78
3C78
1E70
1EF0
0FE0
0FE0
07C0
07C0
0380
0380
0380
0380
0380
0380
0380
ENDCHAR
STARTCHAR 00DE
ENCODING 222
SWIDTH 576 0
DWIDTH 15 0
BBX 13 18 2 0
BITMAP
E000
E000
E000
FFC0
FFE0
FFF0
E0F0
E078
E078
E078
E0F0
FFF0
FFE0
FFC0
E000
E000
E000
E000
ENDCHAR
STARTCHAR 00DF
ENCODING 223
SWIDTH 615 0
DWIDTH 16 0
BBX 16 19 0 0
BITMAP
07E0
0FF8
1FF8
3E3C
3C1C
3C1C
FC7C
FCFC
FCE0
3CE0
3CF0
3CFC
3C7E
3C1F
3C0F
3C8F
3DFE
3DFE
3C7C
ENDCHAR
STARTCHAR 00E0
ENCODING 224
SWIDTH 500 0
DWIDTH 13 0
BBX 12 21 1 0
BITMAP
1800
3800
3C00
1C00
0E00
0400
0000
0000
1F00
7FC0
FFC0
21C0
01E0
3FE0
7FE0
F1E0
E1E0
F3E0
FFF0
FFF0
78F0
ENDCHAR
STARTCHAR 00E1
ENCODING 225
SWIDTH 500 0
DWIDTH 13 0
BBX 12 21 1 0
BITMAP
0200
0780
0700
0F00
0E00
0400
0000
0000
1F00
7FC0
FFC0
21C0
01E0
3FE0
7FE0
F1E0
E1E0
F3E0
FFF0
FFF0
78F0
ENDCHAR
STARTCHAR 00E2
ENCODING 226
SWIDTH 500 0
DWIDTH 13 0
BBX 12 21 1 0
BITMAP
0E00
1F00
3F80
7B80
71C0
2080
0000
0000
1F00
7FC0
FFC0
21C0
01E0
3FE0
7FE0
F1E0
E1E0
F3E0
FFF0
FFF0
78F0
ENDCHAR
STARTCHAR 00E3
ENCODING 227
SWIDTH 500 0
DWIDTH 13 0
BBX 12 20 1 0
BITMAP
3880
7FC0
7FC0
2780
0000
0000
0000
1F00
7FC0
FFC0
21C0
01E0
3FE0
7FE0
F1E0
E1E0
F3E0
FFF0
FFF0
78F0
ENDCHAR
STARTCHAR 00E4
ENCODING 228
SWIDTH 500 0
DWIDTH 13 0
BBX 12 20 1 0
BITMAP
7380
7BC0
7BC0
7380
0000
0000
0000
1F00
7FC0
FFC0
21C0
01E0
3FE0
7FE0
F1E0
E1E0
F3E0
FFF0
FFF0
78F0
ENDCHAR
STARTCHAR 00E5
ENCODING 229
SWIDTH 500 0
DWIDTH 13 0
BBX 12 22 1 0
BITMAP
1E00
3F80
3180
3180
3180
3F80
1E00
0000
0000
1F00
7FC0
FFC0
21C0
01E0
3FE0
7FE0
F1E0
E1E0
F3E0
FFF0
FFF0
78F0
ENDCHAR
STARTCHAR 00E6
ENCODING 230
SWIDTH 769 0
DWIDTH 20 0
BBX 19 13 1 0
BITMAP
3E1F00
7F3F80
FFFFC0
21E3C0
01E1C0
3FFFE0
7FFFE0
F1E000
E1E100
F1F180
FF7FC0
FF7F80
7C1F00
ENDCHAR
STARTCHAR 00E7
ENCODING 231
SWIDTH 461 0
DWIDTH 12 0
BBX 11 19 1 -6
BITMAP
1F00
7F80
7FC0
F1C0
F1A0
F000
F000
F000
F080
F1E0
7FC0
7F80
1F00
0C00
0F00
0300
1380
1F00
3E00
ENDCHAR
STARTCHAR 00E8
ENCODING 232
SWIDTH 500 0
DWIDTH 13 0
BBX 11 21 1 0
BITMAP
0800
3C00
1C00
1E00
0E00
0400
0000
0000
1F00
7FC0
7FE0
F1E0
F0E0
FFE0
FFE0
F000
F080
F0C0
7FE0
3FC0
1F80
ENDCHAR
STARTCHAR 00E9
ENCODING 233
SWIDTH 500 0
DWIDTH 13 0
BBX 11 21 1 0
BITMAP
0300
0780
0780
0700
0E00
0400
0000
0000
1F00
7FC0
7FE0
F1E0
F0E0
FFE0
FFE0
F000
F080
F0C0
7FE0
3FC0
1F80
ENDCHAR
STARTCHAR 00EA
ENCODING 234
SWIDTH 500 0
DWIDTH 13 0
BBX 11 21 1 0
BITMAP
0E00
1F00
3F80
3BC0
71C0
2080
0000
0000
1F00
7FC0
7FE0
F1E0
F0E0
FFE0
FFE0
F000
F080
F0C0
7FE0
3FC0
1F80
ENDCHAR
STARTCHAR 00EB
ENCODING 235
SWIDTH 500 0
DWIDTH 13 0
BBX 11 20 1 0
BITMAP
39C0
7BC0
7BC0
39C0
0000
0000
0000
1F00
7FC0
7FE0
F1E0
F0E0
FFE0
FFE0
F000
F080
F0C0
7FE0
3FC0
1F80
ENDCHAR
STARTCHAR 00EC
ENCODING 236
SWIDTH 269 0
DWIDTH 7 0
BBX 5 21 0 0
BITMAP
60
F0
70
70
38
10
00
00
38
38
38
38
38
38
38
38
38
38
38
38
38
ENDCHAR
STARTCHAR 00ED
ENCODING 237
SWIDTH 269 0
DWIDTH 7 0
BBX 5 21 2 0
BITMAP
20
78
70
F0
E0
40
00
00
E0
E0
E0
E0
E0
E0
E0
E0
E0
E0
E0
E0
E0
ENDCHAR
STARTCHAR 00EE
ENCODING 238
SWIDTH 269 0
DWIDTH 7 0
BBX 9 21 -1 0
BITMAP
1C00
3E00
7E00
7700
E380
4100
0000
0000
1C00
1C00
1C00
1C00
1C00
1C00
1C00
1C00
1C00
1C00
1C00
1C00
1C00
ENDCHAR
STARTCHAR 00EF
ENCODING 239
SWIDTH 269 0
DWIDTH 7 0
BBX 9 20 -1 0
BITMAP
7700
F780
F780
7700
0000
0000
0000
1C00
1C00
1C00
1C00
1C00
1C00
1C00
1C00
1C00
1C00
1C00
1C00
1C00
ENDCHAR
STARTCHAR 00F0
ENCODING 240
SWIDTH 538 0
DWIDTH 14 0
BBX 12 19 1 0
BITMAP
7EC0
1FC0
0780
1FC0
13C0
01E0
3CE0
7EE0
FFF0
F1F0
F0F0
F0F0
F0F0
F0F0
F0F0
F1F0
7FE0
3FC0
1F80
ENDCHAR
STARTCHAR 00F1
ENCODING 241
SWIDTH 538 0
DWIDTH 14 0
BBX 11 20 2 0
BITMAP
3880
7F80
7FC0
4700
0000
0000
0000
E780
EFC0
EFC0
F3E0
E1E0
E1E0
E1E0
E1E0
E1E0
E1E0
E1E0
E1E0
E1E0
ENDCHAR
STARTCHAR 00F2
ENCODING 242
SWIDTH 500 0
DWIDTH 13 0
BBX 11 21 1 0
BITMAP
0800
3C00
1C00
1E00
0E00
0400
0000
0000
1F00
7FC0
7FE0
F1E0
F0E0
F0E0
F0E0
F0E0
F0E0
F1E0
7FE0
7FC0
1F00
ENDCHAR
STARTCHAR 00F3
ENCODING 243
SWIDTH 500 0
DWIDTH 13 0
BBX 11 21 1 0
BITMAP
0300
0780
0780
0700
0E00
0400
0000
0000
1F00
7FC0
7FE0
F1E0
F0E0
F0E0
F0E0
F0E0
F0E0
F1E0
7FE0
7FC0
1F00
ENDCHAR
STARTCHAR 00F4
ENCODING 244
SWIDTH 500 0
DWIDTH 13 0
BBX 11 21 1 0
BITMAP
0E00
1F00
3F80
3BC0
71C0
2080
0000
0000
1F00
7FC0
7FE0
F1E0
F0E0
F0E0
F0E0
F0E0
F0E0
F1E0
7FE0
7FC0
1F00
ENDCHAR
STARTCHAR 00F5
ENCODING 245
SWIDTH 500 0
DWIDTH 13 0
BBX 11 20 1 0
BITMAP
3C80
7FC0
7FC0
2780
0000
0000
0000
1F00
7FC0
7FE0
F1E0
F0E0
F0E0
F0E0
F0E0
F0E0
F1E0
7FE0
7FC0
1F00
ENDCHAR
STARTCHAR 00F6
ENCODING 246
SWIDTH 500 0
DWIDTH 13 0
BBX 11 20 1 0
BITMAP
39C0
7BC0
7BC0
39C0
0000
0000
0000
1F00
7FC0
7FE0
F1E0
F0E0
F0E0
F0E0
F0E0
F0E0
F1E0
7FE0
7FC0
1F00
ENDCHAR
STARTCHAR 00F7
ENCODING 247
SWIDTH 538 0
DWIDTH 14 0
BBX 12 13 1 1
BITMAP
0F00
0F00
0F00
0F00
0000
FFF0
FFF0
FFF0
0000
0F00
0F00
0F00
0F00
ENDCHAR
STARTCHAR 00F8
ENCODING 248
SWIDTH 500 0
DWIDTH 13 0
BBX 13 15 0 -1
BITMAP
0010
0FB8
3FF0
3FE0
78F0
79F0
73F0
7770
7670
7C70
78F0
3FF0
7FE0
EF80
6000
ENDCHAR
STARTCHAR 00F9
ENCODING 249
SWIDTH 538 0
DWIDTH 14 0
BBX 11 21 1 0
BITMAP
0C00
3C00
1E00
0E00
0E00
0700
0000
0000
F0E0
F0E0
F0E0
F0E0
F0E0
F0E0
F0E0
F0E0
F0E0
F9E0
7EE0
7EE0
3CE0
ENDCHAR
STARTCHAR 00FA
ENCODING 250
SWIDTH 538 0
DWIDTH 14 0
BBX 11 21 1 0
BITMAP
0300
03C0
0780
0700
0E00
0600
0000
0000
F0E0
F0E0
F0E0
F0E0
F0E0
F0E0
F0E0
F0E0
F0E0
F9E0
7EE0
7EE0
3CE0
ENDCHAR
STARTCHAR 00FB
ENCODING 251
SWIDTH 538 0
DWIDTH 14 0
BBX 11 21 1 0
BITMAP
0F00
1F80
1F80
3BC0
71E0
20C0
0000
0000
F0E0
F0E0
F0E0
F0E0
F0E0
F0E0
F0E0
F0E0
F0E0
F9E0
7EE0
7EE0
3CE0
ENDCHAR
STARTCHAR 00FC
ENCODING 252
SWIDTH 538 0
DWIDTH 14 0
BBX 11 20 1 0
BITMAP
39C0
39C0
39C0
39C0
0000
0000
0000
F0E0
F0E0
F0E0
F0E0
F0E0
F0E0
F0E0
F0E0
F0E0
F9E0
7EE0
7EE0
3CE0
ENDCHAR
STARTCHAR 00FD
ENCODING 253
SWIDTH 500 0
DWIDTH 13 0
BBX 13 26 0 -5
BITMAP
0180
03C0
0380
0780
0700
0200
0000
0000
F078
7070
78F0
78F0
38E0
38E0
3DE0
1DC0
1DC0
1DC0
0F80
0F80
0F80
0700
0F00
7F00
7E00
7C00
ENDCHAR
STARTCHAR 00FE
ENCODING 254
SWIDTH 538 0
DWIDTH 14 0
BBX 11 24 2 -5
BITMAP
E000
E000
E000
E000
E000
E000
E780
EFC0
EFE0
F1E0
E1E0
E0E0
E0E0
E0E0
E1E0
F1E0
EFE0
EFC0
E780
E000
E000
E000
E000
E000
ENDCHAR
STARTCHAR 00FF
ENCODING 255
SWIDTH 500 0
DWIDTH 13 0
BBX 13 25 0 -5
BITMAP
3DE0
3DE0
3DE0
3DE0
0000
0000
0000
F078
7070
78F0
78F0
38E0
38E0
3DE0
1DC0
1DC0
1DC0
0F80
0F80
0F80
0700
0F00
7F00
7E00
7C00
ENDCHAR
STARTCHAR 0100
ENCODING 256
SWIDTH 615 0
DWIDTH 16 0
BBX 15 23 1 0
BITMAP
1FE0
1FE0
1FE0
0000
0000
07C0
0FC0
0FC0
0FC0
1FE0
1CE0
1CE0
1CF0
3CF0
38F0
3870
7FF8
7FF8
7FF8
703C
F03C
F03C
E01E
ENDCHAR
STARTCHAR 0101
ENCODING 257
SWIDTH 500 0
DWIDTH 13 0
BBX 12 19 1 0
BITMAP
3F80
3F80
3F80
0000
0000
0000
1F00
7FC0
FFC0
21C0
01E0
3FE0
7FE0
F1E0
E1E0
F3E0
FFF0
FFF0
78F0
ENDCHAR
STARTCHAR 0102
ENCODING 258
SWIDTH 615 0
DWIDTH 16 0
BBX 15 25 1 0
BITMAP
0860
3870
1CE0
1FE0
0FC0
0780
0000
07C0
0FC0
0FC0
0FC0
1FE0
1CE0
1CE0
1CF0
3CF0
38F0
3870
7FF8
7FF8
7FF8
703C
F03C
F03C
E01E
ENDCHAR
STARTCHAR 0103
ENCODING 259
SWIDTH 500 0
DWIDTH 13 0
BBX 12 21 1 0
BITMAP
2080
61C0
71C0
3F80
3F00
1E00
0000
0000
1F00
7FC0
FFC0
21C0
01E0
3FE0
7FE0
F1E0
E1E0
F3E0
FFF0
FFF0
78F0
ENDCHAR
STARTCHAR 0104
ENCODING 260
SWIDTH 615 0
DWIDTH 16 0
BBX 15 23 1 -5
BITMAP
07C0
0FC0
0FC0
0FC0
1FE0
1CE0
1CE0
1CF0
3CF0
38F0
3870
7FF8
7FF8
7FF8
703C
F03C
F03C
E01C
000E
0030
0074
007E
003C
ENDCHAR
STARTCHAR 0105
ENCODING 261
SWIDTH 500 0
DWIDTH 13 0
BBX 12 18 1 -5
BITMAP
1F00
7FC0
FFC0
21C0
01E0
3FE0
7FE0
F1E0
E1E0
F3E0
FFF0
FFF0
78F0
0060
0180
0190
01F0
01E0
ENDCHAR
STARTCHAR 0106
ENCODING 262
SWIDTH 576 0
DWIDTH 15 0
BBX 14 25 1 0
BITMAP
0080
01E0
01C0
03C0
0380
0100
0000
0FC0
1FF0
3FF8
7C78
783C
F020
F000
F000
F000
F000
F000
F000
F020
7838
787C
3FF8
1FF0
0FC0
ENDCHAR
STARTCHAR 0107
ENCODING 263
SWIDTH 461 0
DWIDTH 12 0
BBX 11 21 1 0
BITMAP
0200
0780
0700
0F00
0E00
0400
0000
0000
1F00
7F80
7FC0
F1C0
F1A0
F000
F000
F000
F080
F1E0
7FC0
7F80
1F00
ENDCHAR
STARTCHAR 0108
ENCODING 264
SWIDTH 576 0
DWIDTH 15 0
BBX 14 25 1 0
BITMAP
0380
07C0
0FE0
1EE0
1C70
0820
0000
0FC0
1FF0
3FF8
7C78
783C
F020
F000
F000
F000
F000
F000
F000
F020
7838
787C
3FF8
1FF0
0FC0
ENDCHAR
STARTCHAR 0109
ENCODING 265
SWIDTH 461 0
DWIDTH 12 0
BBX 11 21 1 0
BITMAP
0E00
1F00
3F80
7B80
71C0
2080
0000
0000
1F00
7F80
7FC0
F1C0
F1A0
F000
F000
F000
F080
F1E0
7FC0
7F80
1F00
ENDCHAR
STARTCHAR 010A
ENCODING 266
SWIDTH 576 0
DWIDTH 15 0
BBX 14 24 1 0
BITMAP
0380
0780
0780
0380
0000
0000
0FC0
1FF0
3FF8
7C78
783C
F020
F000
F000
F000
F000
F000
F000
F020
7838
787C
3FF8
1FF0
0FC0
ENDCHAR
STARTCHAR 010B
ENCODING 267
SWIDTH 461 0
DWIDTH 12 0
BBX 11 20 1 0
BITMAP
0E00
1E00
1E00
0E00
0000
0000
0000
1F00
7F80
7FC0
F1C0
F1A0
F000
F000
F000
F080
F1E0
7FC0
7F80
1F00
ENDCHAR
STARTCHAR 010C
ENCODING 268
SWIDTH 576 0
DWIDTH 15 0
BBX 14 25 1 0
BITMAP
0820
1C70
1EE0
0FE0
07C0
0380
0000
0FC0
1FF0
3FF8
7C78
783C
F020
F000
F000
F000
F000
F000
F000
F020
7838
787C
3FF8
1FF0
0FC0
ENDCHAR
STARTCHAR 010D
ENCODING 269
SWIDTH 461 0
DWIDTH 12 0
BBX 11 21 1 0
BITMAP
2080
71C0
7B80
3F80
1F00
0E00
0000
0000
1F00
7F80
7FC0
F1C0
F1A0
F000
F000
F000
F080
F1E0
7FC0
7F80
1F00
ENDCHAR
STARTCHAR 010E
ENCODING 270
SWIDTH 615 0
DWIDTH 16 0
BBX 13 25 2 0
BITMAP
2080
71E0
3BC0
1F80
1F00
0F00
0000
FF80
FFE0
FFF0
E0F0
E078
E078
E078
E078
E078
E078
E078
E078
E078
E078
E0F0
FFF0
FFE0
FF80
ENDCHAR
STARTCHAR 010F
ENCODING 271
SWIDTH 615 0
DWIDTH 16 0
BBX 17 19 1 0
BITMAP
00F780
00F700
00F700
00F700
00F600
00F600
3CF000
7EF000
7FF000
F0F000
F0F000
F0F000
F0F000
F0F000
F0F000
F0F000
7FF000
7EF000
3CF000
ENDCHAR
STARTCHAR 0110
ENCODING 272
SWIDTH 653 0
DWIDTH 17 0
BBX 16 18 0 0
BITMAP
3FE0
3FF8
3FFC
3C3C
3C1E
3C1E
3C0E
FF0E
FF0E
FF0F
3C0E
3C0E
3C1E
3C1E
3C3C
3FFC
3FF8
3FE0
ENDCHAR
STARTCHAR 0111
ENCODING 273
SWIDTH 538 0
DWIDTH 14 0
BBX 13 19 1 0
BITMAP
00F0
00F0
07F8
07F8
00F0
00F0
3CF0
7EF0
7FF0
F0F0
F0F0
F0F0
F0F0
F0F0
F0F0
F0F0
7FF0
7EF0
3CF0
ENDCHAR
STARTCHAR 0112
ENCODING 274
SWIDTH 538 0
DWIDTH 14 0
BBX 11 23 2 0
BITMAP
3F80
3F80
3F80
0000
0000
FFE0
FFE0
FFE0
E000
E000
E000
E000
FFC0
FFC0
FFC0
E000
E000
E000
E000
E000
FFE0
FFE0
FFE0
ENDCHAR
STARTCHAR 0113
ENCODING 275
SWIDTH 500 0
DWIDTH 13 0
BBX 11 19 1 0
BITMAP
3F80
3F80
3F80
0000
0000
0000
1F00
7FC0
7FE0
F1E0
F0E0
FFE0
FFE0
F000
F080
F0C0
7FE0
3FC0
1F80
ENDCHAR
STARTCHAR 0114
ENCODING 276
SWIDTH 538 0
DWIDTH 14 0
BBX 11 25 2 0
BITMAP
2080
61C0
71C0
3F80
3F00
1E00
0000
FFE0
FFE0
FFE0
E000
E000
E000
E000
FFC0
FFC0
FFC0
E000
E000
E000
E000
E000
FFE0
FFE0
FFE0
ENDCHAR
STARTCHAR 0115
ENCODING 277
SWIDTH 500 0
DWIDTH 13 0
BBX 11 21 1 0
BITMAP
2080
70C0
71C0
3F80
1F80
1F00
0000
0000
1F00
7FC0
7FE0
F1E0
F0E0
FFE0
FFE0
F000
F080
F0C0
7FE0
3FC0
1F80
ENDCHAR
STARTCHAR 0116
ENCODING 278
SWIDTH 538 0
DWIDTH 14 0
BBX 11 24 2 0
BITMAP
0E00
1E00
1E00
0E00
0000
0000
FFE0
FFE0
FFE0
E000
E000
E000
E000
FFC0
FFC0
FFC0
E000
E000
E000
E000
E000
FFE0
FFE0
FFE0
ENDCHAR
STARTCHAR 0117
ENCODING 279
SWIDTH 500 0
DWIDTH 13 0
BBX 11 20 1 0
BITMAP
0E00
0F00
0F00
0E00
0000
0000
0000
1F00
7FC0
7FE0
F1E0
F0E0
FFE0
FFE0
F000
F080
F0C0
7FE0
3FC0
1F80
ENDCHAR
STARTCHAR 0118
ENCODING 280
SWIDTH 538 0
DWIDTH 14 0
BBX 12 23 2 -5
BITMAP
FFE0
FFE0
FFE0
E000
E000
E000
E000
FFC0
FFC0
FFC0
E000
E000
E000
E000
E000
FFE0
FFE0
FFE0
00C0
0180
0320
03F0
01E0
ENDCHAR
STARTCHAR 0119
ENCODING 281
SWIDTH 500 0
DWIDTH 13 0
BBX 11 18 1 -5
BITMAP
1F00
7FC0
7FE0
F1E0
F0E0
FFE0
FFE0
F000
F080
F0C0
7FE0
3FC0
1F80
0200
0C00
1D00
1F80
0F00
ENDCHAR
STARTCHAR 011A
ENCODING 282
SWIDTH 538 0
DWIDTH 14 0
BBX 11 25 2 0
BITMAP
2080
71C0
7B80
3F80
1F00
0E00
0000
FFE0
FFE0
FFE0
E000
E000
E000
E000
FFC0
FFC0
FFC0
E000
E000
E000
E000
E000
FFE0
FFE0
FFE0
ENDCHAR
STARTCHAR 011B
ENCODING 283
SWIDTH 500 0
DWIDTH 13 0
BBX 11 21 1 0
BITMAP
2080
71C0
3BC0
3F80
1F00
0E00
0000
0000
1F00
7FC0
7FE0
F1E0
F0E0
FFE0
FFE0
F000
F080
F0C0
7FE0
3FC0
1F80
ENDCHAR
STARTCHAR 011C
ENCODING 284
SWIDTH 653 0
DWIDTH 17 0
BBX 14 25 1 0
BITMAP
0380
07C0
0FE0
1EE0
1C70
0820
0000
0FC0
1FF0
3FF8
7C7C
7838
F020
F000
F000
F0FC
F0FC
F0FC
F01C
F01C
783C
787C
3FFC
1FDC
0F9C
ENDCHAR
STARTCHAR 011D
ENCODING 285
SWIDTH 500 0
DWIDTH 13 0
BBX 13 26 0 -5
BITMAP
0700
0F80
1FC0
1DE0
38E0
1040
0000
0000
1FF8
3FF8
7FF8
78C0
70E0
78F0
7FE0
3FE0
1F80
7000
7FE0
7FF8
1FF8
6038
E078
7FF8
7FF0
3FE0
ENDCHAR
STARTCHAR 011E
ENCODING 286
SWIDTH 653 0
DWIDTH 17 0
BBX 14 25 1 0
BITMAP
0820
1870
1C70
0FE0
0FE0
07C0
0000
0FC0
1FF0
3FF8
7C7C
7838
F020
F000
F000
F0FC
F0FC
F0FC
F01C
F01C
783C
787C
3FFC
1FDC
0F9C
ENDCHAR
STARTCHAR 011F
ENCODING 287
SWIDTH 500 0
DWIDTH 13 0
BBX 13 26 0 -5
BITMAP
1040
3860
18E0
1FC0
0FC0
0780
0000
0000
1FF8
3FF8
7FF8
78C0
70E0
78F0
7FE0
3FE0
1F80
7000
7FE0
7FF8
1FF8
6038
E078
7FF8
7FF0
3FE0
ENDCHAR
STARTCHAR 0120
ENCODING 288
SWIDTH 653 0
DWIDTH 17 0
BBX 14 24 1 0
BITMAP
0380
0780
0780
0380
0000
0000
0FC0
1FF0
3FF8
7C7C
7838
F020
F000
F000
F0FC
F0FC
F0FC
F01C
F01C
783C
787C
3FFC
1FDC
0F9C
ENDCHAR
STARTCHAR 0121
ENCODING 289
SWIDTH 500 0
DWIDTH 13 0
BBX 13 25 0 -5
BITMAP
0700
0780
0780
0700
0000
0000
0000
1FF8
3FF8
7FF8
78C0
70E0
78F0
7FE0
3FE0
1F80
7000
7FE0
7FF8
1FF8
6038
E078
7FF8
7FF0
3FE0
ENDCHAR
STARTCHAR 0122
ENCODING 290
SWIDTH 653 0
DWIDTH 17 0
BBX 14 26 1 -8
BITMAP
0FC0
1FF0
3FF8
7C7C
7838
F020
F000
F000
F0FC
F0FC
F0FC
F01C
F01C
783C
787C
3FFC
1FDC
0F9C
0000
0380
0380
0380
0380
0180
0380
0700
ENDCHAR
STARTCHAR 0123
ENCODING 291
SWIDTH 500 0
DWIDTH 13 0
BBX 13 27 0 -5
BITMAP
0380
0300
0600
0700
0700
0780
0700
0000
0000
1FF8
3FF8
7FF8
78C0
70E0
78F0
7FE0
3FE0
1F80
7000
7FE0
7FF8
1FF8
6038
E078
7FF8
7FF0
3FE0
ENDCHAR
STARTCHAR 0124
ENCODING 292
SWIDTH 653 0
DWIDTH 17 0
BBX 13 25 2 0
BITMAP
0700
0F80
1FC0
3DE0
38E0
1040
0000
E038
E038
E038
E038
E038
E038
E038
FFF8
FFF8
FFF8
E038
E038
E038
E038
E038
E038
E038
E038
ENDCHAR
STARTCHAR 0125
ENCODING 293
SWIDTH 538 0
DWIDTH 14 0
BBX 14 25 -1 0
BITMAP
1C00
3E00
7F00
F700
E380
4100
1C00
1C00
1C00
1C00
1C00
1C00
1CF0
1DF8
1DF8
1E7C
1C3C
1C3C
1C3C
1C3C
1C3C
1C3C
1C3C
1C3C
1C3C
ENDCHAR
STARTCHAR 0126
ENCODING 294
SWIDTH 692 0
DWIDTH 18 0
BBX 17 18 0 0
BITMAP
3C0E00
3C0E00
FFFF80
FFFF80
FFFF80
3C0E00
3C0E00
3FFE00
3FFE00
3FFE00
3C0E00
3C0E00
3C0E00
3C0E00
3C0E00
3C0E00
3C0E00
3C0E00
ENDCHAR
STARTCHAR 0127
ENCODING 295
SWIDTH 538 0
DWIDTH 14 0
BBX 13 19 0 0
BITMAP
3800
3800
FF00
FF00
3800
3800
39E0
3BF0
3BF0
3CF8
3878
3878
3878
3878
3878
3878
3878
3878
3878
ENDCHAR
STARTCHAR 0128
ENCODING 296
SWIDTH 384 0
DWIDTH 10 0
BBX 9 24 1 0
BITMAP
7100
FF00
FF80
8F00
0000
0000
FF00
FF00
FF00
3C00
3C00
3C00
3C00
3C00
3C00
3C00
3C00
3C00
3C00
3C00
3C00
FF00
FF00
FF00
ENDCHAR
STARTCHAR 0129
ENCODING 297
SWIDTH 269 0
DWIDTH 7 0
BBX 7 20 0 0
BITMAP
64
FE
FE
9C
00
00
00
38
38
38
38
38
38
38
38
38
38
38
38
38
ENDCHAR
STARTCHAR 012A
ENCODING 298
SWIDTH 384 0
DWIDTH 10 0
BBX 8 23 1 0
BITMAP
7F
7F
7F
00
00
FF
FF
FF
3C
3C
3C
3C
3C
3C
3C
3C
3C
3C
3C
3C
FF
FF
FF
ENDCHAR
STARTCHAR 012B
ENCODING 299
SWIDTH 269 0
DWIDTH 7 0
BBX 7 19 0 0
BITMAP
FE
FE
FE
00
00
00
38
38
38
38
38
38
38
38
38
38
38
38
38
ENDCHAR
STARTCHAR 012C
ENCODING 300
SWIDTH 384 0
DWIDTH 10 0
BBX 9 25 1 0
BITMAP
4100
C380
E700
FF00
7E00
3C00
0000
FF00
FF00
FF00
3C00
3C00
3C00
3C00
3C00
3C00
3C00
3C00
3C00
3C00
3C00
3C00
FF00
FF00
FF00
ENDCHAR
STARTCHAR 012D
ENCODING 301
SWIDTH 269 0
DWIDTH 7 0
BBX 9 21 -1 0
BITMAP
4100
E380
6300
7F00
7E00
1C00
0000
0000
1C00
1C00
1C00
1C00
1C00
1C00
1C00
1C00
1C00
1C00
1C00
1C00
1C00
ENDCHAR
STARTCHAR 012E
ENCODING 302
SWIDTH 384 0
DWIDTH 10 0
BBX 9 23 1 -5
BITMAP
FF00
FF00
FF00
3C00
3C00
3C00
3C00
3C00
3C00
3C00
3C00
3C00
3C00
3C00
3C00
FF00
FF00
FF00
0200
0C00
1D00
1F80
0F00
ENDCHAR
STARTCHAR 012F
ENCODING 303
SWIDTH 269 0
DWIDTH 7 0
BBX 6 24 0 -5
BITMAP
38
7C
7C
38
00
00
38
38
38
38
38
38
38
38
38
38
38
38
38
10
60
E8
FC
78
ENDCHAR
STARTCHAR 0130
ENCODING 304
SWIDTH 384 0
DWIDTH 10 0
BBX 8 24 1 0
BITMAP
1C
3C
3C
1C
00
00
FF
FF
FF
3C
3C
3C
3C
3C
3C
3C
3C
3C
3C
3C
3C
FF
FF
FF
ENDCHAR
STARTCHAR 0131
ENCODING 305
SWIDTH 269 0
DWIDTH 7 0
BBX 3 13 2 0
BITMAP
E0
E0
E0
E0
E0
E0
E0
E0
E0
E0
E0
E0
E0
ENDCHAR
STARTCHAR 0132
ENCODING 306
SWIDTH 576 0
DWIDTH 15 0
BBX 12 18 2 0
BITMAP
E3F0
E3F0
E3F0
E0F0
E0F0
E0F0
E0F0
E0F0
E0F0
E0F0
00F0
00F0
00F0
F0F0
F1E0
7FE0
7FC0
1F80
ENDCHAR
STARTCHAR 0133
ENCODING 307
SWIDTH 538 0
DWIDTH 14 0
BBX 11 24 1 -5
BITMAP
70E0
F9E0
F9E0
70E0
0000
0000
71E0
71E0
71E0
71E0
71E0
71E0
71E0
71E0
71E0
71E0
71E0
71E0
71E0
01E0
01E0
03E0
03E0
03C0
ENDCHAR
STARTCHAR 0134
ENCODING 308
SWIDTH 500 0
DWIDTH 13 0
BBX 11 25 1 0
BITMAP
0F00
0F80
1FC0
3DC0
78E0
1040
0000
3FC0
3FC0
3FC0
01C0
01C0
01C0
01C0
01C0
01C0
01C0
01C0
01C0
01C0
E1C0
F3C0
FFC0
7F80
3F00
ENDCHAR
STARTCHAR 0135
ENCODING 309
SWIDTH 269 0
DWIDTH 7 0
BBX 9 26 -1 -5
BITMAP
1C00
3E00
7F00
7700
E380
4100
0000
0000
1C00
1C00
1C00
1C00
1C00
1C00
1C00
1C00
1C00
1C00
1C00
1C00
1C00
1C00
1C00
7C00
7C00
7800
ENDCHAR
STARTCHAR 0136
ENCODING 310
SWIDTH 615 0
DWIDTH 16 0
BBX 14 26 2 -8
BITMAP
E07C
E0F8
E0F0
E1E0
E3C0
E3C0
E780
EF00
EF80
FF80
FBC0
FBC0
F1E0
E1F0
E0F0
E0F8
E078
E03C
0000
0700
0700
0700
0700
0300
0700
0E00
ENDCHAR
STARTCHAR 0137
ENCODING 311
SWIDTH 538 0
DWIDTH 14 0
BBX 12 27 2 -8
BITMAP
E000
E000
E000
E000
E000
E000
E1E0
E3C0
E780
E780
EF00
FE00
FF00
FF80
F780
E3C0
E3C0
E1E0
E1E0
0010
0C00
1E00
1E00
0E00
0E00
0C00
1C00
ENDCHAR
STARTCHAR 0138
ENCODING 312
SWIDTH 538 0
DWIDTH 14 0
BBX 12 13 2 0
BITMAP
E1E0
E3C0
E780
E780
EF00
FE00
FF00
FF80
F780
E3C0
E3C0
E1E0
E1F0
ENDCHAR
STARTCHAR 0139
ENCODING 313
SWIDTH 461 0
DWIDTH 12 0
BBX 10 25 2 0
BITMAP
2000
3800
7800
7000
E000
4000
0000
E000
E000
E000
E000
E000
E000
E000
E000
E000
E000
E000
E000
E000
E000
E000
FFC0
FFC0
FFC0
ENDCHAR
STARTCHAR 013A
ENCODING 314
SWIDTH 269 0
DWIDTH 7 0
BBX 5 26 2 0
BITMAP
20
78
70
F0
E0
40
00
E0
E0
E0
E0
E0
E0
E0
E0
E0
E0
E0
E0
E0
E0
E0
E0
F8
F8
78
ENDCHAR
STARTCHAR 013B
ENCODING 315
SWIDTH 461 0
DWIDTH 12 0
BBX 10 26 2 -8
BITMAP
E000
E000
E000
E000
E000
E000
E000
E000
E000
E000
E000
E000
E000
E000
E000
FFC0
FFC0
FFC0
0000
1C00
1C00
1E00
1C00
0C00
0C00
1800
ENDCHAR
STARTCHAR 013C
ENCODING 316
SWIDTH 269 0
DWIDTH 7 0
BBX 5 27 2 -8
BITMAP
E0
E0
E0
E0
E0
E0
E0
E0
E0
E0
E0
E0
E0
E0
E0
E0
F8
F8
78
00
70
F0
F0
70
70
60
E0
ENDCHAR
STARTCHAR 013D
ENCODING 317
SWIDTH 461 0
DWIDTH 12 0
BBX 10 19 2 0
BITMAP
0780
E700
E700
E700
E700
E600
E000
E000
E000
E000
E000
E000
E000
E000
E000
E000
FFC0
FFC0
FFC0
ENDCHAR
STARTCHAR 013E
ENCODING 318
SWIDTH 307 0
DWIDTH 8 0
BBX 8 19 2 0
BITMAP
E7
E7
E7
E6
E6
E6
E0
E0
E0
E0
E0
E0
E0
E0
E0
E0
F8
F8
78
ENDCHAR
STARTCHAR 013F
ENCODING 319
SWIDTH 461 0
DWIDTH 12 0
BBX 10 18 2 0
BITMAP
E000
E000
E000
E000
E000
E380
E3C0
E3C0
E380
E000
E000
E000
E000
E000
E000
FFC0
FFC0
FFC0
ENDCHAR
STARTCHAR 0140
ENCODING 320
SWIDTH 384 0
DWIDTH 10 0
BBX 8 19 2 0
BITMAP
E0
E0
E0
E0
E0
E0
E0
E7
E7
E7
E7
E0
E0
E0
E0
E0
F8
F8
78
ENDCHAR
STARTCHAR 0141
ENCODING 321
SWIDTH 500 0
DWIDTH 13 0
BBX 12 18 0 0
BITMAP
3C00
3C00
3C00
3C00
3C00
3C00
3D80
3F80
3F80
FE00
FC00
BC00
3C00
3C00
3C00
3FF0
3FF0
3FF0
ENDCHAR
STARTCHAR 0142
ENCODING 322
SWIDTH 269 0
DWIDTH 7 0
BBX 7 19 0 0
BITMAP
38
38
38
38
38
38
38
3A
3E
7E
F8
B8
38
38
38
38
3E
3E
1E
ENDCHAR
STARTCHAR 0143
ENCODING 323
SWIDTH 653 0
DWIDTH 17 0
BBX 13 25 2 0
BITMAP
0100
03C0
03C0
0780
0700
0200
0000
F038
F838
F838
FC38
FC38
FC38
EE38
EE38
E738
E738
E3B8
E3B8
E1F8
E1F8
E0F8
E0F8
E0F8
E078
ENDCHAR
STARTCHAR 0144
ENCODING 324
SWIDTH 538 0
DWIDTH 14 0
BBX 11 21 2 0
BITMAP
0600
0780
0F00
0E00
0E00
1C00
0000
0000
E780
EFC0
EFC0
F3E0
E1E0
E1E0
E1E0
E1E0
E1E0
E1E0
E1E0
E1E0
E1E0
ENDCHAR
STARTCHAR 0145
ENCODING 325
SWIDTH 653 0
DWIDTH 17 0
BBX 13 26 2 -8
BITMAP
F038
F838
F838
FC38
FC38
FC38
EE38
EE38
E738
E738
E3B8
E3B8
E1F8
E1F8
E0F8
E0F8
E0F8
E078
0000
0700
0700
0700
0700
0300
0700
0E00
ENDCHAR
STARTCHAR 0146
ENCODING 326
SWIDTH 538 0
DWIDTH 14 0
BBX 11 21 2 -8
BITMAP
E780
EFC0
EFC0
F3E0
E1E0
E1E0
E1E0
E1E0
E1E0
E1E0
E1E0
E1E0
E1E0
0000
0C00
1E00
1E00
0E00
0E00
0C00
1C00
ENDCHAR
STARTCHAR 0147
ENCODING 327
SWIDTH 653 0
DWIDTH 17 0
BBX 13 25 2 0
BITMAP
1040
38E0
3DE0
1FC0
0F80
0700
0000
F038
F838
F838
FC38
FC38
FC38
EE38
EE38
E738
E738
E3B8
E3B8
E1F8
E1F8
E0F8
E0F8
E0F8
E078
ENDCHAR
STARTCHAR 0148
ENCODING 328
SWIDTH 538 0
DWIDTH 14 0
BBX 11 21 2 0
BITMAP
6080
F1C0
7B80
3F00
1F00
1E00
0000
0000
E780
EFC0
EFC0
F3E0
E1E0
E1E0
E1E0
E1E0
E1E0
E1E0
E1E0
E1E0
E1E0
ENDCHAR
STARTCHAR 0149
ENCODING 329
SWIDTH 807 0
DWIDTH 21 0
BBX 19 19 1 0
BITMAP
700000
780000
780000
780000
380000
300000
70F780
E0F7C0
00FFE0
00F1E0
00F1E0
00F1E0
00F1E0
00F1E0
00F1E0
00F1E0
00F1E0
00F1E0
00F1E0
ENDCHAR
STARTCHAR 014A
ENCODING 330
SWIDTH 653 0
DWIDTH 17 0
BBX 13 23 2 -5
BITMAP
F038
F838
F838
F838
FC38
FC38
EE38
EE38
E738
E738
E3B8
E3B8
E1F8
E1F8
E1F8
E0F8
E0F8
E078
0038
0038
00F8
00F8
00F0
ENDCHAR
STARTCHAR 014B
ENCODING 331
SWIDTH 538 0
DWIDTH 14 0
BBX 11 18 2 -5
BITMAP
E780
EFC0
EFC0
F3E0
E1E0
E1E0
E1E0
E1E0
E1E0
E1E0
E1E0
E1E0
E1E0
01E0
01E0
07E0
07C0
0780
ENDCHAR
STARTCHAR 014C
ENCODING 332
SWIDTH 653 0
DWIDTH 17 0
BBX 15 23 1 0
BITMAP
0FE0
0FE0
0FE0
0000
0000
0FC0
1FF0
3FF8
7878
783C
F03C
F01C
F01C
F01E
F01E
F01C
F01C
F03C
783C
787C
3FF8
1FF0
0FC0
ENDCHAR
STARTCHAR 014D
ENCODING 333
SWIDTH 500 0
DWIDTH 13 0
BBX 11 19 1 0
BITMAP
3F80
3F80
3F80
0000
0000
0000
1F00
7FC0
7FE0
F1E0
F0E0
F0E0
F0E0
F0E0
F0E0
F1E0
7FE0
7FC0
1F00
ENDCHAR
STARTCHAR 014E
ENCODING 334
SWIDTH 653 0
DWIDTH 17 0
BBX 15 25 1 0
BITMAP
0820
1870
1C60
0FE0
0FC0
0780
0000
0FC0
1FF0
3FF8
7878
783C
F03C
F01C
F01C
F01E
F01E
F01C
F01C
F03C
783C
787C
3FF8
1FF0
0FC0
ENDCHAR
STARTCHAR 014F
ENCODING 335
SWIDTH 500 0
DWIDTH 13 0
BBX 11 21 1 0
BITMAP
2080
70C0
71C0
3F80
1F80
1F00
0000
0000
1F00
7FC0
7FE0
F1E0
F0E0
F0E0
F0E0
F0E0
F0E0
F1E0
7FE0
7FC0
1F00
ENDCHAR
STARTCHAR 0150
ENCODING 336
SWIDTH 653 0
DWIDTH 17 0
BBX 15 25 1 0
BITMAP
0630
0738
0F78
0E70
1CE0
0C40
0000
0FC0
1FF0
3FF8
7878
783C
F03C
F01C
F01C
F01E
F01E
F01C
F01C
F03C
783C
787C
3FF8
1FF0
0FC0
ENDCHAR
STARTCHAR 0151
ENCODING 337
SWIDTH 500 0
DWIDTH 13 0
BBX 12 21 1 0
BITMAP
0840
1EF0
1CE0
39C0
3980
7380
0000
0000
1F00
7FC0
7FE0
F1E0
F0E0
F0E0
F0E0
F0E0
F0E0
F1E0
7FE0
7FC0
1F00
ENDCHAR
STARTCHAR 0152
ENCODING 338
SWIDTH 884 0
DWIDTH 23 0
BBX 21 18 1 0
BITMAP
0FFFF8
1FFFF8
3FFFF8
783C00
783C00
F03C00
F03C00
F03FF0
F03FF0
F03FF0
F03C00
F03C00
F03C00
783C00
783C00
3FFFF8
1FFFF8
0FFFF8
ENDCHAR
STARTCHAR 0153
ENCODING 339
SWIDTH 807 0
DWIDTH 21 0
BBX 19 13 1 0
BITMAP
1F1F00
7FBFC0
7FBFC0
F1F1E0
F0E1E0
F0FFE0
F0FFE0
F0E000
F0F080
F1F0C0
7FBFE0
7FBFC0
1F0F00
ENDCHAR
STARTCHAR 0154
ENCODING 340
SWIDTH 615 0
DWIDTH 16 0
BBX 13 25 2 0
BITMAP
0200
0380
0780
0700
0E00
0400
0000
FFC0
FFE0
FFF0
E0F0
E078
E078
E078
E0F0
FFF0
FFE0
FFC0
E3C0
E1C0
E1E0
E1E0
E0F0
E0F0
E078
ENDCHAR
STARTCHAR 0155
ENCODING 341
SWIDTH 384 0
DWIDTH 10 0
BBX 7 21 2 0
BITMAP
08
1E
1C
38
38
10
00
00
E6
EE
FE
F0
E0
E0
E0
E0
E0
E0
E0
E0
E0
ENDCHAR
STARTCHAR 0156
ENCODING 342
SWIDTH 615 0
DWIDTH 16 0
BBX 13 26 2 -8
BITMAP
FFC0
FFE0
FFF0
E0F0
E078
E078
E078
E0F0
FFF0
FFE0
FFC0
E3C0
E1C0
E1E0
E1E0
E0F0
E0F0
E078
0000
0E00
0E00
0E00
0E00
0600
0600
1C00
ENDCHAR
STARTCHAR 0157
ENCODING 343
SWIDTH 384 0
DWIDTH 10 0
BBX 8 21 1 -8
BITMAP
73
77
7F
78
70
70
70
70
70
70
70
70
70
00
70
70
70
70
30
70
E0
ENDCHAR
STARTCHAR 0158
ENCODING 344
SWIDTH 615 0
DWIDTH 16 0
BBX 13 25 2 0
BITMAP
2080
71C0
3BC0
3F80
1F00
0E00
0000
FFC0
FFE0
FFF0
E0F0
E078
E078
E078
E0F0
FFF0
FFE0
FFC0
E3C0
E1C0
E1E0
E1E0
E0F0
E0F0
E078
ENDCHAR
STARTCHAR 0159
ENCODING 345
SWIDTH 384 0
DWIDTH 10 0
BBX 10 21 0 0
BITMAP
2080
F1C0
7B80
3F80
1F00
1E00
0000
0000
3980
3B80
3F80
3C00
3800
3800
3800
3800
3800
3800
3800
3800
3800
ENDCHAR
STARTCHAR 015A
ENCODING 346
SWIDTH 538 0
DWIDTH 14 0
BBX 12 25 1 0
BITMAP
0100
03C0
0380
0780
0700
0200
0000
1FC0
3FE0
7FF0
F8E0
F040
F000
F800
7F00
7FE0
1FF0
01F0
00F0
0070
6070
70F0
FFF0
7FE0
1F80
ENDCHAR
STARTCHAR 015B
ENCODING 347
SWIDTH 461 0
DWIDTH 12 0
BBX 10 21 1 0
BITMAP
0600
0780
0F00
0E00
1C00
0C00
0000
0000
3F00
7FC0
FF80
F100
F000
FF00
7F80
3FC0
03C0
61C0
FFC0
FF80
3F00
ENDCHAR
STARTCHAR 015C
ENCODING 348
SWIDTH 538 0
DWIDTH 14 0
BBX 12 25 1 0
BITMAP
0700
0F80
1FC0
3DC0
38E0
1040
0000
1FC0
3FE0
7FF0
F8E0
F040
F000
F800
7F00
7FE0
1FF0
01F0
00F0
0070
6070
70F0
FFF0
7FE0
1F80
ENDCHAR
STARTCHAR 015D
ENCODING 349
SWIDTH 461 0
DWIDTH 12 0
BBX 10 21 1 0
BITMAP
1E00
3F00
3F00
7F80
F3C0
6180
0000
0000
3F00
7FC0
FF80
F100
F000
FF00
7F80
3FC0
03C0
61C0
FFC0
FF80
3F00
ENDCHAR
STARTCHAR 015E
ENCODING 350
SWIDTH 576 0
DWIDTH 15 0
BBX 13 24 1 -6
BITMAP
1FC0
3FF0
7FF0
7860
F040
F000
F800
7F00
7FE0
1FF0
01F0
0078
0078
2078
70F0
FFF0
7FE0
1F80
0600
0780
01C0
09C0
0F80
0F80
ENDCHAR
STARTCHAR 015F
ENCODING 351
SWIDTH 461 0
DWIDTH 12 0
BBX 10 19 1 -6
BITMAP
3F00
7FC0
FF80
F100
F000
FF00
7F80
3FC0
03C0
61C0
FFC0
FF80
3F00
0800
0B00
0700
2300
3F00
1E00
ENDCHAR
STARTCHAR 0160
ENCODING 352
SWIDTH 538 0
DWIDTH 14 0
BBX 12 25 1 0
BITMAP
1040
38E0
3DC0
1FC0
0F80
0700
0000
1FC0
3FE0
7FF0
F8E0
F040
F000
F800
7F00
7FE0
1FF0
01F0
00F0
0070
6070
70F0
FFF0
7FE0
1F80
ENDCHAR
STARTCHAR 0161
ENCODING 353
SWIDTH 461 0
DWIDTH 12 0
BBX 10 21 1 0
BITMAP
6180
F3C0
7F80
3F00
3F00
1E00
0000
0000
3F00
7FC0
FF80
F100
F000
FF00
7F80
3FC0
03C0
61C0
FFC0
FF80
3F00
ENDCHAR
STARTCHAR 0162
ENCODING 354
SWIDTH 538 0
DWIDTH 14 0
BBX 12 24 1 -6
BITMAP
FFF0
FFF0
FFF0
0F00
0F00
0F00
0F00
0F00
0F00
0F00
0F00
0F00
0F00
0F00
0F00
0F00
0F00
0F00
0600
0580
0380
1180
1F80
0F00
ENDCHAR
STARTCHAR 0163
ENCODING 355
SWIDTH 346 0
DWIDTH 9 0
BBX 8 23 1 -6
BITMAP
38
38
38
78
FE
FE
FE
78
78
78
78
78
78
78
7E
3E
3E
18
1E
07
27
3E
7E
ENDCHAR
STARTCHAR 0164
ENCODING 356
SWIDTH 538 0
DWIDTH 14 0
BBX 12 25 1 0
BITMAP
2080
71E0
3BC0
1F80
1F00
0F00
0000
FFF0
FFF0
FFF0
0F00
0F00
0F00
0F00
0F00
0F00
0F00
0F00
0F00
0F00
0F00
0F00
0F00
0F00
0F00
ENDCHAR
STARTCHAR 0165
ENCODING 357
SWIDTH 346 0
DWIDTH 9 0
BBX 10 20 1 0
BITMAP
03C0
03C0
0380
3B80
3B80
3B00
7800
FE00
FE00
FE00
7800
7800
7800
7800
7800
7800
7800
7E00
3E00
3E00
ENDCHAR
STARTCHAR 0166
ENCODING 358
SWIDTH 538 0
DWIDTH 14 0
BBX 12 18 1 0
BITMAP
FFF0
FFF0
FFF0
0F00
0F00
0F00
0F00
0F00
7FE0
7FE0
7FE0
0F00
0F00
0F00
0F00
0F00
0F00
0F00
ENDCHAR
STARTCHAR 0167
ENCODING 359
SWIDTH 346 0
DWIDTH 9 0
BBX 7 17 1 0
BITMAP
38
38
38
78
FE
FE
FE
78
78
FE
FE
78
78
78
7E
3E
3E
ENDCHAR
STARTCHAR 0168
ENCODING 360
SWIDTH 615 0
DWIDTH 16 0
BBX 13 24 2 0
BITMAP
1C40
3FC0
3FE0
23C0
0000
0000
E078
E078
E078
E078
E078
E078
E078
E078
E078
E078
E078
E078
E078
F078
F0F0
FFF0
7FE0
1FC0
ENDCHAR
STARTCHAR 0169
ENCODING 361
SWIDTH 538 0
DWIDTH 14 0
BBX 11 20 1 0
BITMAP
1C40
3FC0
7FC0
2380
0000
0000
0000
F0E0
F0E0
F0E0
F0E0
F0E0
F0E0
F0E0
F0E0
F0E0
F9E0
7EE0
7EE0
3CE0
ENDCHAR
STARTCHAR 016A
ENCODING 362
SWIDTH 615 0
DWIDTH 16 0
BBX 13 23 2 0
BITMAP
1FC0
1FC0
1FC0
0000
0000
E078
E078
E078
E078
E078
E078
E078
E078
E078
E078
E078
E078
E078
F078
F0F0
FFF0
7FE0
1FC0
ENDCHAR
STARTCHAR 016B
ENCODING 363
SWIDTH 538 0
DWIDTH 14 0
BBX 11 19 1 0
BITMAP
3FC0
3FC0
3FC0
0000
0000
0000
F0E0
F0E0
F0E0
F0E0
F0E0
F0E0
F0E0
F0E0
F0E0
F9E0
7EE0
7EE0
3CE0
ENDCHAR
STARTCHAR 016C
ENCODING 364
SWIDTH 615 0
DWIDTH 16 0
BBX 13 25 2 0
BITMAP
1040
30E0
39C0
3FC0
1F80
0F00
0000
E078
E078
E078
E078
E078
E078
E078
E078
E078
E078
E078
E078
E078
F078
F0F0
FFF0
7FE0
1FC0
ENDCHAR
STARTCHAR 016D
ENCODING 365
SWIDTH 538 0
DWIDTH 14 0
BBX 11 21 1 0
BITMAP
30C0
70E0
39C0
3FC0
1F80
0F00
0000
0000
F0E0
F0E0
F0E0
F0E0
F0E0
F0E0
F0E0
F0E0
F0E0
F9E0
7EE0
7EE0
3CE0
ENDCHAR
STARTCHAR 016E
ENCODING 366
SWIDTH 615 0
DWIDTH 16 0
BBX 13 26 2 0
BITMAP
0F00
1F80
19C0
38C0
19C0
1F80
0F00
0000
E078
E078
E078
E078
E078
E078
E078
E078
E078
E078
E078
E078
E078
F078
F0F0
FFF0
7FE0
1FC0
ENDCHAR
STARTCHAR 016F
ENCODING 367
SWIDTH 538 0
DWIDTH 14 0
BBX 11 22 1 0
BITMAP
0F00
1F80
39C0
39C0
39C0
1F80
0F00
0000
0000
F0E0
F0E0
F0E0
F0E0
F0E0
F0E0
F0E0
F0E0
F0E0
F9E0
7EE0
7EE0
3CE0
ENDCHAR
STARTCHAR 0170
ENCODING 368
SWIDTH 615 0
DWIDTH 16 0
BBX 13 25 2 0
BITMAP
0C40
0E70
1EE0
1CE0
39C0
1080
0000
E078
E078
E078
E078
E078
E078
E078
E078
E078
E078
E078
E078
E078
F078
F0F0
FFF0
7FE0
1FC0
ENDCHAR
STARTCHAR 0171
ENCODING 369
SWIDTH 538 0
DWIDTH 14 0
BBX 12 21 1 0
BITMAP
0840
1EF0
1CE0
1DE0
39C0
1080
0000
0000
F0E0
F0E0
F0E0
F0E0
F0E0
F0E0
F0E0
F0E0
F0E0
F9E0
7EE0
7EE0
3CE0
ENDCHAR
STARTCHAR 0172
ENCODING 370
SWIDTH 615 0
DWIDTH 16 0
BBX 13 23 2 -5
BITMAP
E078
E078
E078
E078
E078
E078
E078
E078
E078
E078
E078
E078
E078
F078
F0F0
FFF0
7FE0
1FC0
0180
0300
0640
07E0
0780
ENDCHAR
STARTCHAR 0173
ENCODING 371
SWIDTH 538 0
DWIDTH 14 0
BBX 12 18 1 -5
BITMAP
F0E0
F0E0
F0E0
F0E0
F0E0
F0E0
F0E0
F0E0
F0E0
F9E0
7EE0
7EE0
3CE0
0060
0180
03A0
03F0
01E0
ENDCHAR
STARTCHAR 0174
ENCODING 372
SWIDTH 884 0
DWIDTH 23 0
BBX 21 25 1 0
BITMAP
007000
00F800
01FC00
03DE00
038E00
010400
000000
E0F838
F0F878
F0F878
F0F878
70DC70
71DC70
71DC70
79DCF0
79DCE0
398EE0
3B8EE0
3B8EE0
3B8EE0
3B8EC0
1F07C0
1F07C0
1F07C0
1F07C0
ENDCHAR
STARTCHAR 0175
ENCODING 373
SWIDTH 769 0
DWIDTH 20 0
BBX 19 21 0 0
BITMAP
00F000
01F000
01F800
03BC00
071E00
020800
000000
000000
F0F0E0
70F0E0
71F1E0
79F9C0
79B9C0
39B9C0
3BB9C0
3B9B80
3B9F80
1F1F80
1F1F80
1F0F00
0F0F00
ENDCHAR
STARTCHAR 0176
ENCODING 374
SWIDTH 576 0
DWIDTH 15 0
BBX 15 25 0 0
BITMAP
0380
07C0
0FE0
1EF0
1C70
0820
0000
F01E
783C
783C
3C78
3C78
1E70
1EF0
0FE0
0FE0
07C0
07C0
0380
0380
0380
0380
0380
0380
0380
ENDCHAR
STARTCHAR 0177
ENCODING 375
SWIDTH 500 0
DWIDTH 13 0
BBX 13 26 0 -5
BITMAP
0700
0F80
1FC0
3DE0
38E0
1040
0000
0000
F078
7070
78F0
78F0
38E0
38E0
3DE0
1DC0
1DC0
1DC0
0F80
0F80
0F80
0700
0F00
7F00
7E00
7C00
ENDCHAR
STARTCHAR 0178
ENCODING 376
SWIDTH 576 0
DWIDTH 15 0
BBX 15 24 0 0
BITMAP
1EF0
1EF0
1EF0
1EF0
0000
0000
F01E
783C
783C
3C78
3C78
1E70
1EF0
0FE0
0FE0
07C0
07C0
0380
0380
0380
0380
0380
0380
0380
ENDCHAR
STARTCHAR 0179
ENCODING 377
SWIDTH 538 0
DWIDTH 14 0
BBX 12 25 1 0
BITMAP
0100
03C0
0380
0700
0700
0E00
0000
FFF0
FFF0
FFF0
01F0
01E0
03C0
07C0
0780
0F00
1F00
1E00
3C00
3C00
7800
F800
FFF0
FFF0
FFF0
ENDCHAR
STARTCHAR 017A
ENCODING 378
SWIDTH 461 0
DWIDTH 12 0
BBX 10 21 1 0
BITMAP
0600
0780
0F00
0E00
0E00
1C00
0000
0000
FFC0
FFC0
FFC0
07C0
0780
0F00
1E00
3C00
7800
F000
FFC0
FFC0
FFC0
ENDCHAR
STARTCHAR 017B
ENCODING 379
SWIDTH 538 0
DWIDTH 14 0
BBX 12 24 1 0
BITMAP
0700
0F00
0F00
0700
0000
0000
FFF0
FFF0
FFF0
01F0
01E0
03C0
07C0
0780
0F00
1F00
1E00
3C00
3C00
7800
F800
FFF0
FFF0
FFF0
ENDCHAR
STARTCHAR 017C
ENCODING 380
SWIDTH 461 0
DWIDTH 12 0
BBX 10 20 1 0
BITMAP
1E00
1E00
1E00
0E00
0000
0000
0000
FFC0
FFC0
FFC0
07C0
0780
0F00
1E00
3C00
7800
F000
FFC0
FFC0
FFC0
ENDCHAR
STARTCHAR 017D
ENCODING 381
SWIDTH 538 0
DWIDTH 14 0
BBX 12 25 1 0
BITMAP
3040
78E0
3DC0
1F80
0F80
0F00
0000
FFF0
FFF0
FFF0
01F0
01E0
03C0
07C0
0780
0F00
1F00
1E00
3C00
3C00
7800
F800
FFF0
FFF0
FFF0
ENDCHAR
STARTCHAR 017E
ENCODING 382
SWIDTH 461 0
DWIDTH 12 0
BBX 10 21 1 0
BITMAP
6080
F1C0
7B80
3F00
1F00
1E00
0000
0000
FFC0
FFC0
FFC0
07C0
0780
0F00
1E00
3C00
7800
F000
FFC0
FFC0
FFC0
ENDCHAR
STARTCHAR 017F
ENCODING 383
SWIDTH 269 0
DWIDTH 7 0
BBX 7 19 1 0
BITMAP
1E
3E
7E
78
78
78
F8
F8
F8
78
78
78
78
78
78
78
78
78
78
ENDCHAR
STARTCHAR 018F
ENCODING 399
SWIDTH 653 0
DWIDTH 17 0
BBX 15 18 1 0
BITMAP
0FC0
1FF0
3FF8
787C
703C
103C
001C
001E
FFFE
FFFE
FFFE
F01C
F03C
783C
787C
3FF8
1FF0
0FC0
ENDCHAR
STARTCHAR 0192
ENCODING 402
SWIDTH 423 0
DWIDTH 11 0
BBX 11 21 0 -3
BITMAP
03E0
07E0
07E0
0F00
0F00
0F00
0F00
0F00
3FC0
7FC0
7FC0
0E00
0E00
1E00
1E00
1E00
1E00
1E00
FE00
FC00
F800
ENDCHAR
STARTCHAR 01A0
ENCODING 416
SWIDTH 653 0
DWIDTH 17 0
BBX 15 21 1 0
BITMAP
000E
000E
000E
0FFE
1FFE
3FE0
7878
783C
F03C
F01C
F01C
F01E
F01E
F01C
F01C
F03C
783C
7878
3FF8
1FF0
0FC0
ENDCHAR
STARTCHAR 01A1
ENCODING 417
SWIDTH 500 0
DWIDTH 13 0
BBX 12 16 1 0
BITMAP
0070
0070
0070
1FF0
7FF0
7F80
F1E0
F0E0
F0E0
F0E0
F0E0
F0E0
F1E0
7FE0
7FC0
1F00
ENDCHAR
STARTCHAR 01AF
ENCODING 431
SWIDTH 653 0
DWIDTH 17 0
BBX 15 21 2 0
BITMAP
000E
000E
000E
E07E
E07C
E078
E078
E078
E078
E078
E078
E078
E078
E078
E078
E078
F078
F0F0
FFF0
7FE0
1FC0
ENDCHAR
STARTCHAR 01B0
ENCODING 432
SWIDTH 538 0
DWIDTH 14 0
BBX 14 16 1 0
BITMAP
001C
001C
001C
F0F8
F0F8
F0E0
F0E0
F0E0
F0E0
F0E0
F0E0
F0E0
F9E0
7EE0
7EE0
3CE0
ENDCHAR
STARTCHAR 01CD
ENCODING 461
SWIDTH 615 0
DWIDTH 16 0
BBX 15 25 1 0
BITMAP
1820
3C70
1EE0
0FC0
0FC0
0780
0000
07C0
0FC0
0FC0
0FC0
1FE0
1CE0
1CE0
1CF0
3CF0
38F0
3870
7FF8
7FF8
7FF8
703C
F03C
F03C
E01E
ENDCHAR
STARTCHAR 01CE
ENCODING 462
SWIDTH 500 0
DWIDTH 13 0
BBX 12 21 1 0
BITMAP
2080
71C0
7B80
3F80
1F00
0E00
0000
0000
1F00
7FC0
FFC0
21C0
01E0
3FE0
7FE0
F1E0
E1E0
F3E0
FFF0
FFF0
78F0
ENDCHAR
STARTCHAR 01CF
ENCODING 463
SWIDTH 384 0
DWIDTH 10 0
BBX 10 25 0 0
BITMAP
2080
F1C0
7B80
3F80
1F00
1E00
0000
7F80
7F80
7F80
1E00
1E00
1E00
1E00
1E00
1E00
1E00
1E00
1E00
1E00
1E00
1E00
7F80
7F80
7F80
ENDCHAR
STARTCHAR 01D0
ENCODING 464
SWIDTH 269 0
DWIDTH 7 0
BBX 9 21 -1 0
BITMAP
4100
E380
F700
7F00
3E00
1C00
0000
0000
1C00
1C00
1C00
1C00
1C00
1C00
1C00
1C00
1C00
1C00
1C00
1C00
1C00
ENDCHAR
STARTCHAR 01D1
ENCODING 465
SWIDTH 653 0
DWIDTH 17 0
BBX 15 25 1 0
BITMAP
0820
1C70
1EE0
0FE0
07C0
0380
0000
0FC0
1FF0
3FF8
7878
783C
F03C
F01C
F01C
F01E
F01E
F01C
F01C
F03C
783C
787C
3FF8
1FF0
0FC0
ENDCHAR
STARTCHAR 01D2
ENCODING 466
SWIDTH 500 0
DWIDTH 13 0
BBX 11 21 1 0
BITMAP
2080
71C0
3BC0
3F80
1F00
0E00
0000
0000
1F00
7FC0
7FE0
F1E0
F0E0
F0E0
F0E0
F0E0
F0E0
F1E0
7FE0
7FC0
1F00
ENDCHAR
STARTCHAR 01D3
ENCODING 467
SWIDTH 615 0
DWIDTH 16 0
BBX 13 25 2 0
BITMAP
1040
78E0
3DC0
1FC0
0F80
0F00
0000
E078
E078
E078
E078
E078
E078
E078
E078
E078
E078
E078
E078
E078
F078
F0F0
FFF0
7FE0
1FC0
ENDCHAR
STARTCHAR 01D4
ENCODING 468
SWIDTH 538 0
DWIDTH 14 0
BBX 11 21 1 0
BITMAP
20C0
71E0
3BC0
1F80
1F80
0F00
0000
0000
F0E0
F0E0
F0E0
F0E0
F0E0
F0E0
F0E0
F0E0
F0E0
F9E0
7EE0
7EE0
3CE0
ENDCHAR
STARTCHAR 01D5
ENCODING 469
SWIDTH 615 0
DWIDTH 16 0
BBX 13 27 2 0
BITMAP
1FC0
1FC0
1FC0
0000
39C0
3DE0
3DE0
39C0
0000
E078
E078
E078
E078
E078
E078
E078
E078
E078
E078
E078
E078
E078
F078
F0F0
FFF0
7FE0
1FC0
ENDCHAR
STARTCHAR 01D6
ENCODING 470
SWIDTH 538 0
DWIDTH 14 0
BBX 11 23 1 0
BITMAP
3FC0
3FC0
3FC0
0000
39C0
39C0
39C0
39C0
0000
0000
F0E0
F0E0
F0E0
F0E0
F0E0
F0E0
F0E0
F0E0
F0E0
F9E0
7EE0
7EE0
3CE0
ENDCHAR
STARTCHAR 01D7
ENCODING 471
SWIDTH 615 0
DWIDTH 16 0
BBX 13 30 2 0
BITMAP
0100
03C0
0380
0700
0700
0200
0000
39C0
3DE0
3DE0
39C0
0000
E078
E078
E078
E078
E078
E078
E078
E078
E078
E078
E078
E078
E078
F078
F0F0
FFF0
7FE0
1FC0
ENDCHAR
STARTCHAR 01D8
ENCODING 472
SWIDTH 538 0
DWIDTH 14 0
BBX 11 26 1 0
BITMAP
0300
0380
0780
0700
0600
0E00
0000
39C0
39C0
39C0
39C0
0000
0000
F0E0
F0E0
F0E0
F0E0
F0E0
F0E0
F0E0
F0E0
F0E0
F9E0
7EE0
7EE0
3CE0
ENDCHAR
STARTCHAR 01D9
ENCODING 473
SWIDTH 615 0
DWIDTH 16 0
BBX 13 30 2 0
BITMAP
3040
78E0
3DC0
1FC0
0F80
0F00
0000
39C0
3DE0
3DE0
39C0
0000
E078
E078
E078
E078
E078
E078
E078
E078
E078
E078
E078
E078
E078
F078
F0F0
FFF0
7FE0
1FC0
ENDCHAR
STARTCHAR 01DA
ENCODING 474
SWIDTH 538 0
DWIDTH 14 0
BBX 11 26 1 0
BITMAP
2040
70E0
3BC0
1F80
1F80
0F00
0000
39C0
39C0
39C0
39C0
0000
0000
F0E0
F0E0
F0E0
F0E0
F0E0
F0E0
F0E0
F0E0
F0E0
F9E0
7EE0
7EE0
3CE0
ENDCHAR
STARTCHAR 01DB
ENCODING 475
SWIDTH 615 0
DWIDTH 16 0
BBX 13 29 2 0
BITMAP
0400
1C00
1E00
0E00
0700
0200
39C0
3DE0
3DE0
39C0
0000
E078
E078
E078
E078
E078
E078
E078
E078
E078
E078
E078
E078
E078
F078
F0F0
FFF0
7FE0
1FC0
ENDCHAR
STARTCHAR 01DC
ENCODING 476
SWIDTH 538 0
DWIDTH 14 0
BBX 11 26 1 0
BITMAP
0C00
3C00
1C00
0E00
0600
0700
0000
39C0
39C0
39C0
39C0
0000
0000
F0E0
F0E0
F0E0
F0E0
F0E0
F0E0
F0E0
F0E0
F0E0
F9E0
7EE0
7EE0
3CE0
ENDCHAR
STARTCHAR 01FA
ENCODING 506
SWIDTH 615 0
DWIDTH 16 0
BBX 15 31 1 0
BITMAP
0080
01C0
03E0
0780
0200
0000
0780
0FC0
1CE0
1CE0
0FC0
0780
0000
07C0
0FC0
0FC0
0FC0
1FE0
1CE0
1CE0
1CF0
3CF0
38F0
3870
7FF8
7FF8
7FF8
703C
F03C
F03C
E01E
ENDCHAR
STARTCHAR 01FB
ENCODING 507
SWIDTH 500 0
DWIDTH 13 0
BBX 12 26 1 0
BITMAP
0200
0300
0780
0E00
0C00
0000
1F00
3F80
3180
3180
3F80
1F00
0000
1F00
7FC0
FFC0
21C0
01E0
3FE0
7FE0
F1E0
E1E0
F3E0
FFF0
FFF0
78F0
ENDCHAR
STARTCHAR 01FC
ENCODING 508
SWIDTH 884 0
DWIDTH 23 0
BBX 21 25 0 0
BITMAP
000200
000380
000780
000700
000E00
000400
000000
00FFF8
01FFF8
01FFF8
03FC00
03BC00
07BC00
07BC00
073FF0
0F3FF0
0E3FF0
1E3C00
1FFC00
3FFC00
3FFC00
783C00
783FF8
703FF8
F03FF8
ENDCHAR
STARTCHAR 01FD
ENCODING 509
SWIDTH 769 0
DWIDTH 20 0
BBX 19 21 1 0
BITMAP
002000
007800
007000
00F000
00E000
004000
000000
000000
3E1F00
7F3F80
FFFFC0
21E3C0
01E1C0
3FFFE0
7FFFE0
F1E000
E1E100
F1F180
FF7FC0
FF7F80
7C1F00
ENDCHAR
STARTCHAR 01FE
ENCODING 510
SWIDTH 653 0
DWIDTH 17 0
BBX 15 26 1 -1
BITMAP
0080
01E0
01C0
03C0
0380
0100
0008
0FDC
1FFC
3FF8
787C
707C
F0FC
F0DC
F19C
F39E
F31E
F71C
F61C
FC1C
7C3C
787C
3FF8
7FF0
7FC0
A000
ENDCHAR
STARTCHAR 01FF
ENCODING 511
SWIDTH 500 0
DWIDTH 13 0
BBX 13 22 0 -1
BITMAP
0180
01C0
03C0
0380
0700
0200
0000
0010
0FB8
3FF0
3FE0
78F0
79F0
73F0
7770
7670
7C70
78F0
3FF0
7FE0
EF80
6000
ENDCHAR
STARTCHAR 0218
ENCODING 536
SWIDTH 538 0
DWIDTH 14 0
BBX 12 26 1 -8
BITMAP
1FC0
3FE0
7FF0
F8E0
F040
F000
F800
7F00
7FE0
1FF0
01F0
00F0
0070
6070
70F0
FFF0
7FE0
1F80
0000
0600
0F00
0F00
0F00
0700
0600
0E00
ENDCHAR
STARTCHAR 0219
ENCODING 537
SWIDTH 461 0
DWIDTH 12 0
BBX 10 21 1 -8
BITMAP
3F00
7FC0
FF80
F100
F000
FF00
7F80
3FC0
03C0
61C0
FFC0
FF80
3F00
0000
0C00
1E00
1E00
1E00
0C00
0C00
1800
ENDCHAR
STARTCHAR 021A
ENCODING 538
SWIDTH 538 0
DWIDTH 14 0
BBX 12 26 1 -8
BITMAP
FFF0
FFF0
FFF0
0F00
0F00
0F00
0F00
0F00
0F00
0F00
0F00
0F00
0F00
0F00
0F00
0F00
0F00
0F00
0000
0E00
0F00
0F00
0F00
0600
0600
0C00
ENDCHAR
STARTCHAR 021B
ENCODING 539
SWIDTH 346 0
DWIDTH 9 0
BBX 7 25 1 -8
BITMAP
38
38
38
78
FE
FE
FE
78
78
78
78
78
78
78
7E
3E
3E
00
1C
3C
3C
1C
1C
18
38
ENDCHAR
STARTCHAR 0237
ENCODING 567
SWIDTH 269 0
DWIDTH 7 0
BBX 5 18 0 -5
BITMAP
38
38
38
38
38
38
38
38
38
38
38
38
38
38
38
F8
F8
F0
ENDCHAR
STARTCHAR 0259
ENCODING 601
SWIDTH 500 0
DWIDTH 13 0
BBX 11 13 1 0
BITMAP
1F00
7FC0
FFC0
61E0
41E0
00E0
FFE0
FFE0
F0E0
F1E0
7FE0
7FC0
1F00
ENDCHAR
STARTCHAR 02BB
ENCODING 699
SWIDTH 538 0
DWIDTH 14 0
BBX 4 7 5 15
BITMAP
70
60
E0
F0
F0
F0
60
ENDCHAR
STARTCHAR 02BC
ENCODING 700
SWIDTH 538 0
DWIDTH 14 0
BBX 4 6 7 13
BITMAP
F0
E0
E0
E0
C0
C0
ENDCHAR
STARTCHAR 02C6
ENCODING 710
SWIDTH 538 0
DWIDTH 14 0
BBX 10 6 2 15
BITMAP
1E00
3F00
3F00
7B80
F1C0
6080
ENDCHAR
STARTCHAR 02C7
ENCODING 711
SWIDTH 538 0
DWIDTH 14 0
BBX 10 6 2 15
BITMAP
6080
F1C0
7B80
3F00
3F00
1E00
ENDCHAR
STARTCHAR 02D8
ENCODING 728
SWIDTH 538 0
DWIDTH 14 0
BBX 10 6 2 15
BITMAP
6180
E1C0
7380
7F80
3F00
1E00
ENDCHAR
STARTCHAR 02D9
ENCODING 729
SWIDTH 538 0
DWIDTH 14 0
BBX 4 4 5 16
BITMAP
F0
F0
F0
F0
ENDCHAR
STARTCHAR 02DA
ENCODING 730
SWIDTH 538 0
DWIDTH 14 0
BBX 8 7 3 15
BITMAP
3C
7E
E7
E7
E7
7E
3C
ENDCHAR
STARTCHAR 02DB
ENCODING 731
SWIDTH 538 0
DWIDTH 14 0
BBX 6 6 2 -5
BITMAP
18
30
60
C8
FC
78
ENDCHAR
STARTCHAR 02DC
ENCODING 732
SWIDTH 538 0
DWIDTH 14 0
BBX 9 4 3 16
BITMAP
7100
FF00
FF80
8E00
ENDCHAR
STARTCHAR 02DD
ENCODING 733
SWIDTH 538 0
DWIDTH 14 0
BBX 10 6 3 15
BITMAP
2100
3BC0
7380
7380
E700
4200
ENDCHAR
STARTCHAR 0300
ENCODING 768
SWIDTH 0 0
DWIDTH 0 0
BBX 6 6 -4 15
BITMAP
30
F0
78
38
1C
18
ENDCHAR
STARTCHAR 0301
ENCODING 769
SWIDTH 0 0
DWIDTH 0 0
BBX 6 6 -2 15
BITMAP
30
3C
78
70
F0
60
ENDCHAR
STARTCHAR 0302
ENCODING 770
SWIDTH 0 0
DWIDTH 0 0
BBX 10 6 -5 15
BITMAP
1E00
3F00
3F00
7B80
F1C0
6080
ENDCHAR
STARTCHAR 0303
ENCODING 771
SWIDTH 0 0
DWIDTH 0 0
BBX 9 4 -4 16
BITMAP
7100
FF00
FF80
8E00
ENDCHAR
STARTCHAR 0304
ENCODING 772
SWIDTH 0 0
DWIDTH 0 0
BBX 8 3 -4 16
BITMAP
FF
FF
FF
ENDCHAR
STARTCHAR 0306
ENCODING 774
SWIDTH 0 0
DWIDTH 0 0
BBX 10 6 -5 15
BITMAP
6180
E1C0
7380
7F80
3F00
1E00
ENDCHAR
STARTCHAR 0307
ENCODING 775
SWIDTH 0 0
DWIDTH 0 0
BBX 4 4 -2 16
BITMAP
F0
F0
F0
F0
ENDCHAR
STARTCHAR 0308
ENCODING 776
SWIDTH 0 0
DWIDTH 0 0
BBX 8 4 -4 16
BITMAP
E7
E7
E7
E7
ENDCHAR
STARTCHAR 0309
ENCODING 777
SWIDTH 0 0
DWIDTH 0 0
BBX 6 6 -3 14
BITMAP
FC
FC
FC
1C
38
10
ENDCHAR
STARTCHAR 030A
ENCODING 778
SWIDTH 0 0
DWIDTH 0 0
BBX 8 7 -4 15
BITMAP
3C
7E
E7
E7
E7
7E
3C
ENDCHAR
STARTCHAR 030B
ENCODING 779
SWIDTH 0 0
DWIDTH 0 0
BBX 10 6 -4 15
BITMAP
2100
3BC0
7380
7380
E700
4200
ENDCHAR
STARTCHAR 030C
ENCODING 780
SWIDTH 0 0
DWIDTH 0 0
BBX 10 6 -5 15
BITMAP
6080
F1C0
7B80
3F00
3F00
1E00
ENDCHAR
STARTCHAR 0312
ENCODING 786
SWIDTH 0 0
DWIDTH 0 0
BBX 4 7 -2 15
BITMAP
70
60
E0
F0
F0
F0
60
ENDCHAR
STARTCHAR 0315
ENCODING 789
SWIDTH 0 0
DWIDTH 0 0
BBX 4 6 0 13
BITMAP
F0
E0
E0
E0
C0
C0
ENDCHAR
STARTCHAR 031B
ENCODING 795
SWIDTH 0 0
DWIDTH 0 0
BBX 6 5 -3 11
BITMAP
1C
1C
1C
FC
FC
ENDCHAR
STARTCHAR 0323
ENCODING 803
SWIDTH 0 0
DWIDTH 0 0
BBX 4 4 -2 -5
BITMAP
F0
F0
F0
F0
ENDCHAR
STARTCHAR 0326
ENCODING 806
SWIDTH 0 0
DWIDTH 0 0
BBX 4 7 -2 -8
BITMAP
60
F0
F0
F0
60
60
C0
ENDCHAR
STARTCHAR 0327
ENCODING 807
SWIDTH 0 0
DWIDTH 0 0
BBX 7 7 -3 -6
BITMAP
30
30
3C
0C
4E
7C
F8
ENDCHAR
STARTCHAR 0328
ENCODING 808
SWIDTH 0 0
DWIDTH 0 0
BBX 6 6 -5 -5
BITMAP
18
30
60
C8
FC
78
ENDCHAR
STARTCHAR 03C0
ENCODING 960
SWIDTH 576 0
DWIDTH 15 0
BBX 14 13 0 0
BITMAP
FFFC
FFFC
FFFC
3C70
3C70
3C70
3C70
3C70
3C70
3C70
3C7C
3C7C
3C3C
ENDCHAR
STARTCHAR 0E3F
ENCODING 3647
SWIDTH 615 0
DWIDTH 16 0
BBX 13 22 2 -2
BITMAP
0E00
0E00
0E00
FFC0
FFE0
FFF0
E6F0
E670
E670
E6F0
FFE0
FFE0
FFF0
E678
E678
E678
FFF0
FFF0
FFE0
0E00
0E00
0E00
ENDCHAR
STARTCHAR 1E80
ENCODING 7808
SWIDTH 884 0
DWIDTH 23 0
BBX 21 25 1 0
BITMAP
004000
01E000
01E000
00F000
007000
002000
000000
E0F838
F0F878
F0F878
F0F878
70DC70
71DC70
71DC70
79DCF0
79DCE0
398EE0
3B8EE0
3B8EE0
3B8EE0
3B8EC0
1F07C0
1F07C0
1F07C0
1F07C0
ENDCHAR
STARTCHAR 1E81
ENCODING 7809
SWIDTH 769 0
DWIDTH 20 0
BBX 19 21 0 0
BITMAP
00C000
03C000
01C000
00E000
00E000
005000
000000
000000
F0F0E0
70F0E0
71F1E0
79F9C0
79B9C0
39B9C0
3BB9C0
3B9B80
3B9F80
1F1F80
1F1F80
1F0F00
0F0F00
ENDCHAR
STARTCHAR 1E82
ENCODING 7810
SWIDTH 884 0
DWIDTH 23 0
BBX 21 25 1 0
BITMAP
001000
003C00
003800
007800
007000
002000
000000
E0F838
F0F878
F0F878
F0F878
70DC70
71DC70
71DC70
79DCF0
79DCE0
398EE0
3B8EE0
3B8EE0
3B8EE0
3B8EC0
1F07C0
1F07C0
1F07C0
1F07C0
ENDCHAR
STARTCHAR 1E83
ENCODING 7811
SWIDTH 769 0
DWIDTH 20 0
BBX 19 21 0 0
BITMAP
003000
003C00
007800
007000
00E000
006000
000000
000000
F0F0E0
70F0E0
71F1E0
79F9C0
79B9C0
39B9C0
3BB9C0
3B9B80
3B9F80
1F1F80
1F1F80
1F0F00
0F0F00
ENDCHAR
STARTCHAR 1E84
ENCODING 7812
SWIDTH 884 0
DWIDTH 23 0
BBX 21 24 1 0
BITMAP
03DE00
03DE00
03DE00
03DE00
000000
000000
E0F838
F0F878
F0F878
F0F878
70DC70
71DC70
71DC70
79DCF0
79DCE0
398EE0
3B8EE0
3B8EE0
3B8EE0
3B8EC0
1F07C0
1F07C0
1F07C0
1F07C0
ENDCHAR
STARTCHAR 1E85
ENCODING 7813
SWIDTH 769 0
DWIDTH 20 0
BBX 19 20 0 0
BITMAP
039C00
07BC00
07BC00
039C00
000000
000000
000000
F0F0E0
70F0E0
71F1E0
79F9C0
79B9C0
39B9C0
3BB9C0
3B9B80
3B9F80
1F1F80
1F1F80
1F0F00
0F0F00
ENDCHAR
STARTCHAR 1E9E
ENCODING 7838
SWIDTH 653 0
DWIDTH 17 0
BBX 15 18 2 0
BITMAP
FFF8
FFF8
FFF8
E078
E0F0
E1E0
E1E0
E3F0
E3F8
E3FC
E03C
E01C
E01E
E01C
E33C
E7FC
E7F8
E3F0
ENDCHAR
STARTCHAR 1EA0
ENCODING 7840
SWIDTH 615 0
DWIDTH 16 0
BBX 15 23 1 -5
BITMAP
07C0
0FC0
0FC0
0FC0
1FE0
1CE0
1CE0
1CF0
3CF0
38F0
3870
7FF8
7FF8
7FF8
703C
F03C
F03C
E01C
0002
0780
0780
0780
0780
ENDCHAR
STARTCHAR 1EA1
ENCODING 7841
SWIDTH 500 0
DWIDTH 13 0
BBX 12 18 1 -5
BITMAP
1F00
7FC0
FFC0
21C0
01E0
3FE0
7FE0
F1E0
E1E0
F3E0
FFF0
FFF0
78F0
0000
0E00
1E00
1E00
0E00
ENDCHAR
STARTCHAR 1EA2
ENCODING 7842
SWIDTH 615 0
DWIDTH 16 0
BBX 15 25 1 0
BITMAP
0FC0
0FC0
0FC0
01C0
0380
0100
0000
07C0
0FC0
0FC0
0FC0
1FE0
1CE0
1CE0
1CF0
3CF0
38F0
3870
7FF8
7FF8
7FF8
703C
F03C
F03C
E01E
ENDCHAR
STARTCHAR 1EA3
ENCODING 7843
SWIDTH 500 0
DWIDTH 13 0
BBX 12 20 1 0
BITMAP
3F00
3F00
3F00
0700
0600
0E00
0000
1F00
7FC0
FFC0
21C0
01E0
3FE0
7FE0
F1E0
E1E0
F3E0
FFF0
FFF0
78F0
ENDCHAR
STARTCHAR 1EA4
ENCODING 7844
SWIDTH 615 0
DWIDTH 16 0
BBX 15 30 1 0
BITMAP
0008
001E
001C
0038
0038
0790
0FC0
0FC0
1EE0
3870
1020
0000
07C0
0FC0
0FC0
0FC0
1FE0
1CE0
1CE0
1CF0
3CF0
38F0
3870
7FF8
7FF8
7FF8
703C
F03C
F03C
E01E
ENDCHAR
STARTCHAR 1EA5
ENCODING 7845
SWIDTH 500 0
DWIDTH 13 0
BBX 13 25 1 0
BITMAP
0020
0038
0070
0070
00E0
0E40
1F00
3F80
7BC0
F1C0
2080
0000
1F00
7FC0
FFC0
21C0
01E0
3FE0
7FE0
F1E0
E1E0
F3E0
FFF0
FFF0
78F0
ENDCHAR
STARTCHAR 1EA6
ENCODING 7846
SWIDTH 615 0
DWIDTH 16 0
BBX 16 30 0 0
BITMAP
2000
F000
7000
3800
1800
1BC0
07E0
07E0
0F70
1C38
0810
0000
03E0
07E0
07E0
07E0
0FF0
0E70
0E70
0E78
1E78
1C78
1C38
3FFC
3FFC
3FFC
381E
781E
781E
700F
ENDCHAR
STARTCHAR 1EA7
ENCODING 7847
SWIDTH 500 0
DWIDTH 13 0
BBX 14 25 -1 0
BITMAP
2000
E000
F000
7000
3800
1380
07C0
0FE0
1EF0
3C70
0820
0000
07C0
1FF0
3FF0
0870
0078
0FF8
1FF8
3C78
3878
3CF8
3FFC
3FFC
1E3C
ENDCHAR
STARTCHAR 1EA8
ENCODING 7848
SWIDTH 615 0
DWIDTH 16 0
BBX 15 30 1 0
BITMAP
00F8
00F8
00F8
0018
0030
07B0
0FC0
0FC0
1EE0
3870
1020
0000
07C0
0FC0
0FC0
0FC0
1FE0
1CE0
1CE0
1CF0
3CF0
38F0
3870
7FF8
7FF8
7FF8
703C
F03C
F03C
E01E
ENDCHAR
STARTCHAR 1EA9
ENCODING 7849
SWIDTH 500 0
DWIDTH 13 0
BBX 12 25 1 0
BITMAP
03E0
03F0
03F0
0060
0060
0EC0
1F00
3F80
7BC0
F1C0
2080
0000
1F00
7FC0
FFC0
21C0
01E0
3FE0
7FE0
F1E0
E1E0
F3E0
FFF0
FFF0
78F0
ENDCHAR
STARTCHAR 1EAA
ENCODING 7850
SWIDTH 615 0
DWIDTH 16 0
BBX 15 30 1 0
BITMAP
0E20
1FE0
3FE0
11C0
0000
0780
0FC0
0FC0
1CE0
3870
1020
0000
07C0
0FC0
0FC0
0FC0
1FE0
1CE0
1CE0
1CF0
3CF0
38F0
3870
7FF8
7FF8
7FF8
703C
F03C
F03C
E01E
ENDCHAR
STARTCHAR 1EAB
ENCODING 7851
SWIDTH 500 0
DWIDTH 13 0
BBX 12 24 1 0
BITMAP
3C80
7F80
7FC0
4780
0000
1E00
3F00
7F80
7BC0
E080
0000
1F00
7FC0
FFC0
21C0
01E0
3FE0
7FE0
F1E0
E1E0
F3E0
FFF0
FFF0
78F0
ENDCHAR
STARTCHAR 1EAC
ENCODING 7852
SWIDTH 615 0
DWIDTH 16 0
BBX 15 30 1 -5
BITMAP
0780
0FC0
0FC0
1EE0
3C70
1820
0000
07C0
0FC0
0FC0
0FC0
1FE0
1CE0
1CE0
1CF0
3CF0
38F0
3870
7FF8
7FF8
7FF8
703C
F03C
F03C
E01C
0002
0780
0780
0780
0780
ENDCHAR
STARTCHAR 1EAD
ENCODING 7853
SWIDTH 500 0
DWIDTH 13 0
BBX 12 26 1 -5
BITMAP
0E00
1F00
3F80
7B80
71C0
2080
0000
0000
1F00
7FC0
FFC0
21C0
01E0
3FE0
7FE0
F1E0
E1E0
F3E0
FFF0
FFF0
78F0
0000
0E00
1E00
1E00
0E00
ENDCHAR
STARTCHAR 1EAE
ENCODING 7854
SWIDTH 615 0
DWIDTH 16 0
BBX 15 30 1 0
BITMAP
0080
01E0
01C0
0380
0380
0100
1020
3870
1FE0
0FE0
0780
0000
07C0
0FC0
0FC0
0FC0
1FE0
1CE0
1CE0
1CF0
3CF0
38F0
3870
7FF8
7FF8
7FF8
703C
F03C
F03C
E01E
ENDCHAR
STARTCHAR 1EAF
ENCODING 7855
SWIDTH 500 0
DWIDTH 13 0
BBX 12 25 1 0
BITMAP
0200
0380
0700
0700
0E00
0400
6080
F1C0
7FC0
3F80
1F00
0000
1F00
7FC0
FFC0
21C0
01E0
3FE0
7FE0
F1E0
E1E0
F3E0
FFF0
FFF0
78F0
ENDCHAR
STARTCHAR 1EB0
ENCODING 7856
SWIDTH 615 0
DWIDTH 16 0
BBX 15 30 1 0
BITMAP
0400
1E00
0E00
0700
0700
0200
1020
3870
1FE0
0FE0
0780
0000
07C0
0FC0
0FC0
0FC0
1FE0
1CE0
1CE0
1CF0
3CF0
38F0
3870
7FF8
7FF8
7FF8
703C
F03C
F03C
E01E
ENDCHAR
STARTCHAR 1EB1
ENCODING 7857
SWIDTH 500 0
DWIDTH 13 0
BBX 12 25 1 0
BITMAP
1800
3800
3C00
1C00
0C00
0E00
6080
F1C0
7FC0
3F80
1F00
0000
1F00
7FC0
FFC0
21C0
01E0
3FE0
7FE0
F1E0
E1E0
F3E0
FFF0
FFF0
78F0
ENDCHAR
STARTCHAR 1EB2
ENCODING 7858
SWIDTH 615 0
DWIDTH 16 0
BBX 15 30 1 0
BITMAP
0F80
0F80
0F80
0180
0380
0300
1020
3870
1FE0
0FE0
0780
0000
07C0
0FC0
0FC0
0FC0
1FE0
1CE0
1CE0
1CF0
3CF0
38F0
3870
7FF8
7FF8
7FF8
703C
F03C
F03C
E01E
ENDCHAR
STARTCHAR 1EB3
ENCODING 7859
SWIDTH 500 0
DWIDTH 13 0
BBX 12 25 1 0
BITMAP
3E00
3F00
3F00
0600
0600
0C00
6080
F1C0
7FC0
3F80
1F00
0000
1F00
7FC0
FFC0
21C0
01E0
3FE0
7FE0
F1E0
E1E0
F3E0
FFF0
FFF0
78F0
ENDCHAR
STARTCHAR 1EB4
ENCODING 7860
SWIDTH 615 0
DWIDTH 16 0
BBX 15 29 1 0
BITMAP
0E20
1FE0
1FE0
11C0
0000
1020
3870
1FE0
0FE0
0780
0000
07C0
0FC0
0FC0
0FC0
1FE0
1CE0
1CE0
1CF0
3CF0
38F0
3870
7FF8
7FF8
7FF8
703C
F03C
F03C
E01E
ENDCHAR
STARTCHAR 1EB5
ENCODING 7861
SWIDTH 500 0
DWIDTH 13 0
BBX 12 24 1 0
BITMAP
3C80
7F80
7FC0
4780
0000
6080
F1C0
7FC0
3F80
1F00
0000
1F00
7FC0
FFC0
21C0
01E0
3FE0
7FE0
F1E0
E1E0
F3E0
FFF0
FFF0
78F0
ENDCHAR
STARTCHAR 1EB6
ENCODING 7862
SWIDTH 615 0
DWIDTH 16 0
BBX 15 30 1 -5
BITMAP
0860
3870
1CE0
1FE0
0FC0
0780
0000
07C0
0FC0
0FC0
0FC0
1FE0
1CE0
1CE0
1CF0
3CF0
38F0
3870
7FF8
7FF8
7FF8
703C
F03C
F03C
E01C
0002
0780
0780
0780
0780
ENDCHAR
STARTCHAR 1EB7
ENCODING 7863
SWIDTH 500 0
DWIDTH 13 0
BBX 12 26 1 -5
BITMAP
2080
61C0
71C0
3F80
3F00
1E00
0000
0000
1F00
7FC0
FFC0
21C0
01E0
3FE0
7FE0
F1E0
E1E0
F3E0
FFF0
FFF0
78F0
0000
0E00
1E00
1E00
0E00
ENDCHAR
STARTCHAR 1EB8
ENCODING 7864
SWIDTH 538 0
DWIDTH 14 0
BBX 11 23 2 -5
BITMAP
FFE0
FFE0
FFE0
E000
E000
E000
E000
FFC0
FFC0
FFC0
E000
E000
E000
E000
E000
FFE0
FFE0
FFE0
0000
0E00
1E00
1E00
0E00
ENDCHAR
STARTCHAR 1EB9
ENCODING 7865
SWIDTH 500 0
DWIDTH 13 0
BBX 11 18 1 -5
BITMAP
1F00
7FC0
7FE0
F1E0
F0E0
FFE0
FFE0
F000
F080
F0C0
7FE0
3FC0
1F80
0000
0E00
0F00
0F00
0E00
ENDCHAR
STARTCHAR 1EBA
ENCODING 7866
SWIDTH 538 0
DWIDTH 14 0
BBX 11 25 2 0
BITMAP
3F00
3F00
3F00
0700
0600
0E00
0000
FFE0
FFE0
FFE0
E000
E000
E000
E000
FFC0
FFC0
FFC0
E000
E000
E000
E000
E000
FFE0
FFE0
FFE0
ENDCHAR
STARTCHAR 1EBB
ENCODING 7867
SWIDTH 500 0
DWIDTH 13 0
BBX 11 20 1 0
BITMAP
1F00
1F80
1F80
0700
0700
0600
0000
1F00
7FC0
7FE0
F1E0
F0E0
FFE0
FFE0
F000
F080
F0C0
7FE0
3FC0
1F80
ENDCHAR
STARTCHAR 1EBC
ENCODING 7868
SWIDTH 538 0
DWIDTH 14 0
BBX 11 24 2 0
BITMAP
3C80
7FC0
7FC0
2780
0000
0000
FFE0
FFE0
FFE0
E000
E000
E000
E000
FFC0
FFC0
FFC0
E000
E000
E000
E000
E000
FFE0
FFE0
FFE0
ENDCHAR
STARTCHAR 1EBD
ENCODING 7869
SWIDTH 500 0
DWIDTH 13 0
BBX 11 20 1 0
BITMAP
3C80
7FC0
7FC0
2780
0000
0000
0000
1F00
7FC0
7FE0
F1E0
F0E0
FFE0
FFE0
F000
F080
F0C0
7FE0
3FC0
1F80
ENDCHAR
STARTCHAR 1EBE
ENCODING 7870
SWIDTH 538 0
DWIDTH 14 0
BBX 13 30 2 0
BITMAP
0020
0038
0070
0070
00E0
0E40
1F00
3F80
7BC0
71C0
2080
0000
FFE0
FFE0
FFE0
E000
E000
E000
E000
FFC0
FFC0
FFC0
E000
E000
E000
E000
E000
FFE0
FFE0
FFE0
ENDCHAR
STARTCHAR 1EBF
ENCODING 7871
SWIDTH 500 0
DWIDTH 13 0
BBX 13 25 1 0
BITMAP
0020
0038
0078
0070
00E0
0E40
1F00
3F80
7BC0
71E0
2080
0000
1F00
7FC0
7FE0
F1E0
F0E0
FFE0
FFE0
F000
F080
F0C0
7FE0
3FC0
1F80
ENDCHAR
STARTCHAR 1EC0
ENCODING 7872
SWIDTH 538 0
DWIDTH 14 0
BBX 13 30 0 0
BITMAP
2000
E000
7000
7000
3800
1380
07C0
0FE0
1EF0
1C70
0820
0000
3FF8
3FF8
3FF8
3800
3800
3800
3800
3FF0
3FF0
3FF0
3800
3800
3800
3800
3800
3FF8
3FF8
3FF8
ENDCHAR
STARTCHAR 1EC1
ENCODING 7873
SWIDTH 500 0
DWIDTH 13 0
BBX 13 25 -1 0
BITMAP
2000
E000
7000
7000
3800
1380
07C0
0FE0
1EF0
1C78
0820
0000
07C0
1FF0
1FF8
3C78
3C38
3FF8
3FF8
3C00
3C20
3C30
1FF8
0FF0
07E0
ENDCHAR
STARTCHAR 1EC2
ENCODING 7874
SWIDTH 538 0
DWIDTH 14 0
BBX 12 30 2 0
BITMAP
03E0
03F0
03F0
0060
0060
0EC0
1F00
3F80
7BC0
71C0
2080
0000
FFE0
FFE0
FFE0
E000
E000
E000
E000
FFC0
FFC0
FFC0
E000
E000
E000
E000
E000
FFE0
FFE0
FFE0
ENDCHAR
STARTCHAR 1EC3
ENCODING 7875
SWIDTH 500 0
DWIDTH 13 0
BBX 12 25 1 0
BITMAP
03F0
03F0
03F0
0070
0060
0E40
1F00
3F80
7BC0
71E0
2080
0000
1F00
7FC0
7FE0
F1E0
F0E0
FFE0
FFE0
F000
F080
F0C0
7FE0
3FC0
1F80
ENDCHAR
STARTCHAR 1EC4
ENCODING 7876
SWIDTH 538 0
DWIDTH 14 0
BBX 11 30 2 0
BITMAP
3C80
7F80
7FC0
4780
0000
0E00
1F00
3F80
7BC0
F1C0
2080
0000
FFE0
FFE0
FFE0
E000
E000
E000
E000
FFC0
FFC0
FFC0
E000
E000
E000
E000
E000
FFE0
FFE0
FFE0
ENDCHAR
STARTCHAR 1EC5
ENCODING 7877
SWIDTH 500 0
DWIDTH 13 0
BBX 11 24 1 0
BITMAP
3C80
7FC0
7FC0
2780
0000
0E00
1F00
3F80
7BC0
20A0
0000
1F00
7FC0
7FE0
F1E0
F0E0
FFE0
FFE0
F000
F080
F0C0
7FE0
3FC0
1F80
ENDCHAR
STARTCHAR 1EC6
ENCODING 7878
SWIDTH 538 0
DWIDTH 14 0
BBX 11 30 2 -5
BITMAP
0E00
1F00
3F80
7B80
71C0
2080
0000
FFE0
FFE0
FFE0
E000
E000
E000
E000
FFC0
FFC0
FFC0
E000
E000
E000
E000
E000
FFE0
FFE0
FFE0
0000
0E00
1E00
1E00
0E00
ENDCHAR
STARTCHAR 1EC7
ENCODING 7879
SWIDTH 500 0
DWIDTH 13 0
BBX 11 26 1 -5
BITMAP
0E00
1F00
3F80
3BC0
71C0
2080
0000
0000
1F00
7FC0
7FE0
F1E0
F0E0
FFE0
FFE0
F000
F080
F0C0
7FE0
3FC0
1F80
0000
0E00
0F00
0F00
0E00
ENDCHAR
STARTCHAR 1EC8
ENCODING 7880
SWIDTH 384 0
DWIDTH 10 0
BBX 8 25 1 0
BITMAP
7E
7E
7E
0E
0C
18
00
FF
FF
FF
3C
3C
3C
3C
3C
3C
3C
3C
3C
3C
3C
3C
FF
FF
FF
ENDCHAR
STARTCHAR 1EC9
ENCODING 7881
SWIDTH 269 0
DWIDTH 7 0
BBX 6 20 0 0
BITMAP
FC
FC
FC
1C
18
38
00
38
38
38
38
38
38
38
38
38
38
38
38
38
ENDCHAR
STARTCHAR 1ECA
ENCODING 7882
SWIDTH 384 0
DWIDTH 10 0
BBX 8 23 1 -5
BITMAP
FF
FF
FF
3C
3C
3C
3C
3C
3C
3C
3C
3C
3C
3C
3C
FF
FF
FF
00
1C
3C
3C
1C
ENDCHAR
STARTCHAR 1ECB
ENCODING 7883
SWIDTH 269 0
DWIDTH 7 0
BBX 5 24 1 -5
BITMAP
70
F8
F8
70
00
00
70
70
70
70
70
70
70
70
70
70
70
70
70
00
70
F0
F0
70
ENDCHAR
STARTCHAR 1ECC
ENCODING 7884
SWIDTH 653 0
DWIDTH 17 0
BBX 15 23 1 -5
BITMAP
0FC0
1FF0
3FF8
7878
783C
F03C
F01C
F01C
F01E
F01E
F01C
F01C
F03C
783C
787C
3FF8
1FF0
0FC0
0000
0380
0780
0780
0380
ENDCHAR
STARTCHAR 1ECD
ENCODING 7885
SWIDTH 500 0
DWIDTH 13 0
BBX 11 18 1 -5
BITMAP
1F00
7FC0
7FE0
F1E0
F0E0
F0E0
F0E0
F0E0
F0E0
F1E0
7FE0
7FC0
1F00
0000
0E00
0F00
0F00
0E00
ENDCHAR
STARTCHAR 1ECE
ENCODING 7886
SWIDTH 653 0
DWIDTH 17 0
BBX 15 25 1 0
BITMAP
0FC0
0FC0
0FC0
01C0
0180
0380
0000
0FC0
1FF0
3FF8
7878
783C
F03C
F01C
F01C
F01E
F01E
F01C
F01C
F03C
783C
787C
3FF8
1FF0
0FC0
ENDCHAR
STARTCHAR 1ECF
ENCODING 7887
SWIDTH 500 0
DWIDTH 13 0
BBX 11 20 1 0
BITMAP
1F00
1F80
1F80
0700
0700
0600
0000
1F00
7FC0
7FE0
F1E0
F0E0
F0E0
F0E0
F0E0
F0E0
F1E0
7FE0
7FC0
1F00
ENDCHAR
STARTCHAR 1ED0
ENCODING 7888
SWIDTH 653 0
DWIDTH 17 0
BBX 15 30 1 0
BITMAP
0008
000E
001C
001C
0038
0390
07C0
0FE0
1EF0
3C70
0820
0000
0FC0
1FF0
3FF8
7878
783C
F03C
F01C
F01C
F01E
F01E
F01C
F01C
F03C
783C
787C
3FF8
1FF0
0FC0
ENDCHAR
STARTCHAR 1ED1
ENCODING 7889
SWIDTH 500 0
DWIDTH 13 0
BBX 13 25 1 0
BITMAP
0020
0038
0078
0070
00E0
0E40
1F00
3F80
7BC0
71E0
2080
0000
1F00
7FC0
7FE0
F1E0
F0E0
F0E0
F0E0
F0E0
F0E0
F1E0
7FE0
7FC0
1F00
ENDCHAR
STARTCHAR 1ED2
ENCODING 7890
SWIDTH 653 0
DWIDTH 17 0
BBX 15 30 1 0
BITMAP
6000
E000
F000
7000
3800
1380
07C0
0FE0
1EF0
3C70
0820
0000
0FC0
1FF0
3FF8
7878
783C
F03C
F01C
F01C
F01E
F01E
F01C
F01C
F03C
783C
787C
3FF8
1FF0
0FC0
ENDCHAR
STARTCHAR 1ED3
ENCODING 7891
SWIDTH 500 0
DWIDTH 13 0
BBX 13 25 -1 0
BITMAP
2000
E000
7000
7000
3800
1380
07C0
0FE0
1EF0
1C78
0820
0000
07C0
1FF0
1FF8
3C78
3C38
3C38
3C38
3C38
3C38
3C78
1FF8
1FF0
07C0
ENDCHAR
STARTCHAR 1ED4
ENCODING 7892
SWIDTH 653 0
DWIDTH 17 0
BBX 15 30 1 0
BITMAP
00F8
00FC
00FC
0018
0018
03B0
07C0
0FE0
1EF0
3C70
0820
0000
0FC0
1FF0
3FF8
7878
783C
F03C
F01C
F01C
F01E
F01E
F01C
F01C
F03C
783C
787C
3FF8
1FF0
0FC0
ENDCHAR
STARTCHAR 1ED5
ENCODING 7893
SWIDTH 500 0
DWIDTH 13 0
BBX 12 25 1 0
BITMAP
03F0
03F0
03F0
0070
0060
0E40
1F00
3F80
7BC0
71E0
2080
0000
1F00
7FC0
7FE0
F1E0
F0E0
F0E0
F0E0
F0E0
F0E0
F1E0
7FE0
7FC0
1F00
ENDCHAR
STARTCHAR 1ED6
ENCODING 7894
SWIDTH 653 0
DWIDTH 17 0
BBX 15 30 1 0
BITMAP
0F20
1FE0
1FF0
11E0
0000
0380
07C0
0FE0
1EF0
3C70
0820
0000
0FC0
1FF0
3FF8
7878
783C
F03C
F01C
F01C
F01E
F01E
F01C
F01C
F03C
783C
787C
3FF8
1FF0
0FC0
ENDCHAR
STARTCHAR 1ED7
ENCODING 7895
SWIDTH 500 0
DWIDTH 13 0
BBX 11 24 1 0
BITMAP
3C80
7FC0
7FC0
2780
0000
0E00
1F00
3F80
7BC0
20A0
0000
1F00
7FC0
7FE0
F1E0
F0E0
F0E0
F0E0
F0E0
F0E0
F1E0
7FE0
7FC0
1F00
ENDCHAR
STARTCHAR 1ED8
ENCODING 7896
SWIDTH 653 0
DWIDTH 17 0
BBX 15 30 1 -5
BITMAP
0380
07C0
0FE0
1EE0
1C70
0820
0000
0FC0
1FF0
3FF8
7878
783C
F03C
F01C
F01C
F01E
F01E
F01C
F01C
F03C
783C
787C
3FF8
1FF0
0FC0
0000
0380
0780
0780
0380
ENDCHAR
STARTCHAR 1ED9
ENCODING 7897
SWIDTH 500 0
DWIDTH 13 0
BBX 11 26 1 -5
BITMAP
0E00
1F00
3F80
3BC0
71C0
2080
0000
0000
1F00
7FC0
7FE0
F1E0
F0E0
F0E0
F0E0
F0E0
F0E0
F1E0
7FE0
7FC0
1F00
0000
0E00
0F00
0F00
0E00
ENDCHAR
STARTCHAR 1EDA
ENCODING 7898
SWIDTH 653 0
DWIDTH 17 0
BBX 15 25 1 0
BITMAP
0080
01E0
01C0
03C0
038E
010E
000E
0FFE
1FFE
3FE0
7878
783C
F03C
F01C
F01C
F01E
F01E
F01C
F01C
F03C
783C
7878
3FF8
1FF0
0FC0
ENDCHAR
STARTCHAR 1EDB
ENCODING 7899
SWIDTH 500 0
DWIDTH 13 0
BBX 12 21 1 0
BITMAP
0300
0780
0780
0700
0E00
0470
0070
0070
1FF0
7FF0
7F80
F1E0
F0E0
F0E0
F0E0
F0E0
F0E0
F1E0
7FE0
7FC0
1F00
ENDCHAR
STARTCHAR 1EDC
ENCODING 7900
SWIDTH 653 0
DWIDTH 17 0
BBX 15 25 1 0
BITMAP
0200
0E00
0F00
0700
038E
010E
000E
0FFE
1FFE
3FE0
7878
783C
F03C
F01C
F01C
F01E
F01E
F01C
F01C
F03C
783C
7878
3FF8
1FF0
0FC0
ENDCHAR
STARTCHAR 1EDD
ENCODING 7901
SWIDTH 500 0
DWIDTH 13 0
BBX 12 21 1 0
BITMAP
0800
3C00
1C00
1E00
0E00
0470
0070
0070
1FF0
7FF0
7F80
F1E0
F0E0
F0E0
F0E0
F0E0
F0E0
F1E0
7FE0
7FC0
1F00
ENDCHAR
STARTCHAR 1EDE
ENCODING 7902
SWIDTH 653 0
DWIDTH 17 0
BBX 15 25 1 0
BITMAP
0FC0
0FC0
0FC0
01C0
018E
038E
000E
0FFE
1FFE
3FE0
7878
783C
F03C
F01C
F01C
F01E
F01E
F01C
F01C
F03C
783C
7878
3FF8
1FF0
0FC0
ENDCHAR
STARTCHAR 1EDF
ENCODING 7903
SWIDTH 500 0
DWIDTH 13 0
BBX 12 20 1 0
BITMAP
1F00
1F80
1F80
0700
0770
0670
0070
1FF0
7FF0
7F80
F1E0
F0E0
F0E0
F0E0
F0E0
F0E0
F1E0
7FE0
7FC0
1F00
ENDCHAR
STARTCHAR 1EE0
ENCODING 7904
SWIDTH 653 0
DWIDTH 17 0
BBX 15 24 1 0
BITMAP
0E40
0FE0
0FE0
09CE
000E
000E
0FFE
1FFE
3FE0
7878
783C
F03C
F01C
F01C
F01E
F01E
F01C
F01C
F03C
783C
7878
3FF8
1FF0
0FC0
ENDCHAR
STARTCHAR 1EE1
ENCODING 7905
SWIDTH 500 0
DWIDTH 13 0
BBX 12 20 1 0
BITMAP
3900
3F80
7F80
2700
0070
0070
0070
1FF0
7FF0
7F80
F1E0
F0E0
F0E0
F0E0
F0E0
F0E0
F1E0
7FE0
7FC0
1F00
ENDCHAR
STARTCHAR 1EE2
ENCODING 7906
SWIDTH 653 0
DWIDTH 17 0
BBX 15 26 1 -5
BITMAP
000E
000E
000E
0FFE
1FFE
3FE0
7878
783C
F03C
F01C
F01C
F01E
F01E
F01C
F01C
F03C
783C
7878
3FF8
1FF0
0FC0
0000
0380
0780
0780
0380
ENDCHAR
STARTCHAR 1EE3
ENCODING 7907
SWIDTH 500 0
DWIDTH 13 0
BBX 12 21 1 -5
BITMAP
0070
0070
0070
1FF0
7FF0
7F80
F1E0
F0E0
F0E0
F0E0
F0E0
F0E0
F1E0
7FE0
7FC0
1F00
0000
0E00
0F00
0F00
0E00
ENDCHAR
STARTCHAR 1EE4
ENCODING 7908
SWIDTH 615 0
DWIDTH 16 0
BBX 13 23 2 -5
BITMAP
E078
E078
E078
E078
E078
E078
E078
E078
E078
E078
E078
E078
E078
F078
F0F0
FFF0
7FE0
1FC0
0000
0700
0F00
0F00
0700
ENDCHAR
STARTCHAR 1EE5
ENCODING 7909
SWIDTH 538 0
DWIDTH 14 0
BBX 11 18 1 -5
BITMAP
F0E0
F0E0
F0E0
F0E0
F0E0
F0E0
F0E0
F0E0
F0E0
F9E0
7EE0
7EE0
3CE0
0000
0F00
0F00
0F00
0F00
ENDCHAR
STARTCHAR 1EE6
ENCODING 7910
SWIDTH 615 0
DWIDTH 16 0
BBX 13 25 2 0
BITMAP
1F80
1F80
1F80
0380
0300
0600
0000
E078
E078
E078
E078
E078
E078
E078
E078
E078
E078
E078
E078
E078
F078
F0F0
FFF0
7FE0
1FC0
ENDCHAR
STARTCHAR 1EE7
ENCODING 7911
SWIDTH 538 0
DWIDTH 14 0
BBX 11 20 1 0
BITMAP
1F00
1F80
1F80
0380
0700
0200
0000
F0E0
F0E0
F0E0
F0E0
F0E0
F0E0
F0E0
F0E0
F0E0
F9E0
7EE0
7EE0
3CE0
ENDCHAR
STARTCHAR 1EE8
ENCODING 7912
SWIDTH 653 0
DWIDTH 17 0
BBX 15 25 2 0
BITMAP
0100
03C0
0380
0700
070E
0E0E
000E
E07E
E07C
E078
E078
E078
E078
E078
E078
E078
E078
E078
E078
E078
F078
F0F0
FFF0
7FE0
1FC0
ENDCHAR
STARTCHAR 1EE9
ENCODING 7913
SWIDTH 538 0
DWIDTH 14 0
BBX 14 21 1 0
BITMAP
0300
03C0
0780
0700
0E00
061C
001C
001C
F0F8
F0F8
F0E0
F0E0
F0E0
F0E0
F0E0
F0E0
F0E0
F9E0
7EE0
7EE0
3CE0
ENDCHAR
STARTCHAR 1EEA
ENCODING 7914
SWIDTH 653 0
DWIDTH 17 0
BBX 15 25 2 0
BITMAP
0C00
3C00
1E00
0E00
070E
060E
000E
E07E
E07C
E078
E078
E078
E078
E078
E078
E078
E078
E078
E078
E078
F078
F0F0
FFF0
7FE0
1FC0
ENDCHAR
STARTCHAR 1EEB
ENCODING 7915
SWIDTH 538 0
DWIDTH 14 0
BBX 14 21 1 0
BITMAP
0C00
3C00
1E00
0E00
0E00
071C
001C
001C
F0F8
F0F8
F0E0
F0E0
F0E0
F0E0
F0E0
F0E0
F0E0
F9E0
7EE0
7EE0
3CE0
ENDCHAR
STARTCHAR 1EEC
ENCODING 7916
SWIDTH 653 0
DWIDTH 17 0
BBX 15 25 2 0
BITMAP
1F80
1F80
1F80
0380
030E
060E
000E
E07E
E07C
E078
E078
E078
E078
E078
E078
E078
E078
E078
E078
E078
F078
F0F0
FFF0
7FE0
1FC0
ENDCHAR
STARTCHAR 1EED
ENCODING 7917
SWIDTH 538 0
DWIDTH 14 0
BBX 14 20 1 0
BITMAP
1F00
1F80
1F80
0380
071C
021C
001C
F0F8
F0F8
F0E0
F0E0
F0E0
F0E0
F0E0
F0E0
F0E0
F9E0
7EE0
7EE0
3CE0
ENDCHAR
STARTCHAR 1EEE
ENCODING 7918
SWIDTH 653 0
DWIDTH 17 0
BBX 15 24 2 0
BITMAP
1C80
1FC0
3FC0
138E
000E
000E
E07E
E07C
E078
E078
E078
E078
E078
E078
E078
E078
E078
E078
E078
F078
F0F0
FFF0
7FE0
1FC0
ENDCHAR
STARTCHAR 1EEF
ENCODING 7919
SWIDTH 538 0
DWIDTH 14 0
BBX 14 20 1 0
BITMAP
1C80
3F80
1FC0
1380
001C
001C
001C
F0F8
F0F8
F0E0
F0E0
F0E0
F0E0
F0E0
F0E0
F0E0
F9E0
7EE0
7EE0
3CE0
ENDCHAR
STARTCHAR 1EF0
ENCODING 7920
SWIDTH 653 0
DWIDTH 17 0
BBX 15 26 2 -5
BITMAP
000E
000E
000E
E07E
E07C
E078
E078
E078
E078
E078
E078
E078
E078
E078
E078
E078
F078
F0F0
FFF0
7FE0
1FC0
0000
0700
0F00
0F00
0700
ENDCHAR
STARTCHAR 1EF1
ENCODING 7921
SWIDTH 538 0
DWIDTH 14 0
BBX 14 21 1 -5
BITMAP
001C
001C
001C
F0F8
F0F8
F0E0
F0E0
F0E0
F0E0
F0E0
F0E0
F0E0
F9E0
7EE0
7EE0
3CE0
0000
0F00
0F00
0F00
0F00
ENDCHAR
STARTCHAR 1EF2
ENCODING 7922
SWIDTH 576 0
DWIDTH 15 0
BBX 15 25 0 0
BITMAP
0200
0F00
0700
0780
0380
0100
0000
F01E
783C
783C
3C78
3C78
1E70
1EF0
0FE0
0FE0
07C0
07C0
0380
0380
0380
0380
0380
0380
0380
ENDCHAR
STARTCHAR 1EF3
ENCODING 7923
SWIDTH 500 0
DWIDTH 13 0
BBX 13 26 0 -5
BITMAP
0C00
1E00
0E00
0F00
0700
0200
0000
0000
F078
7070
78F0
78F0
38E0
38E0
3DE0
1DC0
1DC0
1DC0
0F80
0F80
0F80
0700
0F00
7F00
7E00
7C00
ENDCHAR
STARTCHAR 1EF4
ENCODING 7924
SWIDTH 576 0
DWIDTH 15 0
BBX 15 23 0 -5
BITMAP
F01E
783C
783C
3C78
3C78
1E70
1EF0
0FE0
0FE0
07C0
07C0
0380
0380
0380
0380
0380
0380
0380
0000
0380
0380
03C0
0380
ENDCHAR
STARTCHAR 1EF5
ENCODING 7925
SWIDTH 500 0
DWIDTH 13 0
BBX 13 18 0 -5
BITMAP
F078
7070
78F0
78F0
38E0
38E0
3DE0
1DC0
1DC0
1DC0
0F80
0F80
0F80
0700
0F70
7FF0
7EF0
7C70
ENDCHAR
STARTCHAR 1EF6
ENCODING 7926
SWIDTH 576 0
DWIDTH 15 0
BBX 15 25 0 0
BITMAP
07C0
07E0
07E0
01C0
01C0
0180
0000
F01E
783C
783C
3C78
3C78
1E70
1EF0
0FE0
0FE0
07C0
07C0
0380
0380
0380
0380
0380
0380
0380
ENDCHAR
STARTCHAR 1EF7
ENCODING 7927
SWIDTH 500 0
DWIDTH 13 0
BBX 13 25 0 -5
BITMAP
0F80
0F80
0FC0
0380
0300
0700
0000
F078
7070
78F0
78F0
38E0
38E0
3DE0
1DC0
1DC0
1DC0
0F80
0F80
0F80
0700
0F00
7F00
7E00
7C00
ENDCHAR
STARTCHAR 1EF8
ENCODING 7928
SWIDTH 576 0
DWIDTH 15 0
BBX 15 24 0 0
BITMAP
0F20
1FF0
1FF0
09E0
0000
0000
F01E
783C
783C
3C78
3C78
1E70
1EF0
0FE0
0FE0
07C0
07C0
0380
0380
0380
0380
0380
0380
0380
ENDCHAR
STARTCHAR 1EF9
ENCODING 7929
SWIDTH 500 0
DWIDTH 13 0
BBX 13 25 0 -5
BITMAP
1E40
3FE0
3FE0
13C0
0000
0000
0000
F078
7070
78F0
78F0
38E0
38E0
3DE0
1DC0
1DC0
1DC0
0F80
0F80
0F80
0700
0F00
7F00
7E00
7C00
ENDCHAR
STARTCHAR 2013
ENCODING 8211
SWIDTH 538 0
DWIDTH 14 0
BBX 12 3 1 6
BITMAP
FFF0
FFF0
FFF0
ENDCHAR
STARTCHAR 2014
ENCODING 8212
SWIDTH 692 0
DWIDTH 18 0
BBX 16 3 1 6
BITMAP
FFFF
FFFF
FFFF
ENDCHAR
STARTCHAR 2018
ENCODING 8216
SWIDTH 269 0
DWIDTH 7 0
BBX 4 8 2 11
BITMAP
30
60
E0
C0
E0
F0
F0
E0
ENDCHAR
STARTCHAR 2019
ENCODING 8217
SWIDTH 269 0
DWIDTH 7 0
BBX 5 8 1 11
BITMAP
70
78
78
78
38
30
70
E0
ENDCHAR
STARTCHAR 201A
ENCODING 8218
SWIDTH 269 0
DWIDTH 7 0
BBX 5 8 1 -3
BITMAP
70
78
78
78
38
30
70
E0
ENDCHAR
STARTCHAR 201C
ENCODING 8220
SWIDTH 500 0
DWIDTH 13 0
BBX 10 8 2 11
BITMAP
31C0
6380
E300
C700
E780
F780
F780
E380
ENDCHAR
STARTCHAR 201D
ENCODING 8221
SWIDTH 500 0
DWIDTH 13 0
BBX 10 8 1 11
BITMAP
71C0
7BC0
7BC0
79C0
38C0
31C0
7180
E300
ENDCHAR
STARTCHAR 201E
ENCODING 8222
SWIDTH 500 0
DWIDTH 13 0
BBX 10 8 1 -3
BITMAP
71C0
7BC0
7BC0
79C0
38C0
31C0
7180
E300
ENDCHAR
STARTCHAR 2020
ENCODING 8224
SWIDTH 461 0
DWIDTH 12 0
BBX 11 24 1 -5
BITMAP
0E00
0E00
0E00
0E00
0E00
0E00
FFE0
FFE0
0E00
0E00
0E00
0E00
0E00
0E00
0E00
0E00
0E00
0E00
0E00
0E00
0E00
0E00
0E00
0E00
ENDCHAR
STARTCHAR 2021
ENCODING 8225
SWIDTH 461 0
DWIDTH 12 0
BBX 11 24 1 -5
BITMAP
0E00
0E00
0E00
0E00
0E00
0E00
FFE0
FFE0
0E00
0E00
0E00
0E00
0E00
0E00
0E00
0E00
FFE0
FFE0
0E00
0E00
0E00
0E00
0E00
0E00
ENDCHAR
STARTCHAR 2022
ENCODING 8226
SWIDTH 384 0
DWIDTH 10 0
BBX 8 7 1 4
BITMAP
3C
7E
FF
FF
FF
7E
3E
ENDCHAR
STARTCHAR 2026
ENCODING 8230
SWIDTH 807 0
DWIDTH 21 0
BBX 18 4 2 0
BITMAP
E1C380
F3E7C0
F3E7C0
E1C380
ENDCHAR
STARTCHAR 2030
ENCODING 8240
SWIDTH 1269 0
DWIDTH 33 0
BBX 30 18 1 0
BITMAP
3E03C000
7F038000
77070000
E38F0000
E38E0000
E39C0000
E3BC0000
67380000
7F73E0F0
3E77F1FC
00E7739C
01CE3B9C
01CE3B9C
038E3B9C
078E3B9C
0707739C
0E07F1FC
1E03E0F0
ENDCHAR
STARTCHAR 2032
ENCODING 8242
SWIDTH 230 0
DWIDTH 6 0
BBX 5 9 1 9
BITMAP
78
70
70
70
F0
F0
F0
E0
E0
ENDCHAR
STARTCHAR 2033
ENCODING 8243
SWIDTH 461 0
DWIDTH 12 0
BBX 10 9 1 9
BITMAP
79C0
73C0
73C0
7380
F380
F380
F380
E780
E780
ENDCHAR
STARTCHAR 2039
ENCODING 8249
SWIDTH 269 0
DWIDTH 7 0
BBX 5 10 1 2
BITMAP
10
38
78
F0
E0
E0
F0
78
38
18
ENDCHAR
STARTCHAR 203A
ENCODING 8250
SWIDTH 269 0
DWIDTH 7 0
BBX 6 10 1 2
BITMAP
40
60
F0
78
3C
1C
3C
78
F0
40
ENDCHAR
STARTCHAR 2044
ENCODING 8260
SWIDTH 115 0
DWIDTH 3 0
BBX 15 18 -6 0
BITMAP
000E
001C
0018
0038
0070
0060
00E0
0000
0000
0000
0000
0E00
1C00
1800
3800
7000
6000
E000
ENDCHAR
STARTCHAR 2070
ENCODING 8304
SWIDTH 307 0
DWIDTH 8 0
BBX 8 9 0 9
BITMAP
3C
7E
67
E7
E7
E7
67
7E
3C
ENDCHAR
STARTCHAR 2074
ENCODING 8308
SWIDTH 307 0
DWIDTH 8 0
BBX 8 9 0 9
BITMAP
1E
1E
3E
6E
6E
FF
FF
0E
0E
ENDCHAR
STARTCHAR 2075
ENCODING 8309
SWIDTH 307 0
DWIDTH 8 0
BBX 8 9 0 9
BITMAP
7E
7E
60
6E
7F
27
27
FE
3C
ENDCHAR
STARTCHAR 2076
ENCODING 8310
SWIDTH 307 0
DWIDTH 8 0
BBX 8 9 0 9
BITMAP
1E
38
70
6E
7F
E7
67
7E
3C
ENDCHAR
STARTCHAR 2077
ENCODING 8311
SWIDTH 307 0
DWIDTH 8 0
BBX 7 9 1 9
BITMAP
FE
FE
CE
CC
1C
18
38
38
70
ENDCHAR
STARTCHAR 2078
ENCODING 8312
SWIDTH 307 0
DWIDTH 8 0
BBX 7 9 1 9
BITMAP
7C
FC
CC
7C
FC
CE
CE
FC
7C
ENDCHAR
STARTCHAR 2079
ENCODING 8313
SWIDTH 307 0
DWIDTH 8 0
BBX 8 9 0 9
BITMAP
3C
7E
67
E7
7F
76
0E
1C
78
ENDCHAR
STARTCHAR 2080
ENCODING 8320
SWIDTH 307 0
DWIDTH 8 0
BBX 8 9 0 0
BITMAP
3C
7E
67
E7
E7
E7
67
7E
3C
ENDCHAR
STARTCHAR 2081
ENCODING 8321
SWIDTH 307 0
DWIDTH 8 0
BBX 7 9 1 0
BITMAP
78
F8
F8
B8
38
38
38
FE
FE
ENDCHAR
STARTCHAR 2082
ENCODING 8322
SWIDTH 307 0
DWIDTH 8 0
BBX 8 9 0 0
BITMAP
3C
7E
E6
06
0E
3C
70
7F
7F
ENDCHAR
STARTCHAR 2083
ENCODING 8323
SWIDTH 307 0
DWIDTH 8 0
BBX 7 9 0 0
BITMAP
3C
7E
E6
1C
1E
06
66
FE
3C
ENDCHAR
STARTCHAR 2084
ENCODING 8324
SWIDTH 307 0
DWIDTH 8 0
BBX 8 9 0 0
BITMAP
1E
1E
3E
6E
6E
FF
FF
0E
0E
ENDCHAR
STARTCHAR 2085
ENCODING 8325
SWIDTH 307 0
DWIDTH 8 0
BBX 8 9 0 0
BITMAP
7E
7E
60
6E
7F
27
27
FE
3C
ENDCHAR
STARTCHAR 2086
ENCODING 8326
SWIDTH 307 0
DWIDTH 8 0
BBX 8 9 0 0
BITMAP
1E
38
70
6E
7F
E7
67
7E
3C
ENDCHAR
STARTCHAR 2087
ENCODING 8327
SWIDTH 307 0
DWIDTH 8 0
BBX 7 9 1 0
BITMAP
FE
FE
CE
CC
1C
18
38
38
70
ENDCHAR
STARTCHAR 2088
ENCODING 8328
SWIDTH 307 0
DWIDTH 8 0
BBX 7 9 1 0
BITMAP
7C
FC
CC
7C
FC
CE
CE
FC
7C
ENDCHAR
STARTCHAR 2089
ENCODING 8329
SWIDTH 307 0
DWIDTH 8 0
BBX 8 9 0 0
BITMAP
3C
7E
67
E7
7F
76
0E
1C
78
ENDCHAR
STARTCHAR 20A1
ENCODING 8353
SWIDTH 576 0
DWIDTH 15 0
BBX 13 22 1 -2
BITMAP
0240
0240
02C0
0FC0
1FF0
3FF8
7EF8
76A0
F680
F680
F480
F480
F580
F580
75B0
7DF8
3FF8
1FF0
0FC0
0D00
0D00
0900
ENDCHAR
STARTCHAR 20A4
ENCODING 8356
SWIDTH 538 0
DWIDTH 14 0
BBX 12 18 1 0
BITMAP
0FC0
3FE0
7FF0
7860
7840
7800
FF80
FF80
3800
3800
FF80
FF80
3C00
3800
7000
7FF0
7FF0
7FF0
ENDCHAR
STARTCHAR 20A6
ENCODING 8358
SWIDTH 692 0
DWIDTH 18 0
BBX 18 18 0 0
BITMAP
3E0700
3E0700
3F0700
3F0700
3F8700
3F8700
FFFFC0
FDFFC0
3DE700
3CE700
FFF7C0
FFF7C0
3C7F00
3C3F00
3C3F00
3C1F00
3C1F00
3C0F00
ENDCHAR
STARTCHAR 20A8
ENCODING 8360
SWIDTH 807 0
DWIDTH 21 0
BBX 18 18 2 0
BITMAP
FF0000
FF8000
FFC000
E3C000
E1C000
E1C7C0
E1CFC0
E3DFC0
FFDE00
FF9E00
FF8F00
E38F80
E3C7C0
E1E3C0
E1F1C0
E0FFC0
E07F80
E03F00
ENDCHAR
STARTCHAR 20A9
ENCODING 8361
SWIDTH 923 0
DWIDTH 24 0
BBX 22 18 1 0
BITMAP
F0783C
F0783C
707C38
70FC38
78FC38
78FC78
FFEFFC
FFCFFC
39CE70
3DCE70
FDFE7C
FDFFFC
1D87E0
1D87E0
1F87E0
1F87E0
0F03C0
0F03C0
ENDCHAR
STARTCHAR 20AA
ENCODING 8362
SWIDTH 846 0
DWIDTH 22 0
BBX 18 18 2 0
BITMAP
FFE1C0
FFF1C0
FFF9C0
E039C0
E039C0
E739C0
E739C0
E739C0
E739C0
E739C0
E739C0
E739C0
E739C0
E701C0
E703C0
E7FFC0
E7FF80
E7FF00
ENDCHAR
STARTCHAR 20AB
ENCODING 8363
SWIDTH 538 0
DWIDTH 14 0
BBX 12 19 1 0
BITMAP
01C0
01C0
0FF0
0FF0
01C0
39C0
7DC0
FFC0
F1C0
E1C0
E1C0
F1C0
FFC0
7DC0
39C0
0000
FFE0
FFE0
FFE0
ENDCHAR
STARTCHAR 20AC
ENCODING 8364
SWIDTH 576 0
DWIDTH 15 0
BBX 13 18 1 0
BITMAP
0FC0
1FF0
3FF8
7870
7020
F000
FFC0
FFC0
F000
F000
FFC0
FFC0
F000
7020
7870
3FF8
1FF0
0FC0
ENDCHAR
STARTCHAR 20AD
ENCODING 8365
SWIDTH 615 0
DWIDTH 16 0
BBX 16 18 0 0
BITMAP
3C1E
3C3C
3C3C
3C78
3CF0
3CF0
3DE0
FFFE
FFFE
FFFE
3DE0
3CF0
3CF0
3C78
3C7C
3C3C
3C1E
3C1F
ENDCHAR
STARTCHAR 20AE
ENCODING 8366
SWIDTH 538 0
DWIDTH 14 0
BBX 12 18 1 0
BITMAP
FFF0
FFF0
FFF0
0F00
0F00
0F60
0FE0
0FC0
1F00
7F60
7FE0
4F80
1F00
7F00
6F00
8F00
0F00
0F00
ENDCHAR
STARTCHAR 20B1
ENCODING 8369
SWIDTH 653 0
DWIDTH 17 0
BBX 16 18 0 0
BITMAP
3FF0
3FF8
3FF8
3C3C
FFFF
FFFF
3C3C
3C3C
FFFF
FFFF
3C3C
3FF8
3FF8
3FF0
3C00
3C00
3C00
3C00
ENDCHAR
STARTCHAR 20B2
ENCODING 8370
SWIDTH 615 0
DWIDTH 16 0
BBX 13 22 1 -2
BITMAP
01C0
01C0
01C0
0FC0
3FF0
3FF8
7BF0
7320
F300
F300
F3F8
F3F8
F7F8
F638
7638
7E78
3FF8
1FF0
0FC0
0E00
0E00
0C00
ENDCHAR
STARTCHAR 20B4
ENCODING 8372
SWIDTH 576 0
DWIDTH 15 0
BBX 14 18 1 0
BITMAP
0FC0
3FE0
3FF0
18F0
00F0
00F0
FFFC
FFFC
03C0
0F00
FFFC
FFFC
3800
7800
7860
3FF0
3FE0
0F80
ENDCHAR
STARTCHAR 20B5
ENCODING 8373
SWIDTH 538 0
DWIDTH 14 0
BBX 13 22 1 -2
BITMAP
01C0
01C0
01C0
0FC0
3FE0
7FF0
7BF0
73C0
F300
F300
F300
F700
F700
F600
7620
7E70
3FF8
3FE0
0FC0
0E00
0E00
0C00
ENDCHAR
STARTCHAR 20B8
ENCODING 8376
SWIDTH 538 0
DWIDTH 14 0
BBX 12 18 1 0
BITMAP
FFF0
FFF0
FFF0
0000
0000
FFF0
FFF0
FFF0
0F00
0F00
0F00
0F00
0F00
0F00
0F00
0F00
0F00
0F00
ENDCHAR
STARTCHAR 20B9
ENCODING 8377
SWIDTH 576 0
DWIDTH 15 0
BBX 13 18 1 0
BITMAP
FFF8
FFF8
FFF8
0300
0380
FFF8
FFF8
03C0
03C0
FF80
FF80
FE00
1E00
0F00
0780
0780
03C0
03E0
ENDCHAR
STARTCHAR 20BA
ENCODING 8378
SWIDTH 538 0
DWIDTH 14 0
BBX 14 18 0 0
BITMAP
3C00
3C00
3C00
3CC0
3FC0
3F00
3C40
FDC0
FFC0
3F00
7C00
FC3C
FC3C
3C3C
3C78
3FF8
3FF0
3FE0
ENDCHAR
STARTCHAR 20BD
ENCODING 8381
SWIDTH 615 0
DWIDTH 16 0
BBX 15 18 0 0
BITMAP
3FF0
3FFC
3FFC
3C1C
3C1E
3C1E
3C1E
3C1E
FFFC
FFFC
FFF0
3C00
3C00
FFE0
FFE0
3C00
3C00
3C00
ENDCHAR
STARTCHAR 20BF
ENCODING 8383
SWIDTH 615 0
DWIDTH 16 0
BBX 13 22 2 -2
BITMAP
3B80
3B80
3B80
FFC0
FFF0
FFF0
E0F0
E070
E0F0
FFE0
FFC0
FFF0
E070
E078
E078
E078
FFF0
FFF0
FFE0
3B80
3B80
3B80
ENDCHAR
STARTCHAR 2113
ENCODING 8467
SWIDTH 500 0
DWIDTH 13 0
BBX 13 19 0 0
BITMAP
0780
0FE0
1FE0
1CE0
1CE0
1CE0
1CE0
1CE0
1DC0
1FC0
1F80
1F00
7E00
FC40
7C70
5C78
1FF0
0FE0
07C0
ENDCHAR
STARTCHAR 2116
ENCODING 8470
SWIDTH 961 0
DWIDTH 25 0
BBX 22 18 2 0
BITMAP
F078F0
F079F8
F87B9C
F87B9C
FC7B9C
FC7B9C
EE79F8
EE78F0
EE7800
E77800
E77BFC
E3FBFC
E3F800
E1F800
E1F800
E1F800
E0F800
E0F800
ENDCHAR
STARTCHAR 2122
ENCODING 8482
SWIDTH 538 0
DWIDTH 14 0
BBX 12 7 1 11
BITMAP
FF30
6770
67D0
66D0
66F0
66B0
6630
ENDCHAR
STARTCHAR 2126
ENCODING 8486
SWIDTH 653 0
DWIDTH 17 0
BBX 15 18 1 0
BITMAP
0FC0
1FF0
3FF8
787C
703C
F01C
F01C
F01E
F01E
F01C
703C
783C
7878
3CF0
0CE0
FCFE
FCFE
FCFE
ENDCHAR
STARTCHAR 212E
ENCODING 8494
SWIDTH 653 0
DWIDTH 17 0
BBX 15 18 1 0
BITMAP
0FC0
1830
3018
701C
F01C
F01E
F01E
F01E
FFFE
F000
F000
F000
F000
F004
700C
3018
1830
07C0
ENDCHAR
STARTCHAR 2150
ENCODING 8528
SWIDTH 769 0
DWIDTH 20 0
BBX 18 18 1 0
BITMAP
780380
F80700
F80E00
B80C00
381C00
383800
383000
FE4000
FE0000
000FC0
000FC0
038CC0
070DC0
0E01C0
0C0180
1C0380
380300
700700
ENDCHAR
STARTCHAR 2151
ENCODING 8529
SWIDTH 769 0
DWIDTH 20 0
BBX 18 18 1 0
BITMAP
780380
F80700
F80E00
B80C00
381C00
383800
383000
FE4000
FE0000
000F80
001FC0
039CC0
071CC0
0E1FC0
0C0FC0
1C0180
380380
701F00
ENDCHAR
STARTCHAR 2153
ENCODING 8531
SWIDTH 769 0
DWIDTH 20 0
BBX 18 18 1 0
BITMAP
780380
F80700
F80E00
B80C00
381C00
383800
383000
FE4000
FE0000
000F80
001FC0
0389C0
070780
0E0780
0C01C0
1C09C0
381FC0
700F80
ENDCHAR
STARTCHAR 2154
ENCODING 8532
SWIDTH 769 0
DWIDTH 20 0
BBX 19 18 0 0
BITMAP
3C0380
7E0300
E60700
060E00
0E0C00
3C1C00
703800
7F0000
7F0000
0007C0
000FE0
01C4E0
0383C0
0703C0
0600E0
0E0CE0
1C0FE0
3807C0
ENDCHAR
STARTCHAR 2155
ENCODING 8533
SWIDTH 769 0
DWIDTH 20 0
BBX 19 18 1 0
BITMAP
780380
F80700
F80E00
B80C00
381C00
383800
383000
FE4000
FE0000
000FC0
000FC0
038C00
070FC0
0E0BC0
0C04E0
1C08C0
381FC0
700780
ENDCHAR
STARTCHAR 2156
ENCODING 8534
SWIDTH 769 0
DWIDTH 20 0
BBX 19 18 0 0
BITMAP
3C0380
7E0300
E60700
060E00
0E0C00
3C1C00
703800
7F0000
7F0000
0007E0
0007E0
01C600
038DC0
070DE0
060260
0E0460
1C0FE0
3807C0
ENDCHAR
STARTCHAR 2157
ENCODING 8535
SWIDTH 769 0
DWIDTH 20 0
BBX 19 18 0 0
BITMAP
3C0380
7E0300
E60700
1C0E00
1E0C00
061C00
663800
FE0000
3C0000
0007E0
0007E0
018C00
030DC0
070DE0
060660
0C0460
1C0FE0
3807C0
ENDCHAR
STARTCHAR 2158
ENCODING 8536
SWIDTH 769 0
DWIDTH 20 0
BBX 19 18 0 0
BITMAP
1E0380
1E0300
3E0700
6E0E00
6E0C00
FF1C00
FF3800
0E0000
0E0000
0007E0
0007E0
01C600
038DC0
070DE0
060260
0E0460
1C0FE0
3807C0
ENDCHAR
STARTCHAR 2159
ENCODING 8537
SWIDTH 730 0
DWIDTH 19 0
BBX 18 18 1 0
BITMAP
780380
F80700
F80E00
B80C00
381C00
383800
383000
FE4000
FE0000
000780
000E00
039C00
071B80
0E3F80
0C39C0
1C3980
383F80
701F00
ENDCHAR
STARTCHAR 215A
ENCODING 8538
SWIDTH 730 0
DWIDTH 19 0
BBX 18 18 0 0
BITMAP
7E0380
7E0300
600700
6E0E00
7F0C00
271C00
273800
FE0000
3C0000
0007C0
000F00
018E00
031F80
071BC0
061CC0
0C1CC0
1C1FC0
380F80
ENDCHAR
STARTCHAR 215B
ENCODING 8539
SWIDTH 769 0
DWIDTH 20 0
BBX 18 18 1 0
BITMAP
780380
F80700
F80E00
B80C00
381C00
383800
383000
FE4000
FE0000
000F80
001FC0
0399C0
070F80
0E0F80
0C1DC0
1C1DC0
381FC0
700F80
ENDCHAR
STARTCHAR 215C
ENCODING 8540
SWIDTH 730 0
DWIDTH 19 0
BBX 19 18 0 0
BITMAP
3C0380
7E0300
E60700
1C0E00
1E0C00
061C00
663800
FE0000
3C0000
0007C0
000FC0
018CC0
0307C0
070FC0
060CE0
0C0CE0
1C0FE0
380780
ENDCHAR
STARTCHAR 215D
ENCODING 8541
SWIDTH 730 0
DWIDTH 19 0
BBX 19 18 0 0
BITMAP
7E0380
7E0300
600700
6E0E00
7F0C00
271C00
273800
FE0000
3C0000
0007C0
000FC0
018CC0
0307C0
070FC0
060CE0
0C0CE0
1C0FE0
380780
ENDCHAR
STARTCHAR 215E
ENCODING 8542
SWIDTH 730 0
DWIDTH 19 0
BBX 17 18 1 0
BITMAP
FE0700
FE0E00
CE0C00
CC1C00
1C3800
183000
387000
380000
300000
401F00
001F80
073980
0E1F00
0C1F80
1C3980
383980
301F80
700F00
ENDCHAR
STARTCHAR 2190
ENCODING 8592
SWIDTH 807 0
DWIDTH 21 0
BBX 19 13 1 3
BITMAP
040000
060000
0F0000
1E0000
3C0000
7FFFE0
FFFFE0
7FFFE0
3C0000
1E0000
0F0000
060000
040000
ENDCHAR
STARTCHAR 2191
ENCODING 8593
SWIDTH 807 0
DWIDTH 21 0
BBX 12 18 5 0
BITMAP
0400
0E00
1F00
3F80
7FC0
FEE0
EEF0
4E40
0E00
0E00
0E00
0E00
0E00
0E00
0E00
0E00
0E00
0E00
ENDCHAR
STARTCHAR 2192
ENCODING 8594
SWIDTH 807 0
DWIDTH 21 0
BBX 18 13 2 3
BITMAP
001000
001800
003C00
001E00
000F00
FFFF80
FFFFC0
FFFF80
000F00
001E00
003C00
001800
001000
ENDCHAR
STARTCHAR 2193
ENCODING 8595
SWIDTH 807 0
DWIDTH 21 0
BBX 12 18 5 0
BITMAP
0E00
0E00
0E00
0E00
0E00
0E00
0E00
0E00
0E00
0E00
4E40
EEE0
FEF0
7FC0
3F80
1F00
0E00
0400
ENDCHAR
STARTCHAR 2194
ENCODING 8596
SWIDTH 807 0
DWIDTH 21 0
BBX 19 13 1 3
BITMAP
040800
060C00
0F1E00
1E0F00
3C0780
7FFFC0
FFFFE0
7FFFC0
3C0780
1E0F00
0F1E00
060C00
040800
ENDCHAR
STARTCHAR 2195
ENCODING 8597
SWIDTH 807 0
DWIDTH 21 0
BBX 12 18 5 0
BITMAP
0400
0E00
1F00
3F80
7FC0
FEE0
EE70
4E40
0E00
0E00
4E40
EE60
FEF0
7FC0
3F80
1F00
0E00
0400
ENDCHAR
STARTCHAR 2196
ENCODING 8598
SWIDTH 807 0
DWIDTH 21 0
BBX 14 14 4 2
BITMAP
FF00
FF00
FF00
F800
DC00
DE00
EF00
E780
E3C0
01E0
00F0
0078
003C
0018
ENDCHAR
STARTCHAR 2197
ENCODING 8599
SWIDTH 807 0
DWIDTH 21 0
BBX 14 14 3 2
BITMAP
03FC
03FC
03FC
007C
00FC
01EC
03CC
078C
0F0C
1E00
3C00
7800
F000
2000
ENDCHAR
STARTCHAR 2198
ENCODING 8600
SWIDTH 807 0
DWIDTH 21 0
BBX 14 14 3 2
BITMAP
2000
7000
F800
3C00
1E00
0F0C
078C
03CC
01EC
00FC
007C
03FC
03FC
03FC
ENDCHAR
STARTCHAR 2199
ENCODING 8601
SWIDTH 807 0
DWIDTH 21 0
BBX 14 14 4 2
BITMAP
0018
003C
0078
00F0
01E0
E3C0
E780
EF00
DE00
DC00
F800
FF00
FF00
FF00
ENDCHAR
STARTCHAR 21A9
ENCODING 8617
SWIDTH 807 0
DWIDTH 21 0
BBX 19 14 1 2
BITMAP
000700
0207C0
0701C0
0F00E0
1E00E0
3C01E0
7FFFE0
FFFFC0
7FFF00
3C0000
1E0000
0F0000
060000
020000
ENDCHAR
STARTCHAR 21AA
ENCODING 8618
SWIDTH 807 0
DWIDTH 21 0
BBX 19 14 1 2
BITMAP
1C0000
7C0800
700C00
F01E00
E00F00
700780
7FFFC0
7FFFE0
1FFFC0
000780
000F00
001E00
000C00
000800
ENDCHAR
STARTCHAR 21B0
ENCODING 8624
SWIDTH 807 0
DWIDTH 21 0
BBX 14 18 3 0
BITMAP
0400
0E00
1F00
3C00
7800
7FFC
FFFC
7FFC
381C
1E1C
0F1C
061C
041C
001C
001C
001C
001C
001C
ENDCHAR
STARTCHAR 21B1
ENCODING 8625
SWIDTH 807 0
DWIDTH 21 0
BBX 14 18 5 0
BITMAP
0100
0380
03C0
01E0
00F0
FFF8
FFFC
FFF8
E0F0
E1E0
E3C0
E180
E100
E000
E000
E000
E000
E000
ENDCHAR
STARTCHAR 21B2
ENCODING 8626
SWIDTH 807 0
DWIDTH 21 0
BBX 14 18 3 0
BITMAP
001C
001C
001C
001C
001C
001C
041C
061C
0F1C
1E1C
381C
7FFC
FFFC
7FFC
3800
1E00
0F00
0400
ENDCHAR
STARTCHAR 21B3
ENCODING 8627
SWIDTH 807 0
DWIDTH 21 0
BBX 14 18 5 0
BITMAP
E000
E000
E000
E000
E000
E000
E100
E180
E3C0
E1E0
E0F0
FFF8
FFFC
FFF0
00E0
01C0
0380
0100
ENDCHAR
STARTCHAR 21B6
ENCODING 8630
SWIDTH 807 0
DWIDTH 21 0
BBX 19 16 1 1
BITMAP
007E00
01FF00
03FF80
07C3C0
0701E0
0700E0
0F00E0
0E00E0
4E4000
E66000
F6F000
7FC000
3F8000
1F0000
0E0000
040000
ENDCHAR
STARTCHAR 21B7
ENCODING 8631
SWIDTH 807 0
DWIDTH 21 0
BBX 19 16 1 1
BITMAP
07C000
1FF000
3FF800
783C00
701C00
E01E00
E00E00
E00E00
004E40
00EEE0
01EFE0
007FC0
003F80
001F00
000E00
000400
ENDCHAR
STARTCHAR 21BA
ENCODING 8634
SWIDTH 807 0
DWIDTH 21 0
BBX 16 18 3 0
BITMAP
01FE
01FE
01FE
01F0
61B8
719C
F18E
E18E
E006
E007
E007
E00F
E00E
701E
783C
3FFC
1FF8
07E0
ENDCHAR
STARTCHAR 21BB
ENCODING 8635
SWIDTH 807 0
DWIDTH 21 0
BBX 16 18 3 0
BITMAP
FF80
FF80
FF80
0F80
3F84
7B8E
739E
E38E
E007
E007
E007
E00E
E00E
F01E
783C
3FF8
1FF0
07E0
ENDCHAR
STARTCHAR 21C4
ENCODING 8644
SWIDTH 807 0
DWIDTH 21 0
BBX 19 21 1 -1
BITMAP
000800
000C00
001E00
000F00
000780
7FFFC0
7FFFE0
7FFFC0
040780
060F00
0F1E00
1E0C00
3C0800
7FFFE0
FFFFE0
7FFFE0
3C0000
1E0000
0F0000
060000
040000
ENDCHAR
STARTCHAR 21C6
ENCODING 8646
SWIDTH 807 0
DWIDTH 21 0
BBX 19 21 1 -1
BITMAP
040000
060000
0F0000
1E0000
3C0000
7FFFE0
FFFFE0
7FFFE0
3C0800
1E0C00
0F1E00
060F00
040780
7FFFC0
7FFFE0
7FFFC0
000780
000F00
001E00
000C00
000800
ENDCHAR
STARTCHAR 2202
ENCODING 8706
SWIDTH 538 0
DWIDTH 14 0
BBX 12 18 1 0
BITMAP
7E00
1F00
0780
03C0
01C0
3DE0
7EE0
FFE0
F1F0
F0F0
F0F0
F0F0
F0F0
F0F0
F1E0
7FE0
3FC0
1F80
ENDCHAR
STARTCHAR 2206
ENCODING 8710
SWIDTH 615 0
DWIDTH 16 0
BBX 14 18 1 0
BITMAP
0FC0
0FC0
0FC0
1FE0
1FE0
1CE0
1CE0
3CF0
3CF0
3870
3878
7878
7878
7038
F03C
FFFC
FFFC
FFFC
ENDCHAR
STARTCHAR 220F
ENCODING 8719
SWIDTH 653 0
DWIDTH 17 0
BBX 17 23 0 -5
BITMAP
FFFF80
FFFF80
FFFF80
1E3C00
1E3C00
1E3C00
1E3C00
1E3C00
1E3C00
1E3C00
1E3C00
1E3C00
1E3C00
1E3C00
1E3C00
1E3C00
1E3C00
1E3C00
1E3C00
1E3C00
1E3C00
1E3C00
1E3C00
ENDCHAR
STARTCHAR 2211
ENCODING 8721
SWIDTH 500 0
DWIDTH 13 0
BBX 11 23 1 -5
BITMAP
FFE0
FFE0
FFE0
F800
7800
3C00
3C00
1E00
1F00
0F00
0780
0780
0780
0F00
1F00
1E00
3C00
3C00
7800
F800
FFE0
FFE0
FFE0
ENDCHAR
STARTCHAR 2212
ENCODING 8722
SWIDTH 538 0
DWIDTH 14 0
BBX 12 3 1 6
BITMAP
FFF0
FFF0
FFF0
ENDCHAR
STARTCHAR 2215
ENCODING 8725
SWIDTH 115 0
DWIDTH 3 0
BBX 15 18 -6 0
BITMAP
000E
001C
0018
0038
0070
0060
00E0
0000
0000
0000
0000
0E00
1C00
1800
3800
7000
6000
E000
ENDCHAR
STARTCHAR 221A
ENCODING 8730
SWIDTH 538 0
DWIDTH 14 0
BBX 14 18 0 0
BITMAP
003C
003C
0038
0038
0078
F878
F870
F870
38F0
3CE0
3CE0
1CE0
1DE0
1DC0
1FC0
0FC0
0FC0
0F80
ENDCHAR
STARTCHAR 221E
ENCODING 8734
SWIDTH 730 0
DWIDTH 19 0
BBX 17 11 1 2
BITMAP
3E1E00
7F3F00
FF7F80
E3E380
E3C380
E1C380
E1C380
E2E380
FEFF80
7E7F00
3C3E00
ENDCHAR
STARTCHAR 222B
ENCODING 8747
SWIDTH 423 0
DWIDTH 11 0
BBX 9 24 1 -5
BITMAP
0F80
1F80
1F80
3C00
3C00
3C00
3C00
3C00
3C00
3C00
3C00
3C00
3C00
3C00
3C00
3C00
3C00
3C00
3C00
3C00
3C00
FC00
FC00
F800
ENDCHAR
STARTCHAR 2248
ENCODING 8776
SWIDTH 538 0
DWIDTH 14 0
BBX 12 11 1 3
BITMAP
7800
FE20
7FE0
47F0
01E0
0000
7800
FE20
7FE0
47F0
01E0
ENDCHAR
STARTCHAR 2260
ENCODING 8800
SWIDTH 538 0
DWIDTH 14 0
BBX 12 14 1 1
BITMAP
00E0
01C0
01C0
FFF0
FFF0
FFF0
0700
0E00
FFF0
FFF0
FFF0
3800
3800
7000
ENDCHAR
STARTCHAR 2264
ENCODING 8804
SWIDTH 538 0
DWIDTH 14 0
BBX 10 16 2 0
BITMAP
0040
01C0
07C0
1F80
7E00
F800
F800
7E00
1F80
07C0
01C0
0040
0000
FFC0
FFC0
FFC0
ENDCHAR
STARTCHAR 2265
ENCODING 8805
SWIDTH 538 0
DWIDTH 14 0
BBX 10 16 2 0
BITMAP
8000
E000
F800
7E00
1F80
07C0
07C0
1F80
7E00
F800
E000
8000
0000
FFC0
FFC0
FFC0
ENDCHAR
STARTCHAR 25CA
ENCODING 9674
SWIDTH 538 0
DWIDTH 14 0
BBX 12 18 1 0
BITMAP
0F00
0F00
1F80
1F80
39C0
39C0
70E0
70E0
E070
E070
70E0
70E0
39C0
39C0
1F80
1F80
0F00
0F00
ENDCHAR
STARTCHAR 2713
ENCODING 10003
SWIDTH 730 0
DWIDTH 19 0
BBX 15 18 2 0
BITMAP
0008
001E
001E
001E
003C
603C
F038
F078
F078
78F0
78F0
3CE0
3DE0
3DE0
1DC0
1FC0
0FC0
0F80
ENDCHAR
STARTCHAR 274C
ENCODING 10060
SWIDTH 730 0
DWIDTH 19 0
BBX 17 18 1 0
BITMAP
200600
700700
F80F80
7C1E00
3E3C00
1E7C00
0F7800
07F000
03E000
03E000
07F000
0F7800
1E7800
3E3C00
3C1E00
780F00
F00780
200600
ENDCHAR
STARTCHAR 2B0E
ENCODING 11022
SWIDTH 807 0
DWIDTH 21 0
BBX 19 14 1 2
BITMAP
FFFC00
FFFC00
FFFC00
001C00
001C00
001C00
009C80
01CDC0
01EDE0
00FF80
007F00
003E00
001C00
000800
ENDCHAR
STARTCHAR 2B0F
ENCODING 11023
SWIDTH 807 0
DWIDTH 21 0
BBX 19 14 1 3
BITMAP
000800
001C00
003E00
007F00
00FF80
01EDC0
01DDE0
009C80
001C00
001C00
001C00
FFFC00
FFFC00
FFFC00
ENDCHAR
STARTCHAR 2B10
ENCODING 11024
SWIDTH 807 0
DWIDTH 21 0
BBX 19 14 1 2
BITMAP
07FFE0
07FFE0
07FFE0
070000
070000
070000
272000
777000
FFF800
3FE000
1FC000
0F8000
070000
020000
ENDCHAR
STARTCHAR 2B11
ENCODING 11025
SWIDTH 807 0
DWIDTH 21 0
BBX 19 14 1 3
BITMAP
020000
070000
0F8000
1FC000
3FE000
7FF000
F77800
272000
070000
070000
070000
07FFE0
07FFE0
07FFE0
ENDCHAR
STARTCHAR ECE0
ENCODING 60640
SWIDTH 1192 0
DWIDTH 31 0
BBX 26 18 2 0
BITMAP
03C003C0
0FC00FC0
1FC01FC0
3C003C00
78007000
F0006000
E000E000
E000FF00
C000FF00
C000FF00
E000E000
E000E000
F0007000
78007800
3C003E00
1FC01FC0
0FC00FC0
03C003C0
ENDCHAR
STARTCHAR EFCC
ENCODING 61388
SWIDTH 1038 0
DWIDTH 27 0
BBX 23 18 3 0
BITMAP
FF0FC0
FE3FF0
C07078
C0C01C
C1878E
C39FE0
C33860
C33000
FF3000
FF3000
C33000
C33860
C39FE0
C1878C
C0C01E
C07038
C03FF0
800FC0
ENDCHAR
STARTCHAR F6D7
ENCODING 63191
SWIDTH 0 0
DWIDTH 0 0
BBX 8 11 -4 15
BITMAP
0C
0E
0E
1C
18
38
00
E7
E7
E7
E7
ENDCHAR
STARTCHAR F6D8
ENCODING 63192
SWIDTH 0 0
DWIDTH 0 0
BBX 8 11 -4 15
BITMAP
30
70
70
38
18
1C
00
E7
E7
E7
E7
ENDCHAR
STARTCHAR FB01
ENCODING 64257
SWIDTH 576 0
DWIDTH 15 0
BBX 14 19 0 0
BITMAP
0F3C
1F3C
3F3C
3C3C
3C00
3C00
FFFC
FFFC
FFFC
3C3C
3C3C
3C3C
3C3C
3C3C
3C3C
3C3C
3C3C
3C3C
3C3C
ENDCHAR
STARTCHAR FB02
ENCODING 64258
SWIDTH 615 0
DWIDTH 16 0
BBX 15 19 1 0
BITMAP
1E78
3E78
7E78
7878
7878
7878
FE78
FE78
FE78
7878
7878
7878
7878
7878
7878
7878
783E
783E
781E
ENDCHAR
ENDFONT
